  0
SECTION
  2
HEADER
  9
$ACADVER
  1
AC1024
  9
$ACADMAINTVER
 70
     6
  9
$DWGCODEPAGE
  3
UNDEFINED
  9
$INSBASE
 10
0.0
 20
0.0
 30
0.0
  9
$EXTMIN
 10
1.000000000000000E+20
 20
1.000000000000000E+20
 30
1.000000000000000E+20
  9
$EXTMAX
 10
-1.000000000000000E+20
 20
-1.000000000000000E+20
 30
-1.000000000000000E+20
  9
$LIMMIN
 10
0.0
 20
0.0
  9
$LIMMAX
 10
12.0
 20
9.0
  9
$ORTHOMODE
 70
     0
  9
$REGENMODE
 70
     1
  9
$FILLMODE
 70
     1
  9
$QTEXTMODE
 70
     0
  9
$MIRRTEXT
 70
     1
  9
$LTSCALE
 40
1.0
  9
$ATTMODE
 70
     1
  9
$TEXTSIZE
 40
0.2
  9
$TRACEWID
 40
0.05
  9
$TEXTSTYLE
  7
Standard
  9
$CLAYER
  8
0
  9
$CELTYPE
  6
ByLayer
  9
$CECOLOR
 62
   256
  9
$CELTSCALE
 40
1.0
  9
$DISPSILH
 70
     0
  9
$DIMSCALE
 40
1.0
  9
$DIMASZ
 40
0.18
  9
$DIMEXO
 40
0.0625
  9
$DIMDLI
 40
0.38
  9
$DIMRND
 40
0.0
  9
$DIMDLE
 40
0.0
  9
$DIMEXE
 40
0.18
  9
$DIMTP
 40
0.0
  9
$DIMTM
 40
0.0
  9
$DIMTXT
 40
0.18
  9
$DIMCEN
 40
0.09
  9
$DIMTSZ
 40
0.0
  9
$DIMTOL
 70
     0
  9
$DIMLIM
 70
     0
  9
$DIMTIH
 70
     1
  9
$DIMTOH
 70
     1
  9
$DIMSE1
 70
     0
  9
$DIMSE2
 70
     0
  9
$DIMTAD
 70
     0
  9
$DIMZIN
 70
     0
  9
$DIMBLK
  1

  9
$DIMASO
 70
     1
  9
$DIMSHO
 70
     1
  9
$DIMPOST
  1

  9
$DIMAPOST
  1

  9
$DIMALT
 70
     0
  9
$DIMALTD
 70
     2
  9
$DIMALTF
 40
25.4
  9
$DIMLFAC
 40
1.0
  9
$DIMTOFL
 70
     0
  9
$DIMTVP
 40
0.0
  9
$DIMTIX
 70
     0
  9
$DIMSOXD
 70
     0
  9
$DIMSAH
 70
     0
  9
$DIMBLK1
  1

  9
$DIMBLK2
  1

  9
$DIMSTYLE
  2
Standard
  9
$DIMCLRD
 70
     0
  9
$DIMCLRE
 70
     0
  9
$DIMCLRT
 70
     0
  9
$DIMTFAC
 40
1.0
  9
$DIMGAP
 40
0.09
  9
$DIMJUST
 70
     0
  9
$DIMSD1
 70
     0
  9
$DIMSD2
 70
     0
  9
$DIMTOLJ
 70
     1
  9
$DIMTZIN
 70
     0
  9
$DIMALTZ
 70
     0
  9
$DIMALTTZ
 70
     0
  9
$DIMUPT
 70
     0
  9
$DIMDEC
 70
     4
  9
$DIMTDEC
 70
     4
  9
$DIMALTU
 70
     2
  9
$DIMALTTD
 70
     2
  9
$DIMTXSTY
  7
Standard
  9
$DIMAUNIT
 70
     0
  9
$DIMADEC
 70
     0
  9
$DIMALTRND
 40
0.0
  9
$DIMAZIN
 70
     0
  9
$DIMDSEP
 70
    46
  9
$DIMATFIT
 70
     3
  9
$DIMFRAC
 70
     0
  9
$DIMLDRBLK
  1

  9
$DIMLUNIT
 70
     2
  9
$DIMLWD
 70
    -2
  9
$DIMLWE
 70
    -2
  9
$DIMTMOVE
 70
     0
  9
$DIMFXL
 40
1.0
  9
$DIMFXLON
 70
     0
  9
$DIMJOGANG
 40
0.7853981633974483
  9
$DIMTFILL
 70
     0
  9
$DIMTFILLCLR
 70
     0
  9
$DIMARCSYM
 70
     0
  9
$DIMLTYPE
  6

  9
$DIMLTEX1
  6

  9
$DIMLTEX2
  6

  9
$DIMTXTDIRECTION
 70
     0
  9
$LUNITS
 70
     2
  9
$LUPREC
 70
     4
  9
$SKETCHINC
 40
0.1
  9
$FILLETRAD
 40
0.5
  9
$AUNITS
 70
     0
  9
$AUPREC
 70
     0
  9
$MENU
  1
.
  9
$ELEVATION
 40
0.0
  9
$PELEVATION
 40
0.0
  9
$THICKNESS
 40
0.0
  9
$LIMCHECK
 70
     0
  9
$CHAMFERA
 40
0.5
  9
$CHAMFERB
 40
0.5
  9
$CHAMFERC
 40
1.0
  9
$CHAMFERD
 40
0.0
  9
$SKPOLY
 70
     0
  9
$TDCREATE
 40
2458827.517349525
  9
$TDUCREATE
 40
2458827.184016204
  9
$TDUPDATE
 40
2458827.517349525
  9
$TDUUPDATE
 40
2458827.184016204
  9
$TDINDWG
 40
0.0000000116
  9
$TDUSRTIMER
 40
0.0000000116
  9
$USRTIMER
 70
     1
  9
$ANGBASE
 50
0.0
  9
$ANGDIR
 70
     0
  9
$PDMODE
 70
     0
  9
$PDSIZE
 40
0.0
  9
$PLINEWID
 40
0.0
  9
$SPLFRAME
 70
     0
  9
$SPLINETYPE
 70
     6
  9
$SPLINESEGS
 70
     8
  9
$HANDSEED
  5
13B
  9
$SURFTAB1
 70
     6
  9
$SURFTAB2
 70
     6
  9
$SURFTYPE
 70
     6
  9
$SURFU
 70
     6
  9
$SURFV
 70
     6
  9
$UCSBASE
  2

  9
$UCSNAME
  2

  9
$UCSORG
 10
0.0
 20
0.0
 30
0.0
  9
$UCSXDIR
 10
1.0
 20
0.0
 30
0.0
  9
$UCSYDIR
 10
0.0
 20
1.0
 30
0.0
  9
$UCSORTHOREF
  2

  9
$UCSORTHOVIEW
 70
     0
  9
$UCSORGTOP
 10
0.0
 20
0.0
 30
0.0
  9
$UCSORGBOTTOM
 10
0.0
 20
0.0
 30
0.0
  9
$UCSORGLEFT
 10
0.0
 20
0.0
 30
0.0
  9
$UCSORGRIGHT
 10
0.0
 20
0.0
 30
0.0
  9
$UCSORGFRONT
 10
0.0
 20
0.0
 30
0.0
  9
$UCSORGBACK
 10
0.0
 20
0.0
 30
0.0
  9
$PUCSBASE
  2

  9
$PUCSNAME
  2

  9
$PUCSORG
 10
0.0
 20
0.0
 30
0.0
  9
$PUCSXDIR
 10
1.0
 20
0.0
 30
0.0
  9
$PUCSYDIR
 10
0.0
 20
1.0
 30
0.0
  9
$PUCSORTHOREF
  2

  9
$PUCSORTHOVIEW
 70
     0
  9
$PUCSORGTOP
 10
0.0
 20
0.0
 30
0.0
  9
$PUCSORGBOTTOM
 10
0.0
 20
0.0
 30
0.0
  9
$PUCSORGLEFT
 10
0.0
 20
0.0
 30
0.0
  9
$PUCSORGRIGHT
 10
0.0
 20
0.0
 30
0.0
  9
$PUCSORGFRONT
 10
0.0
 20
0.0
 30
0.0
  9
$PUCSORGBACK
 10
0.0
 20
0.0
 30
0.0
  9
$USERI1
 70
     0
  9
$USERI2
 70
     0
  9
$USERI3
 70
     0
  9
$USERI4
 70
     0
  9
$USERI5
 70
     0
  9
$USERR1
 40
0.0
  9
$USERR2
 40
0.0
  9
$USERR3
 40
0.0
  9
$USERR4
 40
0.0
  9
$USERR5
 40
0.0
  9
$WORLDVIEW
 70
     1
  9
$SHADEDGE
 70
     3
  9
$SHADEDIF
 70
    70
  9
$TILEMODE
 70
     1
  9
$MAXACTVP
 70
    64
  9
$PINSBASE
 10
0.0
 20
0.0
 30
0.0
  9
$PLIMCHECK
 70
     0
  9
$PEXTMIN
 10
1.000000000000000E+20
 20
1.000000000000000E+20
 30
1.000000000000000E+20
  9
$PEXTMAX
 10
-1.000000000000000E+20
 20
-1.000000000000000E+20
 30
-1.000000000000000E+20
  9
$PLIMMIN
 10
0.0
 20
0.0
  9
$PLIMMAX
 10
12.0
 20
9.0
  9
$UNITMODE
 70
     0
  9
$VISRETAIN
 70
     1
  9
$PLINEGEN
 70
     0
  9
$PSLTSCALE
 70
     1
  9
$TREEDEPTH
 70
  3020
  9
$CMLSTYLE
  2
Standard
  9
$CMLJUST
 70
     0
  9
$CMLSCALE
 40
1.0
  9
$PROXYGRAPHICS
 70
     1
  9
$MEASUREMENT
 70
     0
  9
$CELWEIGHT
370
    -1
  9
$ENDCAPS
280
     0
  9
$JOINSTYLE
280
     0
  9
$LWDISPLAY
290
     1
  9
$INSUNITS
 70
     4
  9
$HYPERLINKBASE
  1

  9
$STYLESHEET
  1

  9
$XEDIT
290
     1
  9
$CEPSNTYPE
380
     0
  9
$PSTYLEMODE
290
     1
  9
$FINGERPRINTGUID
  2
{C4DA1C99-ACA2-F244-9F9C-1A600052B352}
  9
$VERSIONGUID
  2
{FAEB1C32-E019-11D5-929B-00C0DF256EC4}
  9
$EXTNAMES
290
     1
  9
$PSVPSCALE
 40
0.0
  9
$OLESTARTUP
290
     0
  9
$SORTENTS
280
   127
  9
$INDEXCTL
280
     0
  9
$HIDETEXT
280
     1
  9
$XCLIPFRAME
280
     2
  9
$HALOGAP
280
     0
  9
$OBSCOLOR
 70
   257
  9
$OBSLTYPE
280
     0
  9
$INTERSECTIONDISPLAY
280
     0
  9
$INTERSECTIONCOLOR
 70
   257
  9
$DIMASSOC
280
     2
  9
$PROJECTNAME
  1

  9
$CAMERADISPLAY
290
     0
  9
$LENSLENGTH
 40
50.0
  9
$CAMERAHEIGHT
 40
0.0
  9
$STEPSPERSEC
 40
2.0
  9
$STEPSIZE
 40
6.0
  9
$3DDWFPREC
 40
2.0
  9
$PSOLWIDTH
 40
0.25
  9
$PSOLHEIGHT
 40
4.0
  9
$LOFTANG1
 40
1.570796326794897
  9
$LOFTANG2
 40
1.570796326794897
  9
$LOFTMAG1
 40
0.0
  9
$LOFTMAG2
 40
0.0
  9
$LOFTPARAM
 70
     7
  9
$LOFTNORMALS
280
     1
  9
$LATITUDE
 40
37.795
  9
$LONGITUDE
 40
-122.394
  9
$NORTHDIRECTION
 40
0.0
  9
$TIMEZONE
 70
 -8000
  9
$LIGHTGLYPHDISPLAY
280
     1
  9
$TILEMODELIGHTSYNCH
280
     1
  9
$CMATERIAL
347
3C
  9
$SOLIDHIST
280
     1
  9
$SHOWHIST
280
     1
  9
$DWFFRAME
280
     2
  9
$DGNFRAME
280
     2
  9
$REALWORLDSCALE
290
     1
  9
$INTERFERECOLOR
 62
   256
  9
$CSHADOW
280
     0
  9
$SHADOWPLANELOCATION
 40
0.0
  0
ENDSEC
  0
SECTION
  2
CLASSES
  0
CLASS
  1
ACDBDICTIONARYWDFLT
  2
AcDbDictionaryWithDefault
  3
ObjectDBX Classes
 90
        0
 91
        4
280
     0
281
     0
  0
CLASS
  1
VISUALSTYLE
  2
AcDbVisualStyle
  3
ObjectDBX Classes
 90
     4095
 91
        4
280
     0
281
     0
  0
CLASS
  1
MATERIAL
  2
AcDbMaterial
  3
ObjectDBX Classes
 90
     1153
 91
        4
280
     0
281
     0
  0
CLASS
  1
SUN
  2
AcDbSun
  3
SCENEOE
 90
     1024
 91
        4
280
     0
281
     0
  0
ENDSEC
  0
SECTION
  2
TABLES
  0
TABLE
  2
VPORT
  5
8
330
0
100
AcDbSymbolTable
 70
     1
  0
VPORT
  5
29
330
8
100
AcDbSymbolTableRecord
100
AcDbViewportTableRecord
  2
*Active
 70
     0
 10
0.0
 20
0.0
 11
1.0
 21
1.0
 12
0.0
 22
0.0
 13
0.0
 23
0.0
 14
0.5
 24
0.5
 15
0.5
 25
0.5
 16
0.0
 26
0.0
 36
1.0
 17
49.99934720972225
 27
-67.14675572309329
 37
0.0
 40
184.2940114336863
 41
1.08522245727971
 42
50.0
 43
0.0
 44
0.0
 50
0.0
 51
0.0
 71
     0
 72
   100
 73
     1
 74
     3
 75
     0
 76
     0
 77
     0
 78
     0
281
     0
 65
     1
110
0.0
120
0.0
130
0.0
111
1.0
121
0.0
131
0.0
112
0.0
122
1.0
132
0.0
 79
     0
146
0.0
 60
     3
 61
     5
292
     1
282
     1
141
0.0
142
0.0
 63
   250
361
3F
  0
ENDTAB
  0
TABLE
  2
LTYPE
  5
5
330
0
100
AcDbSymbolTable
 70
     1
  0
LTYPE
  5
14
330
5
100
AcDbSymbolTableRecord
100
AcDbLinetypeTableRecord
  2
ByBlock
 70
     0
  3

 72
    65
 73
     0
 40
0.0
  0
LTYPE
  5
15
330
5
100
AcDbSymbolTableRecord
100
AcDbLinetypeTableRecord
  2
ByLayer
 70
     0
  3

 72
    65
 73
     0
 40
0.0
  0
LTYPE
  5
16
330
5
100
AcDbSymbolTableRecord
100
AcDbLinetypeTableRecord
  2
Continuous
 70
     0
  3
Solid line
 72
    65
 73
     0
 40
0.0
  0
ENDTAB
  0
TABLE
  2
LAYER
  5
2
330
0
100
AcDbSymbolTable
 70
     2
  0
LAYER
  5
10
330
2
100
AcDbSymbolTableRecord
100
AcDbLayerTableRecord
  2
0
 70
     0
 62
     7
  6
Continuous
370
    -3
390
F
347
3E
  0
LAYER
  5
40
330
2
100
AcDbSymbolTableRecord
100
AcDbLayerTableRecord
  2
_U+5716_U+5C64 1
 70
     0
 62
     7
  6
Continuous
370
    -3
390
F
347
3E
  0
ENDTAB
  0
TABLE
  2
STYLE
  5
3
330
0
100
AcDbSymbolTable
 70
     1
  0
STYLE
  5
11
330
3
100
AcDbSymbolTableRecord
100
AcDbTextStyleTableRecord
  2
Standard
 70
     0
 40
0.0
 41
1.0
 50
0.0
 71
     0
 42
0.2
  3
txt
  4

  0
ENDTAB
  0
TABLE
  2
VIEW
  5
6
330
0
100
AcDbSymbolTable
 70
     0
  0
ENDTAB
  0
TABLE
  2
UCS
  5
7
330
0
100
AcDbSymbolTable
 70
     0
  0
ENDTAB
  0
TABLE
  2
APPID
  5
9
330
0
100
AcDbSymbolTable
 70
     1
  0
APPID
  5
12
330
9
100
AcDbSymbolTableRecord
100
AcDbRegAppTableRecord
  2
ACAD
 70
     0
  0
ENDTAB
  0
TABLE
  2
DIMSTYLE
  5
A
330
0
100
AcDbSymbolTable
 70
     1
100
AcDbDimStyleTable
  0
DIMSTYLE
105
27
330
A
100
AcDbSymbolTableRecord
100
AcDbDimStyleTableRecord
  2
Standard
 70
     0
178
     0
340
11
  0
ENDTAB
  0
TABLE
  2
BLOCK_RECORD
  5
1
330
0
100
AcDbSymbolTable
 70
    13
  0
BLOCK_RECORD
  5
1F
330
1
100
AcDbSymbolTableRecord
100
AcDbBlockTableRecord
  2
*Model_Space
340
22
 70
     0
280
     1
281
     0
  0
BLOCK_RECORD
  5
1B
330
1
100
AcDbSymbolTableRecord
100
AcDbBlockTableRecord
  2
*Paper_Space
340
1E
 70
     0
280
     1
281
     0
  0
BLOCK_RECORD
  5
23
330
1
100
AcDbSymbolTableRecord
100
AcDbBlockTableRecord
  2
*Paper_Space0
340
26
 70
     0
280
     1
281
     0
  0
BLOCK_RECORD
  5
41
330
1
100
AcDbSymbolTableRecord
100
AcDbBlockTableRecord
  2
block 2
340
0
102
{BLKREFS
331
42
102
}
 70
     0
280
     1
281
     0
  0
BLOCK_RECORD
  5
45
330
1
100
AcDbSymbolTableRecord
100
AcDbBlockTableRecord
  2
block 3
340
0
102
{BLKREFS
331
46
102
}
 70
     0
280
     1
281
     0
  0
BLOCK_RECORD
  5
4A
330
1
100
AcDbSymbolTableRecord
100
AcDbBlockTableRecord
  2
block 4
340
0
102
{BLKREFS
331
4B
102
}
 70
     0
280
     1
281
     0
  0
BLOCK_RECORD
  5
4E
330
1
100
AcDbSymbolTableRecord
100
AcDbBlockTableRecord
  2
block 5
340
0
102
{BLKREFS
331
4F
102
}
 70
     0
280
     1
281
     0
  0
BLOCK_RECORD
  5
114
330
1
100
AcDbSymbolTableRecord
100
AcDbBlockTableRecord
  2
block 6
340
0
102
{BLKREFS
331
115
102
}
 70
     0
280
     1
281
     0
  0
BLOCK_RECORD
  5
118
330
1
100
AcDbSymbolTableRecord
100
AcDbBlockTableRecord
  2
block 7
340
0
102
{BLKREFS
331
119
102
}
 70
     0
280
     1
281
     0
  0
BLOCK_RECORD
  5
11D
330
1
100
AcDbSymbolTableRecord
100
AcDbBlockTableRecord
  2
block 8
340
0
102
{BLKREFS
331
11E
102
}
 70
     0
280
     1
281
     0
  0
BLOCK_RECORD
  5
121
330
1
100
AcDbSymbolTableRecord
100
AcDbBlockTableRecord
  2
block 9
340
0
102
{BLKREFS
331
122
102
}
 70
     0
280
     1
281
     0
  0
BLOCK_RECORD
  5
126
330
1
100
AcDbSymbolTableRecord
100
AcDbBlockTableRecord
  2
block 10
340
0
102
{BLKREFS
331
127
102
}
 70
     0
280
     1
281
     0
  0
BLOCK_RECORD
  5
12A
330
1
100
AcDbSymbolTableRecord
100
AcDbBlockTableRecord
  2
block 11
340
0
102
{BLKREFS
331
12B
102
}
 70
     0
280
     1
281
     0
  0
BLOCK_RECORD
  5
130
330
1
100
AcDbSymbolTableRecord
100
AcDbBlockTableRecord
  2
block 12
340
0
102
{BLKREFS
331
131
102
}
 70
     0
280
     1
281
     0
  0
BLOCK_RECORD
  5
134
330
1
100
AcDbSymbolTableRecord
100
AcDbBlockTableRecord
  2
block 13
340
0
102
{BLKREFS
331
135
102
}
 70
     0
280
     1
281
     0
  0
ENDTAB
  0
ENDSEC
  0
SECTION
  2
BLOCKS
  0
BLOCK
  5
20
330
1F
100
AcDbEntity
  8
0
100
AcDbBlockBegin
  2
*Model_Space
 70
     0
 10
0.0
 20
0.0
 30
0.0
  3
*Model_Space
  1

  0
ENDBLK
  5
21
330
1F
100
AcDbEntity
  8
0
100
AcDbBlockEnd
  0
BLOCK
  5
1C
330
1B
100
AcDbEntity
 67
     1
  8
0
100
AcDbBlockBegin
  2
*Paper_Space
 70
     0
 10
0.0
 20
0.0
 30
0.0
  3
*Paper_Space
  1

  0
ENDBLK
  5
1D
330
1B
100
AcDbEntity
 67
     1
  8
0
100
AcDbBlockEnd
  0
BLOCK
  5
24
330
23
100
AcDbEntity
  8
0
100
AcDbBlockBegin
  2
*Paper_Space0
 70
     0
 10
0.0
 20
0.0
 30
0.0
  3
*Paper_Space0
  1

  0
ENDBLK
  5
25
330
23
100
AcDbEntity
  8
0
100
AcDbBlockEnd
  0
BLOCK
  5
43
330
41
100
AcDbEntity
  8
0
100
AcDbBlockBegin
  2
block 2
 70
     0
 10
0.0
 20
0.0
 30
0.0
  3
block 2
  1

  0
INSERT
  5
46
330
41
100
AcDbEntity
  8
_U+5716_U+5C64 1
100
AcDbBlockReference
  2
block 3
 10
0.0
 20
0.0
 30
0.0
  0
ENDBLK
  5
44
330
41
100
AcDbEntity
  8
0
100
AcDbBlockEnd
  0
BLOCK
  5
47
330
45
100
AcDbEntity
  8
0
100
AcDbBlockBegin
  2
block 3
 70
     0
 10
0.0
 20
0.0
 30
0.0
  3
block 3
  1

  0
SPLINE
  5
49
330
45
100
AcDbEntity
  8
_U+5716_U+5C64 1
370
     0
100
AcDbSpline
210
0.0
220
0.0
230
1.0
 70
    11
 71
     3
 72
    74
 73
    70
 74
     0
 42
0.0000000001
 43
0.0000000001
 12
1.0
 22
0.0
 32
0.0
 13
1.0
 23
0.0
 33
0.0
 40
0.0
 40
0.0
 40
0.0
 40
0.0
 40
1.0
 40
1.0
 40
1.0
 40
2.0
 40
2.0
 40
2.0
 40
3.0
 40
3.0
 40
3.0
 40
4.0
 40
4.0
 40
4.0
 40
5.0
 40
5.0
 40
5.0
 40
6.0
 40
6.0
 40
6.0
 40
7.0
 40
7.0
 40
7.0
 40
8.0
 40
8.0
 40
8.0
 40
9.0
 40
9.0
 40
9.0
 40
10.0
 40
10.0
 40
10.0
 40
11.0
 40
11.0
 40
11.0
 40
12.0
 40
12.0
 40
12.0
 40
13.0
 40
13.0
 40
13.0
 40
14.0
 40
14.0
 40
14.0
 40
15.0
 40
15.0
 40
15.0
 40
16.0
 40
16.0
 40
16.0
 40
17.0
 40
17.0
 40
17.0
 40
18.0
 40
18.0
 40
18.0
 40
19.0
 40
19.0
 40
19.0
 40
20.0
 40
20.0
 40
20.0
 40
21.0
 40
21.0
 40
21.0
 40
22.0
 40
22.0
 40
22.0
 40
23.0
 40
23.0
 40
23.0
 40
23.0
 10
-27.62659595164064
 20
-40.80330472367037
 30
0.0
 10
-27.62659595164064
 20
-40.74312083479672
 30
0.0
 10
-27.62119845177834
 20
-40.68307805703443
 30
0.0
 10
-27.61040345205374
 20
-40.62391722371525
 30
0.0
 10
-27.5113081768041
 20
-40.08056889051795
 30
0.0
 10
-26.99057291231138
 20
-39.72045333505298
 30
0.0
 10
-26.44722459284002
 20
-39.81951333502774
 30
0.0
 10
-26.44722459284002
 20
-39.81951333502774
 30
0.0
 10
-14.7414585025901
 20
-67.43516943923495
 30
0.0
 10
-14.7414585025901
 20
-67.43516943923495
 30
0.0
 10
-14.7414585025901
 20
-67.43516943923495
 30
0.0
 10
-2.127219102183938
 20
-97.19416220957304
 30
0.0
 10
-2.127219102183938
 20
-97.19416220957304
 30
0.0
 10
-2.126624027238464
 20
-97.19811332068281
 30
0.0
 10
-2.126624027238464
 20
-97.20061804290467
 30
0.0
 10
-2.126624027238464
 20
-97.20315804290404
 30
0.0
 10
-2.126624027238464
 20
-97.20315804290404
 30
0.0
 10
-2.126624027238464
 20
-143.3911883091348
 30
0.0
 10
-2.126624027238464
 20
-143.3911883091348
 30
0.0
 10
-2.126624027238464
 20
-146.152591641778
 30
0.0
 10
-4.365170711755703
 20
-148.3911712523292
 30
0.0
 10
-7.126609252416648
 20
-148.3911712523292
 30
0.0
 10
-7.126609252416648
 20
-148.3911712523292
 30
0.0
 10
-30.62661809732592
 20
-148.3911712523292
 30
0.0
 10
-30.62661809732592
 20
-148.3911712523292
 30
0.0
 10
-30.62661809732592
 20
-148.3911712523292
 30
0.0
 10
-30.62661809732592
 20
-145.3911560864127
 30
0.0
 10
-30.62661809732592
 20
-145.3911560864127
 30
0.0
 10
-30.62661809732592
 20
-145.3911560864127
 30
0.0
 10
-27.62659595164064
 20
-145.3911560864127
 30
0.0
 10
-27.62659595164064
 20
-145.3911560864127
 30
0.0
 10
-27.62659595164064
 20
-145.3911560864127
 30
0.0
 10
-27.62659595164064
 20
-112.2681802613599
 30
0.0
 10
-27.62659595164064
 20
-112.2681802613599
 30
0.0
 10
-27.62659595164064
 20
-112.2681802613599
 30
0.0
 10
-16.62659706560732
 20
-112.2681802613599
 30
0.0
 10
-16.62659706560732
 20
-112.2681802613599
 30
0.0
 10
-16.62659706560732
 20
-112.2681802613599
 30
0.0
 10
-16.62659706560732
 20
-109.2681580398874
 30
0.0
 10
-16.62659706560732
 20
-109.2681580398874
 30
0.0
 10
-16.62659706560732
 20
-109.2681580398874
 30
0.0
 10
-27.62659595164064
 20
-109.2681580398874
 30
0.0
 10
-27.62659595164064
 20
-109.2681580398874
 30
0.0
 10
-27.62659595164064
 20
-109.2681580398874
 30
0.0
 10
-27.62659595164064
 20
-82.26816971330447
 30
0.0
 10
-27.62659595164064
 20
-82.26816971330447
 30
0.0
 10
-27.62659595164064
 20
-82.26816971330447
 30
0.0
 10
-19.6266192112926
 20
-82.26816971330447
 30
0.0
 10
-19.6266192112926
 20
-82.26816971330447
 30
0.0
 10
-19.6266192112926
 20
-82.26816971330447
 30
0.0
 10
-19.6266192112926
 20
-79.26818276961012
 30
0.0
 10
-19.6266192112926
 20
-79.26818276961012
 30
0.0
 10
-19.6266192112926
 20
-79.26818276961012
 30
0.0
 10
-27.62659595164064
 20
-79.26818276961012
 30
0.0
 10
-27.62659595164064
 20
-79.26818276961012
 30
0.0
 10
-27.62659595164064
 20
-79.26818276961012
 30
0.0
 10
-27.62659595164064
 20
-52.26815916524903
 30
0.0
 10
-27.62659595164064
 20
-52.26815916524903
 30
0.0
 10
-27.62659595164064
 20
-52.26815916524903
 30
0.0
 10
-24.62660908373223
 20
-52.26815916524903
 30
0.0
 10
-24.62660908373223
 20
-52.26815916524903
 30
0.0
 10
-24.62660908373223
 20
-52.26815916524903
 30
0.0
 10
-24.62660908373223
 20
-49.26817222155469
 30
0.0
 10
-24.62660908373223
 20
-49.26817222155469
 30
0.0
 10
-24.62660908373223
 20
-49.26817222155469
 30
0.0
 10
-27.62659595164064
 20
-49.26817222155469
 30
0.0
 10
-27.62659595164064
 20
-49.26817222155469
 30
0.0
 10
-27.62659595164064
 20
-49.26817222155469
 30
0.0
 10
-27.62659595164064
 20
-40.80330472367037
 30
0.0
 10
-27.62659595164064
 20
-40.80330472367037
 30
0.0
  0
ENDBLK
  5
48
330
45
100
AcDbEntity
  8
0
100
AcDbBlockEnd
  0
BLOCK
  5
4C
330
4A
100
AcDbEntity
  8
0
100
AcDbBlockBegin
  2
block 4
 70
     0
 10
0.0
 20
0.0
 30
0.0
  3
block 4
  1

  0
INSERT
  5
4F
330
4A
100
AcDbEntity
  8
_U+5716_U+5C64 1
100
AcDbBlockReference
  2
block 5
 10
0.0
 20
0.0
 30
0.0
  0
ENDBLK
  5
4D
330
4A
100
AcDbEntity
  8
0
100
AcDbBlockEnd
  0
BLOCK
  5
50
330
4E
100
AcDbEntity
  8
0
100
AcDbBlockBegin
  2
block 5
 70
     0
 10
0.0
 20
0.0
 30
0.0
  3
block 5
  1

  0
POLYLINE
  5
52
330
4E
100
AcDbEntity
  8
_U+5716_U+5C64 1
370
     0
100
AcDb2dPolyline
 66
     1
 10
0.0
 20
0.0
 30
0.0
  0
VERTEX
  5
53
330
52
100
AcDbEntity
  8
_U+5716_U+5C64 1
370
     0
100
AcDbVertex
100
AcDb2dVertex
 10
73.71294695349967
 20
-82.93445663817975
 30
0.0
  0
VERTEX
  5
54
330
52
100
AcDbEntity
  8
_U+5716_U+5C64 1
370
     0
100
AcDbVertex
100
AcDb2dVertex
 10
76.71296909918495
 20
-82.93445663817975
 30
0.0
  0
VERTEX
  5
55
330
52
100
AcDbEntity
  8
_U+5716_U+5C64 1
370
     0
100
AcDbVertex
100
AcDb2dVertex
 10
76.71296909918495
 20
-67.93445136415171
 30
0.0
  0
VERTEX
  5
56
330
52
100
AcDbEntity
  8
_U+5716_U+5C64 1
370
     0
100
AcDbVertex
100
AcDb2dVertex
 10
73.71294695349967
 20
-67.93445136415171
 30
0.0
  0
VERTEX
  5
57
330
52
100
AcDbEntity
  8
_U+5716_U+5C64 1
370
     0
100
AcDbVertex
100
AcDb2dVertex
 10
73.71294695349967
 20
-64.93442914267953
 30
0.0
  0
VERTEX
  5
58
330
52
100
AcDbEntity
  8
_U+5716_U+5C64 1
370
     0
100
AcDbVertex
100
AcDb2dVertex
 10
76.71296909918495
 20
-64.93442914267953
 30
0.0
  0
VERTEX
  5
59
330
52
100
AcDbEntity
  8
_U+5716_U+5C64 1
370
     0
100
AcDbVertex
100
AcDb2dVertex
 10
76.71296909918495
 20
-36.87935303858243
 30
0.0
  0
VERTEX
  5
5A
330
52
100
AcDbEntity
  8
_U+5716_U+5C64 1
370
     0
100
AcDbVertex
100
AcDb2dVertex
 10
77.86172247848314
 20
-37.18161303850671
 30
0.0
  0
VERTEX
  5
5B
330
52
100
AcDbEntity
  8
_U+5716_U+5C64 1
370
     0
100
AcDbVertex
100
AcDb2dVertex
 10
81.86401841221517
 20
-38.23511331602128
 30
0.0
  0
VERTEX
  5
5C
330
52
100
AcDbEntity
  8
_U+5716_U+5C64 1
370
     0
100
AcDbVertex
100
AcDb2dVertex
 10
85.44362247658773
 20
-39.28776692686897
 30
0.0
  0
VERTEX
  5
5D
330
52
100
AcDbEntity
  8
_U+5716_U+5C64 1
370
     0
100
AcDbVertex
100
AcDb2dVertex
 10
86.47175468355091
 20
-39.59027387123781
 30
0.0
  0
VERTEX
  5
5E
330
52
100
AcDbEntity
  8
_U+5716_U+5C64 1
370
     0
100
AcDbVertex
100
AcDb2dVertex
 10
89.6321848806994
 20
-40.64296275986366
 30
0.0
  0
VERTEX
  5
5F
330
52
100
AcDbEntity
  8
_U+5716_U+5C64 1
370
     0
100
AcDbVertex
100
AcDb2dVertex
 10
90.53903541311928
 20
-40.94504637089906
 30
0.0
  0
VERTEX
  5
60
330
52
100
AcDbEntity
  8
_U+5716_U+5C64 1
370
     0
100
AcDbVertex
100
AcDb2dVertex
 10
93.27673200994148
 20
-41.99928748174668
 30
0.0
  0
VERTEX
  5
61
330
52
100
AcDbEntity
  8
_U+5716_U+5C64 1
370
     0
100
AcDbVertex
100
AcDb2dVertex
 10
94.06296782321627
 20
-42.30179442611553
 30
0.0
  0
VERTEX
  5
62
330
52
100
AcDbEntity
  8
_U+5716_U+5C64 1
370
     0
100
AcDbVertex
100
AcDb2dVertex
 10
96.38029443076302
 20
-43.35448331474137
 30
0.0
  0
VERTEX
  5
63
330
52
100
AcDbEntity
  8
_U+5716_U+5C64 1
370
     0
100
AcDbVertex
100
AcDb2dVertex
 10
97.04528052490892
 20
-43.65677859244349
 30
0.0
  0
VERTEX
  5
64
330
52
100
AcDbEntity
  8
_U+5716_U+5C64 1
370
     0
100
AcDbVertex
100
AcDb2dVertex
 10
98.93990880990626
 20
-44.70946748106935
 30
0.0
  0
VERTEX
  5
65
330
52
100
AcDbEntity
  8
_U+5716_U+5C64 1
370
     0
100
AcDbVertex
100
AcDb2dVertex
 10
99.48428018490706
 20
-45.01197442543819
 30
0.0
  0
VERTEX
  5
66
330
52
100
AcDbEntity
  8
_U+5716_U+5C64 1
370
     0
100
AcDbVertex
100
AcDb2dVertex
 10
100.959667369489
 20
-46.0654394251746
 30
0.0
  0
VERTEX
  5
67
330
52
100
AcDbEntity
  8
_U+5716_U+5C64 1
370
     0
100
AcDbVertex
100
AcDb2dVertex
 10
101.382789025361
 20
-46.36752303621032
 30
0.0
  0
VERTEX
  5
68
330
52
100
AcDbEntity
  8
_U+5716_U+5C64 1
370
     0
100
AcDbVertex
100
AcDb2dVertex
 10
102.4354778873935
 20
-47.42021192483585
 30
0.0
  0
VERTEX
  5
69
330
52
100
AcDbEntity
  8
_U+5716_U+5C64 1
370
     0
100
AcDbVertex
100
AcDb2dVertex
 10
102.7379848241204
 20
-47.7227188692047
 30
0.0
  0
VERTEX
  5
6A
330
52
100
AcDbEntity
  8
_U+5716_U+5C64 1
370
     0
100
AcDbVertex
100
AcDb2dVertex
 10
103.3703036968775
 20
-48.77695998005231
 30
0.0
  0
VERTEX
  5
6B
330
52
100
AcDbEntity
  8
_U+5716_U+5C64 1
370
     0
100
AcDbVertex
100
AcDb2dVertex
 10
103.4647423055792
 20
-48.93443998001288
 30
0.0
  0
VERTEX
  5
6C
330
52
100
AcDbEntity
  8
_U+5716_U+5C64 1
370
     0
100
AcDbVertex
100
AcDb2dVertex
 10
89.7129709897495
 20
-48.93443998001288
 30
0.0
  0
VERTEX
  5
6D
330
52
100
AcDbEntity
  8
_U+5716_U+5C64 1
370
     0
100
AcDbVertex
100
AcDb2dVertex
 10
89.7129709897495
 20
-51.93442692370754
 30
0.0
  0
VERTEX
  5
6E
330
52
100
AcDbEntity
  8
_U+5716_U+5C64 1
370
     0
100
AcDbVertex
100
AcDb2dVertex
 10
103.4646717500255
 20
-51.93442692370754
 30
0.0
  0
VERTEX
  5
6F
330
52
100
AcDbEntity
  8
_U+5716_U+5C64 1
370
     0
100
AcDbVertex
100
AcDb2dVertex
 10
103.3703036968775
 20
-52.09169525700138
 30
0.0
  0
VERTEX
  5
70
330
52
100
AcDbEntity
  8
_U+5716_U+5C64 1
370
     0
100
AcDbVertex
100
AcDb2dVertex
 10
102.7379848241204
 20
-53.14516025673812
 30
0.0
  0
VERTEX
  5
71
330
52
100
AcDbEntity
  8
_U+5716_U+5C64 1
370
     0
100
AcDbVertex
100
AcDb2dVertex
 10
102.4354778873935
 20
-53.44766720110696
 30
0.0
  0
VERTEX
  5
72
330
52
100
AcDbEntity
  8
_U+5716_U+5C64 1
370
     0
100
AcDbVertex
100
AcDb2dVertex
 10
101.382789025361
 20
-54.50035608973249
 30
0.0
  0
VERTEX
  5
73
330
52
100
AcDbEntity
  8
_U+5716_U+5C64 1
370
     0
100
AcDbVertex
100
AcDb2dVertex
 10
100.959667369489
 20
-54.80265136743493
 30
0.0
  0
VERTEX
  5
74
330
52
100
AcDbEntity
  8
_U+5716_U+5C64 1
370
     0
100
AcDbVertex
100
AcDb2dVertex
 10
99.48428018490706
 20
-55.85692775606007
 30
0.0
  0
VERTEX
  5
75
330
52
100
AcDbEntity
  8
_U+5716_U+5C64 1
370
     0
100
AcDbVertex
100
AcDb2dVertex
 10
98.93990880990626
 20
-56.15939942265107
 30
0.0
  0
VERTEX
  5
76
330
52
100
AcDbEntity
  8
_U+5716_U+5C64 1
370
     0
100
AcDbVertex
100
AcDb2dVertex
 10
97.04528052490892
 20
-57.21208831127692
 30
0.0
  0
VERTEX
  5
77
330
52
100
AcDbEntity
  8
_U+5716_U+5C64 1
370
     0
100
AcDbVertex
100
AcDb2dVertex
 10
96.38029443076302
 20
-57.51417192231264
 30
0.0
  0
VERTEX
  5
78
330
52
100
AcDbEntity
  8
_U+5716_U+5C64 1
370
     0
100
AcDbVertex
100
AcDb2dVertex
 10
94.06296782321627
 20
-58.56686081093817
 30
0.0
  0
VERTEX
  5
79
330
52
100
AcDbEntity
  8
_U+5716_U+5C64 1
370
     0
100
AcDbVertex
100
AcDb2dVertex
 10
93.27673200994148
 20
-58.86936775530702
 30
0.0
  0
VERTEX
  5
7A
330
52
100
AcDbEntity
  8
_U+5716_U+5C64 1
370
     0
100
AcDbVertex
100
AcDb2dVertex
 10
90.53903541311928
 20
-59.92283275504375
 30
0.0
  0
VERTEX
  5
7B
330
52
100
AcDbEntity
  8
_U+5716_U+5C64 1
370
     0
100
AcDbVertex
100
AcDb2dVertex
 10
89.6321848806994
 20
-60.22512803274587
 30
0.0
  0
VERTEX
  5
7C
330
52
100
AcDbEntity
  8
_U+5716_U+5C64 1
370
     0
100
AcDbVertex
100
AcDb2dVertex
 10
86.47175468355091
 20
-61.27781692137172
 30
0.0
  0
VERTEX
  5
7D
330
52
100
AcDbEntity
  8
_U+5716_U+5C64 1
370
     0
100
AcDbVertex
100
AcDb2dVertex
 10
85.44362247658773
 20
-61.58032386574024
 30
0.0
  0
VERTEX
  5
7E
330
52
100
AcDbEntity
  8
_U+5716_U+5C64 1
370
     0
100
AcDbVertex
100
AcDb2dVertex
 10
81.89746174469529
 20
-62.62317025436854
 30
0.0
  0
VERTEX
  5
7F
330
52
100
AcDbEntity
  8
_U+5716_U+5C64 1
370
     0
100
AcDbVertex
100
AcDb2dVertex
 10
81.89746174469529
 20
-62.66028247658147
 30
0.0
  0
VERTEX
  5
80
330
52
100
AcDbEntity
  8
_U+5716_U+5C64 1
370
     0
100
AcDbVertex
100
AcDb2dVertex
 10
81.89746174469529
 20
-64.93442914267953
 30
0.0
  0
VERTEX
  5
81
330
52
100
AcDbEntity
  8
_U+5716_U+5C64 1
370
     0
100
AcDbVertex
100
AcDb2dVertex
 10
79.71295596709335
 20
-64.93442914267953
 30
0.0
  0
VERTEX
  5
82
330
52
100
AcDbEntity
  8
_U+5716_U+5C64 1
370
     0
100
AcDbVertex
100
AcDb2dVertex
 10
79.71295596709335
 20
-67.93445136415171
 30
0.0
  0
VERTEX
  5
83
330
52
100
AcDbEntity
  8
_U+5716_U+5C64 1
370
     0
100
AcDbVertex
100
AcDb2dVertex
 10
81.89746174469529
 20
-67.93445136415171
 30
0.0
  0
VERTEX
  5
84
330
52
100
AcDbEntity
  8
_U+5716_U+5C64 1
370
     0
100
AcDbVertex
100
AcDb2dVertex
 10
81.89746174469529
 20
-82.93445663817975
 30
0.0
  0
VERTEX
  5
85
330
52
100
AcDbEntity
  8
_U+5716_U+5C64 1
370
     0
100
AcDbVertex
100
AcDb2dVertex
 10
79.71295596709335
 20
-82.93445663817975
 30
0.0
  0
VERTEX
  5
86
330
52
100
AcDbEntity
  8
_U+5716_U+5C64 1
370
     0
100
AcDbVertex
100
AcDb2dVertex
 10
79.71295596709335
 20
-85.9344435818741
 30
0.0
  0
VERTEX
  5
87
330
52
100
AcDbEntity
  8
_U+5716_U+5C64 1
370
     0
100
AcDbVertex
100
AcDb2dVertex
 10
81.89746174469529
 20
-85.9344435818741
 30
0.0
  0
VERTEX
  5
88
330
52
100
AcDbEntity
  8
_U+5716_U+5C64 1
370
     0
100
AcDbVertex
100
AcDb2dVertex
 10
81.89746174469529
 20
-88.2457024701851
 30
0.0
  0
VERTEX
  5
89
330
52
100
AcDbEntity
  8
_U+5716_U+5C64 1
370
     0
100
AcDbVertex
100
AcDb2dVertex
 10
85.44362247658773
 20
-89.28858413659123
 30
0.0
  0
VERTEX
  5
8A
330
52
100
AcDbEntity
  8
_U+5716_U+5C64 1
370
     0
100
AcDbVertex
100
AcDb2dVertex
 10
86.47175468355091
 20
-89.59105580318223
 30
0.0
  0
VERTEX
  5
8B
330
52
100
AcDbEntity
  8
_U+5716_U+5C64 1
370
     0
100
AcDbVertex
100
AcDb2dVertex
 10
89.6321848806994
 20
-90.64374469180777
 30
0.0
  0
VERTEX
  5
8C
330
52
100
AcDbEntity
  8
_U+5716_U+5C64 1
370
     0
100
AcDbVertex
100
AcDb2dVertex
 10
90.53903541311928
 20
-90.94603996951021
 30
0.0
  0
VERTEX
  5
8D
330
52
100
AcDbEntity
  8
_U+5716_U+5C64 1
370
     0
100
AcDbVertex
100
AcDb2dVertex
 10
93.27673200994148
 20
-91.99950496924662
 30
0.0
  0
VERTEX
  5
8E
330
52
100
AcDbEntity
  8
_U+5716_U+5C64 1
370
     0
100
AcDbVertex
100
AcDb2dVertex
 10
94.06296782321627
 20
-92.30201191361546
 30
0.0
  0
VERTEX
  5
8F
330
52
100
AcDbEntity
  8
_U+5716_U+5C64 1
370
     0
100
AcDbVertex
100
AcDb2dVertex
 10
96.38029443076302
 20
-93.35470080224131
 30
0.0
  0
VERTEX
  5
90
330
52
100
AcDbEntity
  8
_U+5716_U+5C64 1
370
     0
100
AcDbVertex
100
AcDb2dVertex
 10
97.04528052490892
 20
-93.65678441327671
 30
0.0
  0
VERTEX
  5
91
330
52
100
AcDbEntity
  8
_U+5716_U+5C64 1
370
     0
100
AcDbVertex
100
AcDb2dVertex
 10
98.93990880990626
 20
-94.70947330190256
 30
0.0
  0
VERTEX
  5
92
330
52
100
AcDbEntity
  8
_U+5716_U+5C64 1
370
     0
100
AcDbVertex
100
AcDb2dVertex
 10
99.48428018490706
 20
-95.0119802462714
 30
0.0
  0
VERTEX
  5
93
330
52
100
AcDbEntity
  8
_U+5716_U+5C64 1
370
     0
100
AcDbVertex
100
AcDb2dVertex
 10
100.959667369489
 20
-96.06622135711902
 30
0.0
  0
VERTEX
  5
94
330
52
100
AcDbEntity
  8
_U+5716_U+5C64 1
370
     0
100
AcDbVertex
100
AcDb2dVertex
 10
101.382789025361
 20
-96.36851663482115
 30
0.0
  0
VERTEX
  5
95
330
52
100
AcDbEntity
  8
_U+5716_U+5C64 1
370
     0
100
AcDbVertex
100
AcDb2dVertex
 10
102.4354778873935
 20
-97.421205523447
 30
0.0
  0
VERTEX
  5
96
330
52
100
AcDbEntity
  8
_U+5716_U+5C64 1
370
     0
100
AcDbVertex
100
AcDb2dVertex
 10
102.7379848241204
 20
-97.72371246781552
 30
0.0
  0
VERTEX
  5
97
330
52
100
AcDbEntity
  8
_U+5716_U+5C64 1
370
     0
100
AcDbVertex
100
AcDb2dVertex
 10
103.3703036968775
 20
-98.77717746755225
 30
0.0
  0
VERTEX
  5
98
330
52
100
AcDbEntity
  8
_U+5716_U+5C64 1
370
     0
100
AcDbVertex
100
AcDb2dVertex
 10
103.4646717500255
 20
-98.93444580084642
 30
0.0
  0
VERTEX
  5
99
330
52
100
AcDbEntity
  8
_U+5716_U+5C64 1
370
     0
100
AcDbVertex
100
AcDb2dVertex
 10
89.7129709897495
 20
-98.93444580084642
 30
0.0
  0
VERTEX
  5
9A
330
52
100
AcDbEntity
  8
_U+5716_U+5C64 1
370
     0
100
AcDbVertex
100
AcDb2dVertex
 10
89.7129709897495
 20
-101.9344327445408
 30
0.0
  0
VERTEX
  5
9B
330
52
100
AcDbEntity
  8
_U+5716_U+5C64 1
370
     0
100
AcDbVertex
100
AcDb2dVertex
 10
103.4647423055792
 20
-101.9344327445408
 30
0.0
  0
VERTEX
  5
9C
330
52
100
AcDbEntity
  8
_U+5716_U+5C64 1
370
     0
100
AcDbVertex
100
AcDb2dVertex
 10
103.3703036968775
 20
-102.0919127445013
 30
0.0
  0
VERTEX
  5
9D
330
52
100
AcDbEntity
  8
_U+5716_U+5C64 1
370
     0
100
AcDbVertex
100
AcDb2dVertex
 10
102.7379848241204
 20
-103.1461891331268
 30
0.0
  0
VERTEX
  5
9E
330
52
100
AcDbEntity
  8
_U+5716_U+5C64 1
370
     0
100
AcDbVertex
100
AcDb2dVertex
 10
102.4354778873935
 20
-103.4486960774956
 30
0.0
  0
VERTEX
  5
9F
330
52
100
AcDbEntity
  8
_U+5716_U+5C64 1
370
     0
100
AcDbVertex
100
AcDb2dVertex
 10
101.382789025361
 20
-104.5013496883436
 30
0.0
  0
VERTEX
  5
A0
330
52
100
AcDbEntity
  8
_U+5716_U+5C64 1
370
     0
100
AcDbVertex
100
AcDb2dVertex
 10
100.959667369489
 20
-104.803433299379
 30
0.0
  0
VERTEX
  5
A1
330
52
100
AcDbEntity
  8
_U+5716_U+5C64 1
370
     0
100
AcDbVertex
100
AcDb2dVertex
 10
99.48428018490706
 20
-105.8568982991158
 30
0.0
  0
VERTEX
  5
A2
330
52
100
AcDbEntity
  8
_U+5716_U+5C64 1
370
     0
100
AcDbVertex
100
AcDb2dVertex
 10
98.93990880990626
 20
-106.1594052434846
 30
0.0
  0
VERTEX
  5
A3
330
52
100
AcDbEntity
  8
_U+5716_U+5C64 1
370
     0
100
AcDbVertex
100
AcDb2dVertex
 10
97.04528052490892
 20
-107.2120941321105
 30
0.0
  0
VERTEX
  5
A4
330
52
100
AcDbEntity
  8
_U+5716_U+5C64 1
370
     0
100
AcDbVertex
100
AcDb2dVertex
 10
96.38029443076302
 20
-107.5143894098123
 30
0.0
  0
VERTEX
  5
A5
330
52
100
AcDbEntity
  8
_U+5716_U+5C64 1
370
     0
100
AcDbVertex
100
AcDb2dVertex
 10
94.06296782321627
 20
-108.5670782984381
 30
0.0
  0
VERTEX
  5
A6
330
52
100
AcDbEntity
  8
_U+5716_U+5C64 1
370
     0
100
AcDbVertex
100
AcDb2dVertex
 10
93.27673200994148
 20
-108.8695852428069
 30
0.0
  0
VERTEX
  5
A7
330
52
100
AcDbEntity
  8
_U+5716_U+5C64 1
370
     0
100
AcDbVertex
100
AcDb2dVertex
 10
90.53903541311928
 20
-109.9238263536546
 30
0.0
  0
VERTEX
  5
A8
330
52
100
AcDbEntity
  8
_U+5716_U+5C64 1
370
     0
100
AcDbVertex
100
AcDb2dVertex
 10
89.6321848806994
 20
-110.22590996469
 30
0.0
  0
VERTEX
  5
A9
330
52
100
AcDbEntity
  8
_U+5716_U+5C64 1
370
     0
100
AcDbVertex
100
AcDb2dVertex
 10
86.47175468355091
 20
-111.2785988533158
 30
0.0
  0
VERTEX
  5
AA
330
52
100
AcDbEntity
  8
_U+5716_U+5C64 1
370
     0
100
AcDbVertex
100
AcDb2dVertex
 10
85.44362247658773
 20
-111.5811057976847
 30
0.0
  0
VERTEX
  5
AB
330
52
100
AcDbEntity
  8
_U+5716_U+5C64 1
370
     0
100
AcDbVertex
100
AcDb2dVertex
 10
81.86401841221517
 20
-112.6337946863105
 30
0.0
  0
VERTEX
  5
AC
330
52
100
AcDbEntity
  8
_U+5716_U+5C64 1
370
     0
100
AcDbVertex
100
AcDb2dVertex
 10
77.86172247848314
 20
-113.6872596860469
 30
0.0
  0
VERTEX
  5
AD
330
52
100
AcDbEntity
  8
_U+5716_U+5C64 1
370
     0
100
AcDbVertex
100
AcDb2dVertex
 10
76.71296909918495
 20
-113.9895549637494
 30
0.0
  0
VERTEX
  5
AE
330
52
100
AcDbEntity
  8
_U+5716_U+5C64 1
370
     0
100
AcDbVertex
100
AcDb2dVertex
 10
76.71296909918495
 20
-85.9344435818741
 30
0.0
  0
VERTEX
  5
AF
330
52
100
AcDbEntity
  8
_U+5716_U+5C64 1
370
     0
100
AcDbVertex
100
AcDb2dVertex
 10
73.71294695349967
 20
-85.9344435818741
 30
0.0
  0
VERTEX
  5
B0
330
52
100
AcDbEntity
  8
_U+5716_U+5C64 1
370
     0
100
AcDbVertex
100
AcDb2dVertex
 10
73.71294695349967
 20
-82.93445663817975
 30
0.0
  0
SEQEND
  5
B1
330
52
100
AcDbEntity
  8
_U+5716_U+5C64 1
370
     0
  0
ENDBLK
  5
51
330
4E
100
AcDbEntity
  8
0
100
AcDbBlockEnd
  0
BLOCK
  5
116
330
114
100
AcDbEntity
  8
0
100
AcDbBlockBegin
  2
block 6
 70
     0
 10
0.0
 20
0.0
 30
0.0
  3
block 6
  1

  0
INSERT
  5
119
330
114
100
AcDbEntity
  8
_U+5716_U+5C64 1
100
AcDbBlockReference
  2
block 7
 10
0.0
 20
0.0
 30
0.0
  0
ENDBLK
  5
117
330
114
100
AcDbEntity
  8
0
100
AcDbBlockEnd
  0
BLOCK
  5
11A
330
118
100
AcDbEntity
  8
0
100
AcDbBlockBegin
  2
block 7
 70
     0
 10
0.0
 20
0.0
 30
0.0
  3
block 7
  1

  0
SPLINE
  5
11C
330
118
100
AcDbEntity
  8
_U+5716_U+5C64 1
370
     0
100
AcDbSpline
210
0.0
220
0.0
230
1.0
 70
    11
 71
     3
 72
   245
 73
   241
 74
     0
 42
0.0000000001
 43
0.0000000001
 12
1.0
 22
0.0
 32
0.0
 13
1.0
 23
0.0
 33
0.0
 40
0.0
 40
0.0
 40
0.0
 40
0.0
 40
1.0
 40
1.0
 40
1.0
 40
2.0
 40
2.0
 40
2.0
 40
3.0
 40
3.0
 40
3.0
 40
4.0
 40
4.0
 40
4.0
 40
5.0
 40
5.0
 40
5.0
 40
6.0
 40
6.0
 40
6.0
 40
7.0
 40
7.0
 40
7.0
 40
8.0
 40
8.0
 40
8.0
 40
9.0
 40
9.0
 40
9.0
 40
10.0
 40
10.0
 40
10.0
 40
11.0
 40
11.0
 40
11.0
 40
12.0
 40
12.0
 40
12.0
 40
13.0
 40
13.0
 40
13.0
 40
14.0
 40
14.0
 40
14.0
 40
15.0
 40
15.0
 40
15.0
 40
16.0
 40
16.0
 40
16.0
 40
17.0
 40
17.0
 40
17.0
 40
18.0
 40
18.0
 40
18.0
 40
19.0
 40
19.0
 40
19.0
 40
20.0
 40
20.0
 40
20.0
 40
21.0
 40
21.0
 40
21.0
 40
22.0
 40
22.0
 40
22.0
 40
23.0
 40
23.0
 40
23.0
 40
24.0
 40
24.0
 40
24.0
 40
25.0
 40
25.0
 40
25.0
 40
26.0
 40
26.0
 40
26.0
 40
27.0
 40
27.0
 40
27.0
 40
28.0
 40
28.0
 40
28.0
 40
29.0
 40
29.0
 40
29.0
 40
30.0
 40
30.0
 40
30.0
 40
31.0
 40
31.0
 40
31.0
 40
32.0
 40
32.0
 40
32.0
 40
33.0
 40
33.0
 40
33.0
 40
34.0
 40
34.0
 40
34.0
 40
35.0
 40
35.0
 40
35.0
 40
36.0
 40
36.0
 40
36.0
 40
37.0
 40
37.0
 40
37.0
 40
38.0
 40
38.0
 40
38.0
 40
39.0
 40
39.0
 40
39.0
 40
40.0
 40
40.0
 40
40.0
 40
41.0
 40
41.0
 40
41.0
 40
42.0
 40
42.0
 40
42.0
 40
43.0
 40
43.0
 40
43.0
 40
44.0
 40
44.0
 40
44.0
 40
45.0
 40
45.0
 40
45.0
 40
46.0
 40
46.0
 40
46.0
 40
47.0
 40
47.0
 40
47.0
 40
48.0
 40
48.0
 40
48.0
 40
49.0
 40
49.0
 40
49.0
 40
50.0
 40
50.0
 40
50.0
 40
51.0
 40
51.0
 40
51.0
 40
52.0
 40
52.0
 40
52.0
 40
53.0
 40
53.0
 40
53.0
 40
54.0
 40
54.0
 40
54.0
 40
55.0
 40
55.0
 40
55.0
 40
56.0
 40
56.0
 40
56.0
 40
57.0
 40
57.0
 40
57.0
 40
58.0
 40
58.0
 40
58.0
 40
59.0
 40
59.0
 40
59.0
 40
60.0
 40
60.0
 40
60.0
 40
61.0
 40
61.0
 40
61.0
 40
62.0
 40
62.0
 40
62.0
 40
63.0
 40
63.0
 40
63.0
 40
64.0
 40
64.0
 40
64.0
 40
65.0
 40
65.0
 40
65.0
 40
66.0
 40
66.0
 40
66.0
 40
67.0
 40
67.0
 40
67.0
 40
68.0
 40
68.0
 40
68.0
 40
69.0
 40
69.0
 40
69.0
 40
70.0
 40
70.0
 40
70.0
 40
71.0
 40
71.0
 40
71.0
 40
72.0
 40
72.0
 40
72.0
 40
73.0
 40
73.0
 40
73.0
 40
74.0
 40
74.0
 40
74.0
 40
75.0
 40
75.0
 40
75.0
 40
76.0
 40
76.0
 40
76.0
 40
77.0
 40
77.0
 40
77.0
 40
78.0
 40
78.0
 40
78.0
 40
79.0
 40
79.0
 40
79.0
 40
80.0
 40
80.0
 40
80.0
 40
80.0
 10
107.1313419156102
 20
-50.88568914619179
 30
0.0
 10
107.1313419156102
 20
-46.31887498066671
 30
0.0
 10
110.225203025948
 20
-42.33227442610795
 30
0.0
 10
114.6490675757989
 20
-41.19865831528038
 30
0.0
 10
117.8414947165755
 20
-40.38060192659592
 30
0.0
 10
120.7519113089913
 20
-38.71108109367994
 30
0.0
 10
123.0696612498605
 20
-36.36828387204356
 30
0.0
 10
123.0696612498605
 20
-36.36828387204356
 30
0.0
 10
130.3313446757107
 20
-36.36828387204356
 30
0.0
 10
130.3313446757107
 20
-36.36828387204356
 30
0.0
 10
130.3313446757107
 20
-36.36828387204356
 30
0.0
 10
130.3313446757107
 20
-33.36829692834889
 30
0.0
 10
130.3313446757107
 20
-33.36829692834889
 30
0.0
 10
130.3313446757107
 20
-33.36829692834889
 30
0.0
 10
125.4675622997961
 20
-33.36829692834889
 30
0.0
 10
125.4675622997961
 20
-33.36829692834889
 30
0.0
 10
127.3376372520865
 20
-30.44175831796953
 30
0.0
 10
128.3313416711794
 20
-27.04126276326391
 30
0.0
 10
128.3313416711794
 20
-23.5682713752434
 30
0.0
 10
128.3313416711794
 20
-23.5682713752434
 30
0.0
 10
128.3313416711794
 20
7.431723061450978
 30
0.0
 10
128.3313416711794
 20
7.431723061450978
 30
0.0
 10
128.3313416711794
 20
7.431723061450978
 30
0.0
 10
132.1313579631218
 20
7.431723061450978
 30
0.0
 10
132.1313579631218
 20
7.431723061450978
 30
0.0
 10
132.1313579631218
 20
7.431723061450978
 30
0.0
 10
132.1313579631218
 20
10.43171000514564
 30
0.0
 10
132.1313579631218
 20
10.43171000514564
 30
0.0
 10
132.1313579631218
 20
10.43171000514564
 30
0.0
 10
132.823966556563
 20
10.43171000514564
 30
0.0
 10
132.823966556563
 20
10.43171000514564
 30
0.0
 10
132.823966556563
 20
10.43171000514564
 30
0.0
 10
133.4179737636309
 20
8.718268338907025
 30
0.0
 10
133.4179737636309
 20
8.718268338907025
 30
0.0
 10
133.4179737636309
 20
8.718268338907025
 30
0.0
 10
133.599477925667
 20
8.19471083903803
 30
0.0
 10
133.599477925667
 20
8.19471083903803
 30
0.0
 10
133.599477925667
 20
8.19471083903803
 30
0.0
 10
133.7420001442532
 20
7.676233339167775
 30
0.0
 10
133.7420001442532
 20
7.676233339167775
 30
0.0
 10
133.7420001442532
 20
7.676233339167775
 30
0.0
 10
134.9185891308856
 20
3.394710562460442
 30
0.0
 10
134.9185891308856
 20
3.394710562460442
 30
0.0
 10
134.9185891308856
 20
3.394710562460442
 30
0.0
 10
134.9789801126952
 20
3.097495284756737
 30
0.0
 10
134.9789801126952
 20
3.097495284756737
 30
0.0
 10
134.9789801126952
 20
3.097495284756737
 30
0.0
 10
135.8947559226651
 20
-1.405289714117468
 30
0.0
 10
135.8947559226651
 20
-1.405289714117468
 30
0.0
 10
135.8947559226651
 20
-1.405289714117468
 30
0.0
 10
135.9138764777329
 20
-1.55091638074775
 30
0.0
 10
135.9138764777329
 20
-1.55091638074775
 30
0.0
 10
135.9138764777329
 20
-1.55091638074775
 30
0.0
 10
136.5253461843552
 20
-6.204302212917774
 30
0.0
 10
136.5253461843552
 20
-6.204302212917774
 30
0.0
 10
136.5253461843552
 20
-6.204302212917774
 30
0.0
 10
136.5282036842823
 20
-6.251856657350264
 30
0.0
 10
136.5282036842823
 20
-6.251856657350264
 30
0.0
 10
136.5282036842823
 20
-6.251856657350264
 30
0.0
 10
136.8127542325784
 20
-11.00426721171784
 30
0.0
 10
136.8127542325784
 20
-11.00426721171784
 30
0.0
 10
136.8127542325784
 20
-11.00426721171784
 30
0.0
 10
136.8127542325784
 20
-11.00747748949457
 30
0.0
 10
136.8127542325784
 20
-11.00747748949457
 30
0.0
 10
136.8127542325784
 20
-11.00747748949457
 30
0.0
 10
136.8313502415186
 20
-15.80426748829543
 30
0.0
 10
136.8313502415186
 20
-15.80426748829543
 30
0.0
 10
136.8313502415186
 20
-15.80426748829543
 30
0.0
 10
136.8313502415186
 20
-73.40127219611841
 30
0.0
 10
136.8313502415186
 20
-73.40127219611841
 30
0.0
 10
136.8313502415186
 20
-73.40127219611841
 30
0.0
 10
136.8127542325784
 20
-78.19809747269711
 30
0.0
 10
136.8127542325784
 20
-78.19809747269711
 30
0.0
 10
136.8127542325784
 20
-78.19809747269711
 30
0.0
 10
136.8127542325784
 20
-78.20127247269633
 30
0.0
 10
136.8127542325784
 20
-78.20127247269633
 30
0.0
 10
136.8127542325784
 20
-78.20127247269633
 30
0.0
 10
136.5282036842823
 20
-82.95273052706382
 30
0.0
 10
136.5282036842823
 20
-82.95273052706382
 30
0.0
 10
136.5282036842823
 20
-82.95273052706382
 30
0.0
 10
136.5253461843552
 20
-83.00028497149663
 30
0.0
 10
136.5253461843552
 20
-83.00028497149663
 30
0.0
 10
136.5253461843552
 20
-83.00028497149663
 30
0.0
 10
135.9138764777329
 20
-87.65462330366643
 30
0.0
 10
135.9138764777329
 20
-87.65462330366643
 30
0.0
 10
135.9138764777329
 20
-87.65462330366643
 30
0.0
 10
135.8947559226651
 20
-87.80028524807422
 30
0.0
 10
135.8947559226651
 20
-87.80028524807422
 30
0.0
 10
135.8947559226651
 20
-87.80028524807422
 30
0.0
 10
134.9789801126952
 20
-92.30307024694875
 30
0.0
 10
134.9789801126952
 20
-92.30307024694875
 30
0.0
 10
134.9789801126952
 20
-92.30307024694875
 30
0.0
 10
134.9185891308856
 20
-92.60028552465214
 30
0.0
 10
134.9185891308856
 20
-92.60028552465214
 30
0.0
 10
134.9185891308856
 20
-92.60028552465214
 30
0.0
 10
133.7420001442532
 20
-96.88180830135947
 30
0.0
 10
133.7420001442532
 20
-96.88180830135947
 30
0.0
 10
133.7420001442532
 20
-96.88180830135947
 30
0.0
 10
133.599477925667
 20
-97.40028580122971
 30
0.0
 10
133.599477925667
 20
-97.40028580122971
 30
0.0
 10
133.599477925667
 20
-97.40028580122971
 30
0.0
 10
132.2158482387441
 20
-101.3904494113433
 30
0.0
 10
132.2158482387441
 20
-101.3904494113433
 30
0.0
 10
132.2158482387441
 20
-101.3904494113433
 30
0.0
 10
131.935354634789
 20
-102.19929830003
 30
0.0
 10
131.935354634789
 20
-102.19929830003
 30
0.0
 10
131.935354634789
 20
-102.19929830003
 30
0.0
 10
130.4283232843476
 20
-105.8019355213516
 30
0.0
 10
130.4283232843476
 20
-105.8019355213516
 30
0.0
 10
130.4283232843476
 20
-105.8019355213516
 30
0.0
 10
129.9275199637909
 20
-106.9992985766076
 30
0.0
 10
129.9275199637909
 20
-106.9992985766076
 30
0.0
 10
129.9275199637909
 20
-106.9992985766076
 30
0.0
 10
128.4093055580793
 20
-110.096546353611
 30
0.0
 10
128.4093055580793
 20
-110.096546353611
 30
0.0
 10
128.4093055580793
 20
-110.096546353611
 30
0.0
 10
127.5748141327218
 20
-111.7992988531858
 30
0.0
 10
127.5748141327218
 20
-111.7992988531858
 30
0.0
 10
127.5748141327218
 20
-111.7992988531858
 30
0.0
 10
126.2189436695157
 20
-114.2135335748042
 30
0.0
 10
126.2189436695157
 20
-114.2135335748042
 30
0.0
 10
126.2189436695157
 20
-114.2135335748042
 30
0.0
 10
124.8787409259293
 20
-116.5992991297634
 30
0.0
 10
124.8787409259293
 20
-116.5992991297634
 30
0.0
 10
124.8787409259293
 20
-116.5992991297634
 30
0.0
 10
123.9383059499218
 20
-118.0831882960591
 30
0.0
 10
123.9383059499218
 20
-118.0831882960591
 30
0.0
 10
123.9383059499218
 20
-118.0831882960591
 30
0.0
 10
121.8373379479664
 20
-121.3982763507859
 30
0.0
 10
121.8373379479664
 20
-121.3982763507859
 30
0.0
 10
121.8373379479664
 20
-121.3982763507859
 30
0.0
 10
121.7282943396372
 20
-121.5529694063029
 30
0.0
 10
121.7282943396372
 20
-121.5529694063029
 30
0.0
 10
121.7282943396372
 20
-121.5529694063029
 30
0.0
 10
121.5305624002373
 20
-121.8333219062329
 30
0.0
 10
121.5305624002373
 20
-121.8333219062329
 30
0.0
 10
121.5305624002373
 20
-121.8333219062329
 30
0.0
 10
119.2982199571891
 20
-124.880051905471
 30
0.0
 10
119.2982199571891
 20
-124.880051905471
 30
0.0
 10
119.2982199571891
 20
-124.880051905471
 30
0.0
 10
118.3321027596146
 20
-126.1982766273635
 30
0.0
 10
118.3321027596146
 20
-126.1982766273635
 30
0.0
 10
118.3321027596146
 20
-126.1982766273635
 30
0.0
 10
117.1378441789716
 20
-127.6771210714385
 30
0.0
 10
117.1378441789716
 20
-127.6771210714385
 30
0.0
 10
117.1378441789716
 20
-127.6771210714385
 30
0.0
 10
116.2276069799714
 20
-128.8044930156012
 30
0.0
 10
116.2276069799714
 20
-128.8044930156012
 30
0.0
 10
116.2276069799714
 20
-128.8044930156012
 30
0.0
 10
115.2487585802476
 20
-129.952079126425
 30
0.0
 10
115.2487585802476
 20
-129.952079126425
 30
0.0
 10
115.2487585802476
 20
-129.952079126425
 30
0.0
 10
114.3557328610603
 20
-130.9982769039417
 30
0.0
 10
114.3557328610603
 20
-130.9982769039417
 30
0.0
 10
114.3557328610603
 20
-130.9982769039417
 30
0.0
 10
113.6283756573945
 20
-131.7785860704134
 30
0.0
 10
113.6283756573945
 20
-131.7785860704134
 30
0.0
 10
113.6283756573945
 20
-131.7785860704134
 30
0.0
 10
113.4305419140353
 20
-131.9907819036933
 30
0.0
 10
113.4305419140353
 20
-131.9907819036933
 30
0.0
 10
113.4305419140353
 20
-131.9907819036933
 30
0.0
 10
112.126283195716
 20
-133.2975413478111
 30
0.0
 10
112.126283195716
 20
-133.2975413478111
 30
0.0
 10
112.126283195716
 20
-133.2975413478111
 30
0.0
 10
111.6301012639302
 20
-133.7946757921312
 30
0.0
 10
111.6301012639302
 20
-133.7946757921312
 30
0.0
 10
111.6301012639302
 20
-133.7946757921312
 30
0.0
 10
110.9930198912947
 20
-134.3837441253172
 30
0.0
 10
110.9930198912947
 20
-134.3837441253172
 30
0.0
 10
110.9930198912947
 20
-134.3837441253172
 30
0.0
 10
110.3318437970515
 20
-134.9936263473872
 30
0.0
 10
110.3318437970515
 20
-134.9936263473872
 30
0.0
 10
110.3318437970515
 20
-134.9936263473872
 30
0.0
 10
110.086561359316
 20
-135.201271347335
 30
0.0
 10
110.086561359316
 20
-135.201271347335
 30
0.0
 10
110.086561359316
 20
-135.201271347335
 30
0.0
 10
109.3847060434373
 20
-135.7982771805193
 30
0.0
 10
109.3847060434373
 20
-135.7982771805193
 30
0.0
 10
109.3847060434373
 20
-135.7982771805193
 30
0.0
 10
109.3186660451221
 20
-135.8500296805061
 30
0.0
 10
109.3186660451221
 20
-135.8500296805061
 30
0.0
 10
109.3186660451221
 20
-135.8500296805061
 30
0.0
 10
109.3160946928415
 20
-135.852075791617
 30
0.0
 10
109.3160946928415
 20
-135.852075791617
 30
0.0
 10
109.3160946928415
 20
-135.852075791617
 30
0.0
 10
108.5103110657449
 20
-136.4222705136966
 30
0.0
 10
108.5103110657449
 20
-136.4222705136966
 30
0.0
 10
108.5103110657449
 20
-136.4222705136966
 30
0.0
 10
108.480289677622
 20
-136.4435077359135
 30
0.0
 10
108.480289677622
 20
-136.4435077359135
 30
0.0
 10
108.480289677622
 20
-136.4435077359135
 30
0.0
 10
108.4450119007442
 20
-136.4662266247964
 30
0.0
 10
108.4450119007442
 20
-136.4662266247964
 30
0.0
 10
108.4450119007442
 20
-136.4662266247964
 30
0.0
 10
107.7651385847559
 20
-136.9038474580209
 30
0.0
 10
107.7651385847559
 20
-136.9038474580209
 30
0.0
 10
107.7651385847559
 20
-136.9038474580209
 30
0.0
 10
107.7057660862706
 20
-136.9384902357895
 30
0.0
 10
107.7057660862706
 20
-136.9384902357895
 30
0.0
 10
107.7057660862706
 20
-136.9384902357895
 30
0.0
 10
107.1313419156102
 20
-137.2738760690395
 30
0.0
 10
107.1313419156102
 20
-137.2738760690395
 30
0.0
 10
107.1313419156102
 20
-137.2738760690395
 30
0.0
 10
107.1313419156102
 20
-119.8210774622916
 30
0.0
 10
107.1313419156102
 20
-119.8210774622916
 30
0.0
 10
107.1313419156102
 20
-119.8210774622916
 30
0.0
 10
104.1313511774615
 20
-119.8210774622916
 30
0.0
 10
104.1313511774615
 20
-119.8210774622916
 30
0.0
 10
104.1313511774615
 20
-119.8210774622916
 30
0.0
 10
104.1313511774615
 20
-116.8210905185966
 30
0.0
 10
104.1313511774615
 20
-116.8210905185966
 30
0.0
 10
104.1313511774615
 20
-116.8210905185966
 30
0.0
 10
107.1313419156102
 20
-116.8210905185966
 30
0.0
 10
107.1313419156102
 20
-116.8210905185966
 30
0.0
 10
107.1313419156102
 20
-116.8210905185966
 30
0.0
 10
107.1313419156102
 20
-96.3682696903769
 30
0.0
 10
107.1313419156102
 20
-96.3682696903769
 30
0.0
 10
107.1313419156102
 20
-96.3682696903769
 30
0.0
 10
120.1313399359345
 20
-96.3682696903769
 30
0.0
 10
120.1313399359345
 20
-96.3682696903769
 30
0.0
 10
120.1313399359345
 20
-96.3682696903769
 30
0.0
 10
120.1313399359345
 20
-93.36828274668224
 30
0.0
 10
120.1313399359345
 20
-93.36828274668224
 30
0.0
 10
120.1313399359345
 20
-93.36828274668224
 30
0.0
 10
107.1313419156102
 20
-93.36828274668224
 30
0.0
 10
107.1313419156102
 20
-93.36828274668224
 30
0.0
 10
107.1313419156102
 20
-93.36828274668224
 30
0.0
 10
107.1313419156102
 20
-66.36829442009899
 30
0.0
 10
107.1313419156102
 20
-66.36829442009899
 30
0.0
 10
107.1313419156102
 20
-66.36829442009899
 30
0.0
 10
122.1313429404657
 20
-66.36829442009899
 30
0.0
 10
122.1313429404657
 20
-66.36829442009899
 30
0.0
 10
122.1313429404657
 20
-66.36829442009899
 30
0.0
 10
122.1313429404657
 20
-63.3682721986268
 30
0.0
 10
122.1313429404657
 20
-63.3682721986268
 30
0.0
 10
122.1313429404657
 20
-63.3682721986268
 30
0.0
 10
107.1313419156102
 20
-63.3682721986268
 30
0.0
 10
107.1313419156102
 20
-63.3682721986268
 30
0.0
 10
107.1313419156102
 20
-63.3682721986268
 30
0.0
 10
107.1313419156102
 20
-50.88568914619179
 30
0.0
 10
107.1313419156102
 20
-50.88568914619179
 30
0.0
  0
ENDBLK
  5
11B
330
118
100
AcDbEntity
  8
0
100
AcDbBlockEnd
  0
BLOCK
  5
11F
330
11D
100
AcDbEntity
  8
0
100
AcDbBlockBegin
  2
block 8
 70
     0
 10
0.0
 20
0.0
 30
0.0
  3
block 8
  1

  0
INSERT
  5
122
330
11D
100
AcDbEntity
  8
_U+5716_U+5C64 1
100
AcDbBlockReference
  2
block 9
 10
0.0
 20
0.0
 30
0.0
  0
ENDBLK
  5
120
330
11D
100
AcDbEntity
  8
0
100
AcDbBlockEnd
  0
BLOCK
  5
123
330
121
100
AcDbEntity
  8
0
100
AcDbBlockBegin
  2
block 9
 70
     0
 10
0.0
 20
0.0
 30
0.0
  3
block 9
  1

  0
SPLINE
  5
125
330
121
100
AcDbEntity
  8
_U+5716_U+5C64 1
370
     0
100
AcDbSpline
210
0.0
220
0.0
230
1.0
 70
    11
 71
     3
 72
   245
 73
   241
 74
     0
 42
0.0000000001
 43
0.0000000001
 12
1.0
 22
0.0
 32
0.0
 13
1.0
 23
0.0
 33
0.0
 40
0.0
 40
0.0
 40
0.0
 40
0.0
 40
1.0
 40
1.0
 40
1.0
 40
2.0
 40
2.0
 40
2.0
 40
3.0
 40
3.0
 40
3.0
 40
4.0
 40
4.0
 40
4.0
 40
5.0
 40
5.0
 40
5.0
 40
6.0
 40
6.0
 40
6.0
 40
7.0
 40
7.0
 40
7.0
 40
8.0
 40
8.0
 40
8.0
 40
9.0
 40
9.0
 40
9.0
 40
10.0
 40
10.0
 40
10.0
 40
11.0
 40
11.0
 40
11.0
 40
12.0
 40
12.0
 40
12.0
 40
13.0
 40
13.0
 40
13.0
 40
14.0
 40
14.0
 40
14.0
 40
15.0
 40
15.0
 40
15.0
 40
16.0
 40
16.0
 40
16.0
 40
17.0
 40
17.0
 40
17.0
 40
18.0
 40
18.0
 40
18.0
 40
19.0
 40
19.0
 40
19.0
 40
20.0
 40
20.0
 40
20.0
 40
21.0
 40
21.0
 40
21.0
 40
22.0
 40
22.0
 40
22.0
 40
23.0
 40
23.0
 40
23.0
 40
24.0
 40
24.0
 40
24.0
 40
25.0
 40
25.0
 40
25.0
 40
26.0
 40
26.0
 40
26.0
 40
27.0
 40
27.0
 40
27.0
 40
28.0
 40
28.0
 40
28.0
 40
29.0
 40
29.0
 40
29.0
 40
30.0
 40
30.0
 40
30.0
 40
31.0
 40
31.0
 40
31.0
 40
32.0
 40
32.0
 40
32.0
 40
33.0
 40
33.0
 40
33.0
 40
34.0
 40
34.0
 40
34.0
 40
35.0
 40
35.0
 40
35.0
 40
36.0
 40
36.0
 40
36.0
 40
37.0
 40
37.0
 40
37.0
 40
38.0
 40
38.0
 40
38.0
 40
39.0
 40
39.0
 40
39.0
 40
40.0
 40
40.0
 40
40.0
 40
41.0
 40
41.0
 40
41.0
 40
42.0
 40
42.0
 40
42.0
 40
43.0
 40
43.0
 40
43.0
 40
44.0
 40
44.0
 40
44.0
 40
45.0
 40
45.0
 40
45.0
 40
46.0
 40
46.0
 40
46.0
 40
47.0
 40
47.0
 40
47.0
 40
48.0
 40
48.0
 40
48.0
 40
49.0
 40
49.0
 40
49.0
 40
50.0
 40
50.0
 40
50.0
 40
51.0
 40
51.0
 40
51.0
 40
52.0
 40
52.0
 40
52.0
 40
53.0
 40
53.0
 40
53.0
 40
54.0
 40
54.0
 40
54.0
 40
55.0
 40
55.0
 40
55.0
 40
56.0
 40
56.0
 40
56.0
 40
57.0
 40
57.0
 40
57.0
 40
58.0
 40
58.0
 40
58.0
 40
59.0
 40
59.0
 40
59.0
 40
60.0
 40
60.0
 40
60.0
 40
61.0
 40
61.0
 40
61.0
 40
62.0
 40
62.0
 40
62.0
 40
63.0
 40
63.0
 40
63.0
 40
64.0
 40
64.0
 40
64.0
 40
65.0
 40
65.0
 40
65.0
 40
66.0
 40
66.0
 40
66.0
 40
67.0
 40
67.0
 40
67.0
 40
68.0
 40
68.0
 40
68.0
 40
69.0
 40
69.0
 40
69.0
 40
70.0
 40
70.0
 40
70.0
 40
71.0
 40
71.0
 40
71.0
 40
72.0
 40
72.0
 40
72.0
 40
73.0
 40
73.0
 40
73.0
 40
74.0
 40
74.0
 40
74.0
 40
75.0
 40
75.0
 40
75.0
 40
76.0
 40
76.0
 40
76.0
 40
77.0
 40
77.0
 40
77.0
 40
78.0
 40
78.0
 40
78.0
 40
79.0
 40
79.0
 40
79.0
 40
80.0
 40
80.0
 40
80.0
 40
80.0
 10
40.81605188014261
 20
-75.95648100263493
 30
0.0
 10
40.81605337255426
 20
-80.52329516815968
 30
0.0
 10
43.90991570753489
 20
-84.50989471166032
 30
0.0
 10
48.33378457624362
 20
-85.64350937679033
 30
0.0
 10
51.526211984345
 20
-86.4615294444281
 30
0.0
 10
54.43659384457469
 20
-88.131049326246
 30
0.0
 10
56.75434455106953
 20
-90.47388106823173
 30
0.0
 10
56.75434455106953
 20
-90.47388106823173
 30
0.0
 10
64.01606325469622
 20
-90.47387869513884
 30
0.0
 10
64.01606325469622
 20
-90.47387869513884
 30
0.0
 10
64.01606325469622
 20
-90.47387869513884
 30
0.0
 10
64.01606423507663
 20
-93.47386563883319
 30
0.0
 10
64.01606423507663
 20
-93.47386563883319
 30
0.0
 10
64.01606423507663
 20
-93.47386563883319
 30
0.0
 10
59.15228185916238
 20
-93.47386722829219
 30
0.0
 10
59.15228185916238
 20
-93.47386722829219
 30
0.0
 10
61.0223577678189
 20
-96.40036994976329
 30
0.0
 10
62.01606329817639
 20
-99.800865179731
 30
0.0
 10
62.01606443313216
 20
-103.2738565677509
 30
0.0
 10
62.01606443313216
 20
-103.2738565677509
 30
0.0
 10
62.01607456378377
 20
-134.2738862822218
 30
0.0
 10
62.01607456378377
 20
-134.2738862822218
 30
0.0
 10
62.01607456378377
 20
-134.2738862822218
 30
0.0
 10
65.81605557794896
 20
-134.2738850404071
 30
0.0
 10
65.81605557794896
 20
-134.2738850404071
 30
0.0
 10
65.81605557794896
 20
-134.2738850404071
 30
0.0
 10
65.81605655832938
 20
-137.2738719841015
 30
0.0
 10
65.81605655832938
 20
-137.2738719841015
 30
0.0
 10
65.81605655832938
 20
-137.2738719841015
 30
0.0
 10
66.50866515177057
 20
-137.2738717577601
 30
0.0
 10
66.50866515177057
 20
-137.2738717577601
 30
0.0
 10
66.50866515177057
 20
-137.2738717577601
 30
0.0
 10
67.10267179889439
 20
-135.560429897404
 30
0.0
 10
67.10267179889439
 20
-135.560429897404
 30
0.0
 10
67.10267179889439
 20
-135.560429897404
 30
0.0
 10
67.28421106761148
 20
-135.036872338208
 30
0.0
 10
67.28421106761148
 20
-135.036872338208
 30
0.0
 10
67.28421106761148
 20
-135.036872338208
 30
0.0
 10
67.42669783898496
 20
-134.5183947917741
 30
0.0
 10
67.42669783898496
 20
-134.5183947917741
 30
0.0
 10
67.42669783898496
 20
-134.5183947917741
 30
0.0
 10
68.60331613200928
 20
-130.2368716305537
 30
0.0
 10
68.60331613200928
 20
-130.2368716305537
 30
0.0
 10
68.60331613200928
 20
-130.2368716305537
 30
0.0
 10
68.6637115888955
 20
-129.9396563331132
 30
0.0
 10
68.6637115888955
 20
-129.9396563331132
 30
0.0
 10
68.6637115888955
 20
-129.9396563331132
 30
0.0
 10
69.57945064960143
 20
-125.4368710349798
 30
0.0
 10
69.57945064960143
 20
-125.4368710349798
 30
0.0
 10
69.57945064960143
 20
-125.4368710349798
 30
0.0
 10
69.59860418423175
 20
-125.2912443620897
 30
0.0
 10
69.59860418423175
 20
-125.2912443620897
 30
0.0
 10
69.59860418423175
 20
-125.2912443620897
 30
0.0
 10
70.21003934299863
 20
-120.6378583301065
 30
0.0
 10
70.21003934299863
 20
-120.6378583301065
 30
0.0
 10
70.21003934299863
 20
-120.6378583301065
 30
0.0
 10
70.21289682738538
 20
-120.5903038847397
 30
0.0
 10
70.21289682738538
 20
-120.5903038847397
 30
0.0
 10
70.21289682738538
 20
-120.5903038847397
 30
0.0
 10
70.49744582260614
 20
-115.8378579596047
 30
0.0
 10
70.49744582260614
 20
-115.8378579596047
 30
0.0
 10
70.49744582260614
 20
-115.8378579596047
 30
0.0
 10
70.4974788714289
 20
-115.8346829595946
 30
0.0
 10
70.4974788714289
 20
-115.8346829595946
 30
0.0
 10
70.4974788714289
 20
-115.8346829595946
 30
0.0
 10
70.51603564240538
 20
-111.0378576769515
 30
0.0
 10
70.51603564240538
 20
-111.0378576769515
 30
0.0
 10
70.51603564240538
 20
-111.0378576769515
 30
0.0
 10
70.51601681999804
 20
-53.44085296913238
 30
0.0
 10
70.51601681999804
 20
-53.44085296913238
 30
0.0
 10
70.51601681999804
 20
-53.44085296913238
 30
0.0
 10
70.49745691387704
 20
-48.64406297639654
 30
0.0
 10
70.49745691387704
 20
-48.64406297639654
 30
0.0
 10
70.49745691387704
 20
-48.64406297639654
 30
0.0
 10
70.4974238629678
 20
-48.6408526986304
 30
0.0
 10
70.4974238629678
 20
-48.6408526986304
 30
0.0
 10
70.4974238629678
 20
-48.6408526986304
 30
0.0
 10
70.21287176191953
 20
-43.88939473725279
 30
0.0
 10
70.21287176191953
 20
-43.88939473725279
 30
0.0
 10
70.21287176191953
 20
-43.88939473725279
 30
0.0
 10
70.21001424646363
 20
-43.8418755715315
 30
0.0
 10
70.21001424646363
 20
-43.8418755715315
 30
0.0
 10
70.21001424646363
 20
-43.8418755715315
 30
0.0
 10
69.59857604596823
 20
-39.187502161399
 30
0.0
 10
69.59857604596823
 20
-39.187502161399
 30
0.0
 10
69.59857604596823
 20
-39.187502161399
 30
0.0
 10
69.5794224161579
 20
-39.04187550102785
 30
0.0
 10
69.5794224161579
 20
-39.04187550102785
 30
0.0
 10
69.5794224161579
 20
-39.04187550102785
 30
0.0
 10
68.66368041246615
 20
-34.53905552363568
 30
0.0
 10
68.66368041246615
 20
-34.53905552363568
 30
0.0
 10
68.66368041246615
 20
-34.53905552363568
 30
0.0
 10
68.60328476133444
 20
-34.24187554344655
 30
0.0
 10
68.60328476133444
 20
-34.24187554344655
 30
0.0
 10
68.60328476133444
 20
-34.24187554344655
 30
0.0
 10
67.42666366995077
 20
-29.96035315125267
 30
0.0
 10
67.42666366995077
 20
-29.96035315125267
 30
0.0
 10
67.42666366995077
 20
-29.96035315125267
 30
0.0
 10
67.28417655970564
 20
-29.44187569794666
 30
0.0
 10
67.28417655970564
 20
-29.44187569794666
 30
0.0
 10
67.28417655970564
 20
-29.44187569794666
 30
0.0
 10
65.90054556880604
 20
-25.45167726221853
 30
0.0
 10
65.90054556880604
 20
-25.45167726221853
 30
0.0
 10
65.90054556880604
 20
-25.45167726221853
 30
0.0
 10
65.62001642275789
 20
-24.642863742985
 30
0.0
 10
65.62001642275789
 20
-24.642863742985
 30
0.0
 10
65.62001642275789
 20
-24.642863742985
 30
0.0
 10
64.11298389499326
 20
-21.040227014154
 30
0.0
 10
64.11298389499326
 20
-21.040227014154
 30
0.0
 10
64.11298389499326
 20
-21.040227014154
 30
0.0
 10
63.61221546092133
 20
-19.84286412254596
 30
0.0
 10
63.61221546092133
 20
-19.84286412254596
 30
0.0
 10
63.61221546092133
 20
-19.84286412254596
 30
0.0
 10
62.09400004304504
 20
-16.74561684168757
 30
0.0
 10
62.09400004304504
 20
-16.74561684168757
 30
0.0
 10
62.09400004304504
 20
-16.74561684168757
 30
0.0
 10
61.25946839677366
 20
-15.04286461483388
 30
0.0
 10
61.25946839677366
 20
-15.04286461483388
 30
0.0
 10
61.25946839677366
 20
-15.04286461483388
 30
0.0
 10
59.90360153129423
 20
-12.62863033630521
 30
0.0
 10
59.90360153129423
 20
-12.62863033630521
 30
0.0
 10
59.90360153129423
 20
-12.62863033630521
 30
0.0
 10
58.56343328582876
 20
-10.24286521930586
 30
0.0
 10
58.56343328582876
 20
-10.24286521930586
 30
0.0
 10
58.56343328582876
 20
-10.24286521930586
 30
0.0
 10
57.62299782489378
 20
-8.75897636033979
 30
0.0
 10
57.62299782489378
 20
-8.75897636033979
 30
0.0
 10
57.62299782489378
 20
-8.75897636033979
 30
0.0
 10
55.5220261333457
 20
-5.443853714421968
 30
0.0
 10
55.5220261333457
 20
-5.443853714421968
 30
0.0
 10
55.5220261333457
 20
-5.443853714421968
 30
0.0
 10
55.41294980292574
 20
-5.289195972328915
 30
0.0
 10
55.41294980292574
 20
-5.289195972328915
 30
0.0
 10
55.41294980292574
 20
-5.289195972328915
 30
0.0
 10
55.21525304967357
 20
-5.008808259226969
 30
0.0
 10
55.21525304967357
 20
-5.008808259226969
 30
0.0
 10
55.21525304967357
 20
-5.008808259226969
 30
0.0
 10
52.98290961098118
 20
-1.962114267284498
 30
0.0
 10
52.98290961098118
 20
-1.962114267284498
 30
0.0
 10
52.98290961098118
 20
-1.962114267284498
 30
0.0
 10
52.01675670482931
 20
-0.6438545833483929
 30
0.0
 10
52.01675670482931
 20
-0.6438545833483929
 30
0.0
 10
52.01675670482931
 20
-0.6438545833483929
 30
0.0
 10
50.82249764091888
 20
0.8349541926709971
 30
0.0
 10
50.82249764091888
 20
0.8349541926709971
 30
0.0
 10
50.82249764091888
 20
0.8349541926709971
 30
0.0
 10
49.91226007348788
 20
1.962361117150642
 30
0.0
 10
49.91226007348788
 20
1.962361117150642
 30
0.0
 10
49.91226007348788
 20
1.962361117150642
 30
0.0
 10
48.93340722344675
 20
3.109911630312828
 30
0.0
 10
48.93340722344675
 20
3.109911630312828
 30
0.0
 10
48.93340722344675
 20
3.109911630312828
 30
0.0
 10
48.04042051544773
 20
4.156109116005667
 30
0.0
 10
48.04042051544773
 20
4.156109116005667
 30
0.0
 10
48.04042051544773
 20
4.156109116005667
 30
0.0
 10
47.31302777900412
 20
4.936418044769238
 30
0.0
 10
47.31302777900412
 20
4.936418044769238
 30
0.0
 10
47.31302777900412
 20
4.936418044769238
 30
0.0
 10
47.11518993692904
 20
5.148613813397296
 30
0.0
 10
47.11518993692904
 20
5.148613813397296
 30
0.0
 10
47.11518993692904
 20
5.148613813397296
 30
0.0
 10
45.81093482093908
 20
6.455372831291215
 30
0.0
 10
45.81093482093908
 20
6.455372831291215
 30
0.0
 10
45.81093482093908
 20
6.455372831291215
 30
0.0
 10
45.3147498625955
 20
6.952542391238305
 30
0.0
 10
45.3147498625955
 20
6.952542391238305
 30
0.0
 10
45.3147498625955
 20
6.952542391238305
 30
0.0
 10
44.67770643932914
 20
7.541575238464166
 30
0.0
 10
44.67770643932914
 20
7.541575238464166
 30
0.0
 10
44.67770643932914
 20
7.541575238464166
 30
0.0
 10
44.01649486800257
 20
8.151457244452947
 30
0.0
 10
44.01649486800257
 20
8.151457244452947
 30
0.0
 10
44.01649486800257
 20
8.151457244452947
 30
0.0
 10
43.77124369529123
 20
8.359102164254447
 30
0.0
 10
43.77124369529123
 20
8.359102164254447
 30
0.0
 10
43.77124369529123
 20
8.359102164254447
 30
0.0
 10
43.06939212919786
 20
8.95614304585506
 30
0.0
 10
43.06939212919786
 20
8.95614304585506
 30
0.0
 10
43.06939212919786
 20
8.95614304585506
 30
0.0
 10
43.00334919149456
 20
9.0078955242593
 30
0.0
 10
43.00334919149456
 20
9.0078955242593
 30
0.0
 10
43.00334919149456
 20
9.0078955242593
 30
0.0
 10
43.00074155782433
 20
9.009906356739851
 30
0.0
 10
43.00074155782433
 20
9.009906356739851
 30
0.0
 10
43.00074155782433
 20
9.009906356739851
 30
0.0
 10
42.19496166981114
 20
9.580136093272843
 30
0.0
 10
42.19496166981114
 20
9.580136093272843
 30
0.0
 10
42.19496166981114
 20
9.580136093272843
 30
0.0
 10
42.16497555253629
 20
9.601338027912814
 30
0.0
 10
42.16497555253629
 20
9.601338027912814
 30
0.0
 10
42.16497555253629
 20
9.601338027912814
 30
0.0
 10
42.12966249045719
 20
9.62405690525578
 30
0.0
 10
42.12966249045719
 20
9.62405690525578
 30
0.0
 10
42.12966249045719
 20
9.62405690525578
 30
0.0
 10
41.44978903145661
 20
10.06167751630036
 30
0.0
 10
41.44978903145661
 20
10.06167751630036
 30
0.0
 10
41.44978903145661
 20
10.06167751630036
 30
0.0
 10
41.39044883619435
 20
10.09635555245498
 30
0.0
 10
41.39044883619435
 20
10.09635555245498
 30
0.0
 10
41.39044883619435
 20
10.09635555245498
 30
0.0
 10
40.81602364892417
 20
10.43170592020763
 30
0.0
 10
40.81602364892417
 20
10.43170592020763
 30
0.0
 10
40.81602364892417
 20
10.43170592020763
 30
0.0
 10
40.81602935240971
 20
-7.021092686539268
 30
0.0
 10
40.81602935240971
 20
-7.021092686539268
 30
0.0
 10
40.81602935240971
 20
-7.021092686539268
 30
0.0
 10
37.81600720672444
 20
-7.021093666931232
 30
0.0
 10
37.81600720672444
 20
-7.021093666931232
 30
0.0
 10
37.81600720672444
 20
-7.021093666931232
 30
0.0
 10
37.81600818710485
 20
-10.02108061062525
 30
0.0
 10
37.81600818710485
 20
-10.02108061062525
 30
0.0
 10
37.81600818710485
 20
-10.02108061062525
 30
0.0
 10
40.81603033279013
 20
-10.02107963023329
 30
0.0
 10
40.81603033279013
 20
-10.02107963023329
 30
0.0
 10
40.81603033279013
 20
-10.02107963023329
 30
0.0
 10
40.8160370166561
 20
-30.47386518067485
 30
0.0
 10
40.8160370166561
 20
-30.47386518067485
 30
0.0
 10
40.8160370166561
 20
-30.47386518067485
 30
0.0
 10
53.81603890721968
 20
-30.47386093234069
 30
0.0
 10
53.81603890721968
 20
-30.47386093234069
 30
0.0
 10
53.81603890721968
 20
-30.47386093234069
 30
0.0
 10
53.81603988761164
 20
-33.47388315381256
 30
0.0
 10
53.81603988761164
 20
-33.47388315381256
 30
0.0
 10
53.81603988761164
 20
-33.47388315381256
 30
0.0
 10
40.81603799704806
 20
-33.47388740214704
 30
0.0
 10
40.81603799704806
 20
-33.47388740214704
 30
0.0
 10
40.81603799704806
 20
-33.47388740214704
 30
0.0
 10
40.81604682050643
 20
-60.47387572872869
 30
0.0
 10
40.81604682050643
 20
-60.47387572872869
 30
0.0
 10
40.81604682050643
 20
-60.47387572872869
 30
0.0
 10
55.81605171560123
 20
-60.47387082680352
 30
0.0
 10
55.81605171560123
 20
-60.47387082680352
 30
0.0
 10
55.81605171560123
 20
-60.47387082680352
 30
0.0
 10
55.81605269598165
 20
-63.47385777049786
 30
0.0
 10
55.81605269598165
 20
-63.47385777049786
 30
0.0
 10
55.81605269598165
 20
-63.47385777049786
 30
0.0
 10
40.81604780088684
 20
-63.47386267242302
 30
0.0
 10
40.81604780088684
 20
-63.47386267242302
 30
0.0
 10
40.81604780088684
 20
-63.47386267242302
 30
0.0
 10
40.81605188014261
 20
-75.95648100263493
 30
0.0
 10
40.81605188014261
 20
-75.95648100263493
 30
0.0
  0
ENDBLK
  5
124
330
121
100
AcDbEntity
  8
0
100
AcDbBlockEnd
  0
BLOCK
  5
128
330
126
100
AcDbEntity
  8
0
100
AcDbBlockBegin
  2
block 10
 70
     0
 10
0.0
 20
0.0
 30
0.0
  3
block 10
  1

  0
INSERT
  5
12B
330
126
100
AcDbEntity
  8
_U+5716_U+5C64 1
100
AcDbBlockReference
  2
block 11
 10
0.0
 20
0.0
 30
0.0
  0
ENDBLK
  5
129
330
126
100
AcDbEntity
  8
0
100
AcDbBlockEnd
  0
BLOCK
  5
12C
330
12A
100
AcDbEntity
  8
0
100
AcDbBlockBegin
  2
block 11
 70
     0
 10
0.0
 20
0.0
 30
0.0
  3
block 11
  1

  0
SPLINE
  5
12E
330
12A
100
AcDbEntity
  8
_U+5716_U+5C64 1
370
     0
100
AcDbSpline
210
0.0
220
0.0
230
1.0
 70
    11
 71
     3
 72
    74
 73
    70
 74
     0
 42
0.0000000001
 43
0.0000000001
 12
1.0
 22
0.0
 32
0.0
 13
1.0
 23
0.0
 33
0.0
 40
0.0
 40
0.0
 40
0.0
 40
0.0
 40
1.0
 40
1.0
 40
1.0
 40
2.0
 40
2.0
 40
2.0
 40
3.0
 40
3.0
 40
3.0
 40
4.0
 40
4.0
 40
4.0
 40
5.0
 40
5.0
 40
5.0
 40
6.0
 40
6.0
 40
6.0
 40
7.0
 40
7.0
 40
7.0
 40
8.0
 40
8.0
 40
8.0
 40
9.0
 40
9.0
 40
9.0
 40
10.0
 40
10.0
 40
10.0
 40
11.0
 40
11.0
 40
11.0
 40
12.0
 40
12.0
 40
12.0
 40
13.0
 40
13.0
 40
13.0
 40
14.0
 40
14.0
 40
14.0
 40
15.0
 40
15.0
 40
15.0
 40
16.0
 40
16.0
 40
16.0
 40
17.0
 40
17.0
 40
17.0
 40
18.0
 40
18.0
 40
18.0
 40
19.0
 40
19.0
 40
19.0
 40
20.0
 40
20.0
 40
20.0
 40
21.0
 40
21.0
 40
21.0
 40
22.0
 40
22.0
 40
22.0
 40
23.0
 40
23.0
 40
23.0
 40
23.0
 10
28.21966525763105
 20
-150.9491755062546
 30
0.0
 10
28.21966525763105
 20
-151.0093241173507
 30
0.0
 10
28.21423247999187
 20
-151.0693668951137
 30
0.0
 10
28.20343748026728
 20
-151.1285630062097
 30
0.0
 10
28.10437748279451
 20
-151.6718760616289
 30
0.0
 10
27.58360694052492
 20
-152.032026894872
 30
0.0
 10
27.04028921728493
 20
-151.9329316171197
 30
0.0
 10
27.04028921728493
 20
-151.9329316171197
 30
0.0
 10
15.33452780858051
 20
-124.3172755129122
 30
0.0
 10
15.33452780858051
 20
-124.3172755129122
 30
0.0
 10
15.33452780858051
 20
-124.3172755129122
 30
0.0
 10
2.72028840817435
 20
-94.55828274257473
 30
0.0
 10
2.72028840817435
 20
-94.55828274257473
 30
0.0
 10
2.719653408190551
 20
-94.55436690924248
 30
0.0
 10
2.719653408190551
 20
-94.55182690924312
 30
0.0
 10
2.719653408190551
 20
-94.54928690924375
 30
0.0
 10
2.719653408190551
 20
-94.54928690924375
 30
0.0
 10
2.719653408190551
 20
-48.36129192078985
 30
0.0
 10
2.719653408190551
 20
-48.36129192078985
 30
0.0
 10
2.719653408190551
 20
-45.59985331036981
 30
0.0
 10
4.958240017746115
 20
-43.36126664426259
 30
0.0
 10
7.719643280630182
 20
-43.36126664426259
 30
0.0
 10
7.719643280630182
 20
-43.36126664426259
 30
0.0
 10
31.21964754957333
 20
-43.36126664426259
 30
0.0
 10
31.21964754957333
 20
-43.36126664426259
 30
0.0
 10
31.21964754957333
 20
-43.36126664426259
 30
0.0
 10
31.21964754957333
 20
-46.3612888657351
 30
0.0
 10
31.21964754957333
 20
-46.3612888657351
 30
0.0
 10
31.21964754957333
 20
-46.3612888657351
 30
0.0
 10
28.21966525763105
 20
-46.3612888657351
 30
0.0
 10
28.21966525763105
 20
-46.3612888657351
 30
0.0
 10
28.21966525763105
 20
-46.3612888657351
 30
0.0
 10
28.21966525763105
 20
-79.4842999685654
 30
0.0
 10
28.21966525763105
 20
-79.4842999685654
 30
0.0
 10
28.21966525763105
 20
-79.4842999685654
 30
0.0
 10
17.2196614419624
 20
-79.4842999685654
 30
0.0
 10
17.2196614419624
 20
-79.4842999685654
 30
0.0
 10
17.2196614419624
 20
-79.4842999685654
 30
0.0
 10
17.2196614419624
 20
-82.48428691225973
 30
0.0
 10
17.2196614419624
 20
-82.48428691225973
 30
0.0
 10
17.2196614419624
 20
-82.48428691225973
 30
0.0
 10
28.21966525763105
 20
-82.48428691225973
 30
0.0
 10
28.21966525763105
 20
-82.48428691225973
 30
0.0
 10
28.21966525763105
 20
-82.48428691225973
 30
0.0
 10
28.21966525763105
 20
-109.4842752388433
 30
0.0
 10
28.21966525763105
 20
-109.4842752388433
 30
0.0
 10
28.21966525763105
 20
-109.4842752388433
 30
0.0
 10
20.21965323950614
 20
-109.4842752388433
 30
0.0
 10
20.21965323950614
 20
-109.4842752388433
 30
0.0
 10
20.21965323950614
 20
-109.4842752388433
 30
0.0
 10
20.21965323950614
 20
-112.4842974603152
 30
0.0
 10
20.21965323950614
 20
-112.4842974603152
 30
0.0
 10
20.21965323950614
 20
-112.4842974603152
 30
0.0
 10
28.21966525763105
 20
-112.4842974603152
 30
0.0
 10
28.21966525763105
 20
-112.4842974603152
 30
0.0
 10
28.21966525763105
 20
-112.4842974603152
 30
0.0
 10
28.21966525763105
 20
-139.4842857868991
 30
0.0
 10
28.21966525763105
 20
-139.4842857868991
 30
0.0
 10
28.21966525763105
 20
-139.4842857868991
 30
0.0
 10
25.21964311194577
 20
-139.4842857868991
 30
0.0
 10
25.21964311194577
 20
-139.4842857868991
 30
0.0
 10
25.21964311194577
 20
-139.4842857868991
 30
0.0
 10
25.21964311194577
 20
-142.4842727305934
 30
0.0
 10
25.21964311194577
 20
-142.4842727305934
 30
0.0
 10
25.21964311194577
 20
-142.4842727305934
 30
0.0
 10
28.21966525763105
 20
-142.4842727305934
 30
0.0
 10
28.21966525763105
 20
-142.4842727305934
 30
0.0
 10
28.21966525763105
 20
-142.4842727305934
 30
0.0
 10
28.21966525763105
 20
-150.9491755062546
 30
0.0
 10
28.21966525763105
 20
-150.9491755062546
 30
0.0
  0
ENDBLK
  5
12D
330
12A
100
AcDbEntity
  8
0
100
AcDbBlockEnd
  0
BLOCK
  5
132
330
130
100
AcDbEntity
  8
0
100
AcDbBlockBegin
  2
block 12
 70
     0
 10
0.0
 20
0.0
 30
0.0
  3
block 12
  1

  0
INSERT
  5
135
330
130
100
AcDbEntity
  8
_U+5716_U+5C64 1
100
AcDbBlockReference
  2
block 13
 10
0.0
 20
0.0
 30
0.0
  0
ENDBLK
  5
133
330
130
100
AcDbEntity
  8
0
100
AcDbBlockEnd
  0
BLOCK
  5
136
330
134
100
AcDbEntity
  8
0
100
AcDbBlockBegin
  2
block 13
 70
     0
 10
0.0
 20
0.0
 30
0.0
  3
block 13
  1

  0
SPLINE
  5
138
330
134
100
AcDbEntity
  8
_U+5716_U+5C64 1
370
     0
100
AcDbSpline
210
0.0
220
0.0
230
1.0
 70
    11
 71
     3
 72
   182
 73
   178
 74
     0
 42
0.0000000001
 43
0.0000000001
 12
1.0
 22
0.0
 32
0.0
 13
1.0
 23
0.0
 33
0.0
 40
0.0
 40
0.0
 40
0.0
 40
0.0
 40
1.0
 40
1.0
 40
1.0
 40
2.0
 40
2.0
 40
2.0
 40
3.0
 40
3.0
 40
3.0
 40
4.0
 40
4.0
 40
4.0
 40
5.0
 40
5.0
 40
5.0
 40
6.0
 40
6.0
 40
6.0
 40
7.0
 40
7.0
 40
7.0
 40
8.0
 40
8.0
 40
8.0
 40
9.0
 40
9.0
 40
9.0
 40
10.0
 40
10.0
 40
10.0
 40
11.0
 40
11.0
 40
11.0
 40
12.0
 40
12.0
 40
12.0
 40
13.0
 40
13.0
 40
13.0
 40
14.0
 40
14.0
 40
14.0
 40
15.0
 40
15.0
 40
15.0
 40
16.0
 40
16.0
 40
16.0
 40
17.0
 40
17.0
 40
17.0
 40
18.0
 40
18.0
 40
18.0
 40
19.0
 40
19.0
 40
19.0
 40
20.0
 40
20.0
 40
20.0
 40
21.0
 40
21.0
 40
21.0
 40
22.0
 40
22.0
 40
22.0
 40
23.0
 40
23.0
 40
23.0
 40
24.0
 40
24.0
 40
24.0
 40
25.0
 40
25.0
 40
25.0
 40
26.0
 40
26.0
 40
26.0
 40
27.0
 40
27.0
 40
27.0
 40
28.0
 40
28.0
 40
28.0
 40
29.0
 40
29.0
 40
29.0
 40
30.0
 40
30.0
 40
30.0
 40
31.0
 40
31.0
 40
31.0
 40
32.0
 40
32.0
 40
32.0
 40
33.0
 40
33.0
 40
33.0
 40
34.0
 40
34.0
 40
34.0
 40
35.0
 40
35.0
 40
35.0
 40
36.0
 40
36.0
 40
36.0
 40
37.0
 40
37.0
 40
37.0
 40
38.0
 40
38.0
 40
38.0
 40
39.0
 40
39.0
 40
39.0
 40
40.0
 40
40.0
 40
40.0
 40
41.0
 40
41.0
 40
41.0
 40
42.0
 40
42.0
 40
42.0
 40
43.0
 40
43.0
 40
43.0
 40
44.0
 40
44.0
 40
44.0
 40
45.0
 40
45.0
 40
45.0
 40
46.0
 40
46.0
 40
46.0
 40
47.0
 40
47.0
 40
47.0
 40
48.0
 40
48.0
 40
48.0
 40
49.0
 40
49.0
 40
49.0
 40
50.0
 40
50.0
 40
50.0
 40
51.0
 40
51.0
 40
51.0
 40
52.0
 40
52.0
 40
52.0
 40
53.0
 40
53.0
 40
53.0
 40
54.0
 40
54.0
 40
54.0
 40
55.0
 40
55.0
 40
55.0
 40
56.0
 40
56.0
 40
56.0
 40
57.0
 40
57.0
 40
57.0
 40
58.0
 40
58.0
 40
58.0
 40
59.0
 40
59.0
 40
59.0
 40
59.0
 10
35.58014947217029
 20
-37.8846197515994
 30
0.0
 10
35.58014947217029
 20
-37.8846197515994
 30
0.0
 10
22.08012037214029
 20
-37.8846197515994
 30
0.0
 10
22.08012037214029
 20
-37.8846197515994
 30
0.0
 10
22.08012037214029
 20
-37.8846197515994
 30
0.0
 10
22.08012037214029
 20
-40.88464197307127
 30
0.0
 10
22.08012037214029
 20
-40.88464197307127
 30
0.0
 10
22.08012037214029
 20
-40.88464197307127
 30
0.0
 10
19.08013350423188
 20
-40.88464197307127
 30
0.0
 10
19.08013350423188
 20
-40.88464197307127
 30
0.0
 10
19.08013350423188
 20
-40.88464197307127
 30
0.0
 10
19.08013350423188
 20
-37.8846197515994
 30
0.0
 10
19.08013350423188
 20
-37.8846197515994
 30
0.0
 10
19.08013350423188
 20
-37.8846197515994
 30
0.0
 10
-27.91984890780978
 20
-37.8846197515994
 30
0.0
 10
-27.91984890780978
 20
-37.8846197515994
 30
0.0
 10
-27.91984890780978
 20
-37.8846197515994
 30
0.0
 10
-27.91984890780978
 20
-40.88464197307127
 30
0.0
 10
-27.91984890780978
 20
-40.88464197307127
 30
0.0
 10
-27.91984890780978
 20
-40.88464197307127
 30
0.0
 10
-30.91987021104016
 20
-40.88464197307127
 30
0.0
 10
-30.91987021104016
 20
-40.88464197307127
 30
0.0
 10
-30.91987021104016
 20
-40.88464197307127
 30
0.0
 10
-30.91987021104016
 20
-37.8846197515994
 30
0.0
 10
-30.91987021104016
 20
-37.8846197515994
 30
0.0
 10
-30.91987021104016
 20
-37.8846197515994
 30
0.0
 10
-44.41986437433162
 20
-37.8846197515994
 30
0.0
 10
-44.41986437433162
 20
-37.8846197515994
 30
0.0
 10
-44.41986437433162
 20
-37.8846197515994
 30
0.0
 10
-42.91985326359569
 20
-32.18464808635771
 30
0.0
 10
-42.91985326359569
 20
-32.18464808635771
 30
0.0
 10
-42.91985326359569
 20
-32.18464808635771
 30
0.0
 10
-41.41987743063728
 20
-27.08464558763249
 30
0.0
 10
-41.41987743063728
 20
-27.08464558763249
 30
0.0
 10
-41.41987743063728
 20
-27.08464558763249
 30
0.0
 10
-39.91986631990103
 20
-22.58464753320189
 30
0.0
 10
-39.91986631990103
 20
-22.58464753320189
 30
0.0
 10
-39.91986631990103
 20
-22.58464753320189
 30
0.0
 10
-38.4198552091651
 20
-18.68461864528777
 30
0.0
 10
-38.4198552091651
 20
-18.68461864528777
 30
0.0
 10
-38.4198552091651
 20
-18.68461864528777
 30
0.0
 10
-36.91984409842885
 20
-15.38462947944643
 30
0.0
 10
-36.91984409842885
 20
-15.38462947944643
 30
0.0
 10
-36.91984409842885
 20
-15.38462947944643
 30
0.0
 10
-35.41986826547043
 20
-12.68464475789908
 30
0.0
 10
-35.41986826547043
 20
-12.68464475789908
 30
0.0
 10
-35.41986826547043
 20
-12.68464475789908
 30
0.0
 10
-33.9198571547345
 20
-10.58462920286884
 30
0.0
 10
-33.9198571547345
 20
-10.58462920286884
 30
0.0
 10
-33.9198571547345
 20
-10.58462920286884
 30
0.0
 10
-32.41984604399825
 20
-9.084618092132587
 30
0.0
 10
-32.41984604399825
 20
-9.084618092132587
 30
0.0
 10
-32.41984604399825
 20
-9.084618092132587
 30
0.0
 10
-30.91987021104016
 20
-8.184646703468484
 30
0.0
 10
-30.91987021104016
 20
-8.184646703468484
 30
0.0
 10
-30.91987021104016
 20
-8.184646703468484
 30
0.0
 10
-30.91987021104016
 20
-22.88464975534889
 30
0.0
 10
-30.91987021104016
 20
-22.88464975534889
 30
0.0
 10
-30.91987021104016
 20
-22.88464975534889
 30
0.0
 10
-27.91984890780978
 20
-22.88464975534889
 30
0.0
 10
-27.91984890780978
 20
-22.88464975534889
 30
0.0
 10
-27.91984890780978
 20
-22.88464975534889
 30
0.0
 10
-27.91984890780978
 20
-8.184646703468484
 30
0.0
 10
-27.91984890780978
 20
-8.184646703468484
 30
0.0
 10
-27.91984890780978
 20
-8.184646703468484
 30
0.0
 10
-26.41987311274402
 20
-9.084618092132587
 30
0.0
 10
-26.41987311274402
 20
-9.084618092132587
 30
0.0
 10
-26.41987311274402
 20
-9.084618092132587
 30
0.0
 10
-24.91986203990138
 20
-10.58462920286884
 30
0.0
 10
-24.91986203990138
 20
-10.58462920286884
 30
0.0
 10
-24.91986203990138
 20
-10.58462920286884
 30
0.0
 10
-24.55833437929698
 20
-11.09075948052001
 30
0.0
 10
-24.55833437929698
 20
-11.09075948052001
 30
0.0
 10
-24.55755927136672
 20
-11.09185309163082
 30
0.0
 10
-23.41985096705874
 20
-12.68464475789908
 30
0.0
 10
-23.41985096705874
 20
-12.68464475789908
 30
0.0
 10
-23.41985096705874
 20
-12.68464475789908
 30
0.0
 10
-21.91987517199298
 20
-15.38462947944643
 30
0.0
 10
-21.91987517199298
 20
-15.38462947944643
 30
0.0
 10
-21.91987517199298
 20
-15.38462947944643
 30
0.0
 10
-20.41986409915033
 20
-18.68461864528777
 30
0.0
 10
-20.41986409915033
 20
-18.68461864528777
 30
0.0
 10
-20.41986409915033
 20
-18.68461864528777
 30
0.0
 10
-19.92022494523053
 20
-19.98368753385242
 30
0.0
 10
-19.92022494523053
 20
-19.98368753385242
 30
0.0
 10
-19.92022494523053
 20
-19.98368753385242
 30
0.0
 10
-19.82938466977028
 20
-19.98368753385242
 30
0.0
 10
-19.82938466977028
 20
-19.98368753385242
 30
0.0
 10
-19.82938466977028
 20
-19.98368753385242
 30
0.0
 10
-14.91984701724524
 20
-19.98372281162994
 30
0.0
 10
-14.91984701724524
 20
-19.98372281162994
 30
0.0
 10
-14.91984701724524
 20
-19.98372281162994
 30
0.0
 10
-14.91984701724524
 20
-29.88464280915467
 30
0.0
 10
-14.91984701724524
 20
-29.88464280915467
 30
0.0
 10
-14.91984701724524
 20
-29.88464280915467
 30
0.0
 10
-11.91986014933684
 20
-29.88464280915467
 30
0.0
 10
-11.91986014933684
 20
-29.88464280915467
 30
0.0
 10
-11.91986014933684
 20
-29.88464280915467
 30
0.0
 10
-11.91986014933684
 20
-19.98372281162994
 30
0.0
 10
-11.91986014933684
 20
-19.98372281162994
 30
0.0
 10
-11.91986014933684
 20
-19.98372281162994
 30
0.0
 10
3.080144745758935
 20
-19.98372281162994
 30
0.0
 10
3.080144745758935
 20
-19.98372281162994
 30
0.0
 10
3.080144745758935
 20
-19.98372281162994
 30
0.0
 10
3.080144745758935
 20
-29.88464280915467
 30
0.0
 10
3.080144745758935
 20
-29.88464280915467
 30
0.0
 10
3.080144745758935
 20
-29.88464280915467
 30
0.0
 10
6.080131613667338
 20
-29.88464280915467
 30
0.0
 10
6.080131613667338
 20
-29.88464280915467
 30
0.0
 10
6.080131613667338
 20
-29.88464280915467
 30
0.0
 10
6.080131613667338
 20
-19.98372281162994
 30
0.0
 10
6.080131613667338
 20
-19.98372281162994
 30
0.0
 10
6.080131613667338
 20
-19.98372281162994
 30
0.0
 10
10.9896339884155
 20
-19.98372281162994
 30
0.0
 10
10.9896339884155
 20
-19.98372281162994
 30
0.0
 10
10.9896339884155
 20
-19.98372281162994
 30
0.0
 10
11.08050954165262
 20
-19.98372281162994
 30
0.0
 10
11.08050954165262
 20
-19.98372281162994
 30
0.0
 10
11.08050954165262
 20
-19.98372281162994
 30
0.0
 10
11.58014869557243
 20
-18.68461864528777
 30
0.0
 10
11.58014869557243
 20
-18.68461864528777
 30
0.0
 10
11.58014869557243
 20
-18.68461864528777
 30
0.0
 10
13.0801244906382
 20
-15.38462947944643
 30
0.0
 10
13.0801244906382
 20
-15.38462947944643
 30
0.0
 10
13.0801244906382
 20
-15.38462947944643
 30
0.0
 10
14.58013556348084
 20
-12.68464475789908
 30
0.0
 10
14.58013556348084
 20
-12.68464475789908
 30
0.0
 10
14.58013556348084
 20
-12.68464475789908
 30
0.0
 10
15.71784386778881
 20
-11.09185309163082
 30
0.0
 10
15.71784386778881
 20
-11.09185309163082
 30
0.0
 10
15.71784386778881
 20
-11.09185309163082
 30
0.0
 10
15.7221477565679
 20
-11.08582059163199
 30
0.0
 10
15.7221477565679
 20
-11.08582059163199
 30
0.0
 10
15.7221477565679
 20
-11.08582059163199
 30
0.0
 10
16.08014663632348
 20
-10.58462920286884
 30
0.0
 10
16.08014663632348
 20
-10.58462920286884
 30
0.0
 10
16.08014663632348
 20
-10.58462920286884
 30
0.0
 10
17.58012243138924
 20
-9.084618092132587
 30
0.0
 10
17.58012243138924
 20
-9.084618092132587
 30
0.0
 10
17.58012243138924
 20
-9.084618092132587
 30
0.0
 10
19.08013350423188
 20
-8.184646703468484
 30
0.0
 10
19.08013350423188
 20
-8.184646703468484
 30
0.0
 10
19.08013350423188
 20
-8.184646703468484
 30
0.0
 10
19.08013350423188
 20
-22.88464975534889
 30
0.0
 10
19.08013350423188
 20
-22.88464975534889
 30
0.0
 10
19.08013350423188
 20
-22.88464975534889
 30
0.0
 10
22.08012037214029
 20
-22.88464975534889
 30
0.0
 10
22.08012037214029
 20
-22.88464975534889
 30
0.0
 10
22.08012037214029
 20
-22.88464975534889
 30
0.0
 10
22.08012037214029
 20
-8.184646703468484
 30
0.0
 10
22.08012037214029
 20
-8.184646703468484
 30
0.0
 10
22.08012037214029
 20
-8.184646703468484
 30
0.0
 10
23.58013144498292
 20
-9.084618092132587
 30
0.0
 10
23.58013144498292
 20
-9.084618092132587
 30
0.0
 10
23.58013144498292
 20
-9.084618092132587
 30
0.0
 10
25.08014251782556
 20
-10.58462920286884
 30
0.0
 10
25.08014251782556
 20
-10.58462920286884
 30
0.0
 10
25.08014251782556
 20
-10.58462920286884
 30
0.0
 10
26.58015359066821
 20
-12.68464475789908
 30
0.0
 10
26.58015359066821
 20
-12.68464475789908
 30
0.0
 10
26.58015359066821
 20
-12.68464475789908
 30
0.0
 10
28.08012938573397
 20
-15.38462947944643
 30
0.0
 10
28.08012938573397
 20
-15.38462947944643
 30
0.0
 10
28.08012938573397
 20
-15.38462947944643
 30
0.0
 10
29.58014045857661
 20
-18.68461864528777
 30
0.0
 10
29.58014045857661
 20
-18.68461864528777
 30
0.0
 10
29.58014045857661
 20
-18.68461864528777
 30
0.0
 10
31.08015153141925
 20
-22.58464753320189
 30
0.0
 10
31.08015153141925
 20
-22.58464753320189
 30
0.0
 10
31.08015153141925
 20
-22.58464753320189
 30
0.0
 10
32.58012732648501
 20
-27.08464558763249
 30
0.0
 10
32.58012732648501
 20
-27.08464558763249
 30
0.0
 10
32.58012732648501
 20
-27.08464558763249
 30
0.0
 10
34.08013839932765
 20
-32.18464808635771
 30
0.0
 10
34.08013839932765
 20
-32.18464808635771
 30
0.0
 10
34.08013839932765
 20
-32.18464808635771
 30
0.0
 10
35.58014947217029
 20
-37.8846197515994
 30
0.0
 10
35.58014947217029
 20
-37.8846197515994
 30
0.0
  0
ENDBLK
  5
137
330
134
100
AcDbEntity
  8
0
100
AcDbBlockEnd
  0
ENDSEC
  0
SECTION
  2
ENTITIES
  0
INSERT
  5
42
330
1F
100
AcDbEntity
  8
_U+5716_U+5C64 1
100
AcDbBlockReference
  2
block 2
 10
0.0
 20
0.0
 30
0.0
  0
INSERT
  5
4B
330
1F
100
AcDbEntity
  8
_U+5716_U+5C64 1
100
AcDbBlockReference
  2
block 4
 10
0.0
 20
0.0
 30
0.0
  0
POLYLINE
  5
B2
330
1F
100
AcDbEntity
  8
_U+5716_U+5C64 1
370
     0
100
AcDb2dPolyline
 66
     1
 10
0.0
 20
0.0
 30
0.0
  0
VERTEX
  5
B3
330
B2
100
AcDbEntity
  8
_U+5716_U+5C64 1
370
     0
100
AcDbVertex
100
AcDb2dVertex
 10
-1.55117040918105
 20
9.327683190029292
 30
0.0
  0
VERTEX
  5
B4
330
B2
100
AcDbEntity
  8
_U+5716_U+5C64 1
370
     0
100
AcDbVertex
100
AcDb2dVertex
 10
-1.55117040918105
 20
5.327712458743715
 30
0.0
  0
VERTEX
  5
B5
330
B2
100
AcDbEntity
  8
_U+5716_U+5C64 1
370
     0
100
AcDbVertex
100
AcDb2dVertex
 10
1.448851812290813
 20
5.327712458743715
 30
0.0
  0
VERTEX
  5
B6
330
B2
100
AcDbEntity
  8
_U+5716_U+5C64 1
370
     0
100
AcDbVertex
100
AcDb2dVertex
 10
1.448851812290813
 20
2.327725590835311
 30
0.0
  0
VERTEX
  5
B7
330
B2
100
AcDbEntity
  8
_U+5716_U+5C64 1
370
     0
100
AcDbVertex
100
AcDb2dVertex
 10
1.448851812290813
 20
-5.708022032277161
 30
0.0
  0
VERTEX
  5
B8
330
B2
100
AcDbEntity
  8
_U+5716_U+5C64 1
370
     0
100
AcDbVertex
100
AcDb2dVertex
 10
4.171237922721522
 20
-4.990895365789472
 30
0.0
  0
VERTEX
  5
B9
330
B2
100
AcDbEntity
  8
_U+5716_U+5C64 1
370
     0
100
AcDbVertex
100
AcDb2dVertex
 10
6.402627922163433
 20
-4.403661477047369
 30
0.0
  0
VERTEX
  5
BA
330
B2
100
AcDbEntity
  8
_U+5716_U+5C64 1
370
     0
100
AcDbVertex
100
AcDb2dVertex
 10
8.399138477220022
 20
-3.816498143860946
 30
0.0
  0
VERTEX
  5
BB
330
B2
100
AcDbEntity
  8
_U+5716_U+5C64 1
370
     0
100
AcDbVertex
100
AcDb2dVertex
 10
10.83397542105538
 20
-3.100429810706542
 30
0.0
  0
VERTEX
  5
BC
330
B2
100
AcDbEntity
  8
_U+5716_U+5C64 1
370
     0
100
AcDbVertex
100
AcDb2dVertex
 10
12.59564180950417
 20
-2.513231199741958
 30
0.0
  0
VERTEX
  5
BD
330
B2
100
AcDbEntity
  8
_U+5716_U+5C64 1
370
     0
100
AcDbVertex
100
AcDb2dVertex
 10
14.74536375341099
 20
-1.797198144365715
 30
0.0
  0
VERTEX
  5
BE
330
B2
100
AcDbEntity
  8
_U+5716_U+5C64 1
370
     0
100
AcDbVertex
100
AcDb2dVertex
 10
16.2721154196963
 20
-1.209965152244012
 30
0.0
  0
VERTEX
  5
BF
330
B2
100
AcDbEntity
  8
_U+5716_U+5C64 1
370
     0
100
AcDbVertex
100
AcDb2dVertex
 10
18.13428819700841
 20
-0.4934029483028144
 30
0.0
  0
VERTEX
  5
C0
330
B2
100
AcDbEntity
  8
_U+5716_U+5C64 1
370
     0
100
AcDbVertex
100
AcDb2dVertex
 10
19.42616041890775
 20
0.0937956478276125
 30
0.0
  0
VERTEX
  5
C1
330
B2
100
AcDbEntity
  8
_U+5716_U+5C64 1
370
     0
100
AcDbVertex
100
AcDb2dVertex
 10
21.0024068074026
 20
0.8098639628925212
 30
0.0
  0
VERTEX
  5
C2
330
B2
100
AcDbEntity
  8
_U+5716_U+5C64 1
370
     0
100
AcDbVertex
100
AcDb2dVertex
 10
22.05939958491598
 20
1.397062559022948
 30
0.0
  0
VERTEX
  5
C3
330
B2
100
AcDbEntity
  8
_U+5716_U+5C64 1
370
     0
100
AcDbVertex
100
AcDb2dVertex
 10
23.34809680681612
 20
2.113095596310979
 30
0.0
  0
VERTEX
  5
C4
330
B2
100
AcDbEntity
  8
_U+5716_U+5C64 1
370
     0
100
AcDbVertex
100
AcDb2dVertex
 10
24.17021013994354
 20
2.700294192441406
 30
0.0
  0
VERTEX
  5
C5
330
B2
100
AcDbEntity
  8
_U+5716_U+5C64 1
370
     0
100
AcDbVertex
100
AcDb2dVertex
 10
25.17375708413762
 20
3.417420840812647
 30
0.0
  0
VERTEX
  5
C6
330
B2
100
AcDbEntity
  8
_U+5716_U+5C64 1
370
     0
100
AcDbVertex
100
AcDb2dVertex
 10
26.47702402825596
 20
4.720687752007983
 30
0.0
  0
VERTEX
  5
C7
330
B2
100
AcDbEntity
  8
_U+5716_U+5C64 1
370
     0
100
AcDbVertex
100
AcDb2dVertex
 10
26.82934319483459
 20
5.30788740941365
 30
0.0
  0
VERTEX
  5
C8
330
B2
100
AcDbEntity
  8
_U+5716_U+5C64 1
370
     0
100
AcDbVertex
100
AcDb2dVertex
 10
27.14133986142354
 20
5.827704390432302
 30
0.0
  0
VERTEX
  5
C9
330
B2
100
AcDbEntity
  8
_U+5716_U+5C64 1
370
     0
100
AcDbVertex
100
AcDb2dVertex
 10
26.44883708381834
 20
5.827704390432302
 30
0.0
  0
VERTEX
  5
CA
330
B2
100
AcDbEntity
  8
_U+5716_U+5C64 1
370
     0
100
AcDbVertex
100
AcDb2dVertex
 10
26.44883708381834
 20
8.827691258340705
 30
0.0
  0
VERTEX
  5
CB
330
B2
100
AcDbEntity
  8
_U+5716_U+5C64 1
370
     0
100
AcDbVertex
100
AcDb2dVertex
 10
27.14144569475674
 20
8.827691258340705
 30
0.0
  0
VERTEX
  5
CC
330
B2
100
AcDbEntity
  8
_U+5716_U+5C64 1
370
     0
100
AcDbVertex
100
AcDb2dVertex
 10
26.82934319483459
 20
9.348073745064642
 30
0.0
  0
VERTEX
  5
CD
330
B2
100
AcDbEntity
  8
_U+5716_U+5C64 1
370
     0
100
AcDbVertex
100
AcDb2dVertex
 10
26.47702402825596
 20
9.935273519367982
 30
0.0
  0
VERTEX
  5
CE
330
B2
100
AcDbEntity
  8
_U+5716_U+5C64 1
370
     0
100
AcDbVertex
100
AcDb2dVertex
 10
25.17375708413762
 20
11.23850397461353
 30
0.0
  0
VERTEX
  5
CF
330
B2
100
AcDbEntity
  8
_U+5716_U+5C64 1
370
     0
100
AcDbVertex
100
AcDb2dVertex
 10
24.17021013994354
 20
11.9551014563316
 30
0.0
  0
VERTEX
  5
D0
330
B2
100
AcDbEntity
  8
_U+5716_U+5C64 1
370
     0
100
AcDbVertex
100
AcDb2dVertex
 10
23.34809680681612
 20
12.5423012964938
 30
0.0
  0
VERTEX
  5
D1
330
B2
100
AcDbEntity
  8
_U+5716_U+5C64 1
370
     0
100
AcDbVertex
100
AcDb2dVertex
 10
22.05939958491598
 20
13.25836836752694
 30
0.0
  0
VERTEX
  5
D2
330
B2
100
AcDbEntity
  8
_U+5716_U+5C64 1
370
     0
100
AcDbVertex
100
AcDb2dVertex
 10
21.0024068074026
 20
13.84556696365737
 30
0.0
  0
VERTEX
  5
D3
330
B2
100
AcDbEntity
  8
_U+5716_U+5C64 1
370
     0
100
AcDbVertex
100
AcDb2dVertex
 10
19.42616041890775
 20
14.56160129598903
 30
0.0
  0
VERTEX
  5
D4
330
B2
100
AcDbEntity
  8
_U+5716_U+5C64 1
370
     0
100
AcDbVertex
100
AcDb2dVertex
 10
18.13428819700841
 20
15.14879859707582
 30
0.0
  0
VERTEX
  5
D5
330
B2
100
AcDbEntity
  8
_U+5716_U+5C64 1
370
     0
100
AcDbVertex
100
AcDb2dVertex
 10
16.2721154196963
 20
15.86592524544706
 30
0.0
  0
VERTEX
  5
D6
330
B2
100
AcDbEntity
  8
_U+5716_U+5C64 1
370
     0
100
AcDbVertex
100
AcDb2dVertex
 10
14.74536375341099
 20
16.45312384157749
 30
0.0
  0
VERTEX
  5
D7
330
B2
100
AcDbEntity
  8
_U+5716_U+5C64 1
370
     0
100
AcDbVertex
100
AcDb2dVertex
 10
12.59564180950417
 20
17.16915687886552
 30
0.0
  0
VERTEX
  5
D8
330
B2
100
AcDbEntity
  8
_U+5716_U+5C64 1
370
     0
100
AcDbVertex
100
AcDb2dVertex
 10
10.83397542105538
 20
17.75639075277283
 30
0.0
  0
VERTEX
  5
D9
330
B2
100
AcDbEntity
  8
_U+5716_U+5C64 1
370
     0
100
AcDbVertex
100
AcDb2dVertex
 10
8.399138477220022
 20
18.47242379006086
 30
0.0
  0
VERTEX
  5
DA
330
B2
100
AcDbEntity
  8
_U+5716_U+5C64 1
370
     0
100
AcDbVertex
100
AcDb2dVertex
 10
6.402627922163433
 20
19.05965766396816
 30
0.0
  0
VERTEX
  5
DB
330
B2
100
AcDbEntity
  8
_U+5716_U+5C64 1
370
     0
100
AcDbVertex
100
AcDb2dVertex
 10
4.171237922721522
 20
19.64682098232171
 30
0.0
  0
VERTEX
  5
DC
330
B2
100
AcDbEntity
  8
_U+5716_U+5C64 1
370
     0
100
AcDbVertex
100
AcDb2dVertex
 10
1.448851812290813
 20
20.36341846403979
 30
0.0
  0
VERTEX
  5
DD
330
B2
100
AcDbEntity
  8
_U+5716_U+5C64 1
370
     0
100
AcDbVertex
100
AcDb2dVertex
 10
1.448851812290813
 20
12.32770533571457
 30
0.0
  0
VERTEX
  5
DE
330
B2
100
AcDbEntity
  8
_U+5716_U+5C64 1
370
     0
100
AcDbVertex
100
AcDb2dVertex
 10
1.448851812290813
 20
9.327683190029292
 30
0.0
  0
VERTEX
  5
DF
330
B2
100
AcDbEntity
  8
_U+5716_U+5C64 1
370
     0
100
AcDbVertex
100
AcDb2dVertex
 10
-1.55117040918105
 20
9.327683190029292
 30
0.0
  0
SEQEND
  5
E0
330
B2
100
AcDbEntity
  8
_U+5716_U+5C64 1
370
     0
  0
SPLINE
  5
E1
330
1F
100
AcDbEntity
  8
_U+5716_U+5C64 1
370
     0
100
AcDbSpline
210
0.0
220
0.0
230
1.0
 70
    11
 71
     3
 72
    17
 73
    13
 74
     0
 42
0.0000000001
 43
0.0000000001
 12
1.0
 22
0.0
 32
0.0
 13
1.0
 23
0.0
 33
0.0
 40
0.0
 40
0.0
 40
0.0
 40
0.0
 40
1.0
 40
1.0
 40
1.0
 40
2.0
 40
2.0
 40
2.0
 40
3.0
 40
3.0
 40
3.0
 40
4.0
 40
4.0
 40
4.0
 40
4.0
 10
21.05158402961253
 20
8.927703755789175
 30
0.0
 10
21.93522180716898
 20
8.927703755789175
 30
0.0
 10
22.65157236254546
 20
8.211353218509243
 30
0.0
 10
22.65157236254546
 20
7.327715463274942
 30
0.0
 10
22.65157236254546
 20
6.444042430263765
 30
0.0
 10
21.93522180716898
 20
5.727692964863792
 30
0.0
 10
21.05158402961253
 20
5.727692964863792
 30
0.0
 10
20.16791097427793
 20
5.727692964863792
 30
0.0
 10
19.45156041890144
 20
6.444042430263765
 30
0.0
 10
19.45156041890144
 20
7.327715463274942
 30
0.0
 10
19.45156041890144
 20
8.211353218509243
 30
0.0
 10
20.16791097427793
 20
8.927703755789175
 30
0.0
 10
21.05158402961253
 20
8.927703755789175
 30
0.0
  0
POLYLINE
  5
E2
330
1F
100
AcDbEntity
  8
_U+5716_U+5C64 1
370
     0
100
AcDb2dPolyline
 66
     1
 10
0.0
 20
0.0
 30
0.0
  0
VERTEX
  5
E3
330
E2
100
AcDbEntity
  8
_U+5716_U+5C64 1
370
     0
100
AcDbVertex
100
AcDb2dVertex
 10
-12.58972818419978
 20
20.36341846403979
 30
0.0
  0
VERTEX
  5
E4
330
E2
100
AcDbEntity
  8
_U+5716_U+5C64 1
370
     0
100
AcDbVertex
100
AcDb2dVertex
 10
-15.31211429463049
 20
19.64685626009859
 30
0.0
  0
VERTEX
  5
E5
330
E2
100
AcDbEntity
  8
_U+5716_U+5C64 1
370
     0
100
AcDbVertex
100
AcDb2dVertex
 10
-17.54353957184992
 20
19.05962238619128
 30
0.0
  0
VERTEX
  5
E6
330
E2
100
AcDbEntity
  8
_U+5716_U+5C64 1
370
     0
100
AcDbVertex
100
AcDb2dVertex
 10
-19.54005012690651
 20
18.47242379006086
 30
0.0
  0
VERTEX
  5
E7
330
E2
100
AcDbEntity
  8
_U+5716_U+5C64 1
370
     0
100
AcDbVertex
100
AcDb2dVertex
 10
-21.97488707074187
 20
17.75639075277283
 30
0.0
  0
VERTEX
  5
E8
330
E2
100
AcDbEntity
  8
_U+5716_U+5C64 1
370
     0
100
AcDbVertex
100
AcDb2dVertex
 10
-23.73651818141314
 20
17.16915687886552
 30
0.0
  0
VERTEX
  5
E9
330
E2
100
AcDbEntity
  8
_U+5716_U+5C64 1
370
     0
100
AcDbVertex
100
AcDb2dVertex
 10
-25.88624012531996
 20
16.45312384157749
 30
0.0
  0
VERTEX
  5
EA
330
E2
100
AcDbEntity
  8
_U+5716_U+5C64 1
370
     0
100
AcDbVertex
100
AcDb2dVertex
 10
-27.41299179160527
 20
15.86592524544706
 30
0.0
  0
VERTEX
  5
EB
330
E2
100
AcDbEntity
  8
_U+5716_U+5C64 1
370
     0
100
AcDbVertex
100
AcDb2dVertex
 10
-29.27516456891673
 20
15.14879859707582
 30
0.0
  0
VERTEX
  5
EC
330
E2
100
AcDbEntity
  8
_U+5716_U+5C64 1
370
     0
100
AcDbVertex
100
AcDb2dVertex
 10
-30.56703679081608
 20
14.56160129598903
 30
0.0
  0
VERTEX
  5
ED
330
E2
100
AcDbEntity
  8
_U+5716_U+5C64 1
370
     0
100
AcDbVertex
100
AcDb2dVertex
 10
-32.14328317931157
 20
13.84556696365737
 30
0.0
  0
VERTEX
  5
EE
330
E2
100
AcDbEntity
  8
_U+5716_U+5C64 1
370
     0
100
AcDbVertex
100
AcDb2dVertex
 10
-33.20027595682431
 20
13.25836836752694
 30
0.0
  0
VERTEX
  5
EF
330
E2
100
AcDbEntity
  8
_U+5716_U+5C64 1
370
     0
100
AcDbVertex
100
AcDb2dVertex
 10
-34.48897317872509
 20
12.5423012964938
 30
0.0
  0
VERTEX
  5
F0
330
E2
100
AcDbEntity
  8
_U+5716_U+5C64 1
370
     0
100
AcDbVertex
100
AcDb2dVertex
 10
-35.31105123407435
 20
11.9551014563316
 30
0.0
  0
VERTEX
  5
F1
330
E2
100
AcDbEntity
  8
_U+5716_U+5C64 1
370
     0
100
AcDbVertex
100
AcDb2dVertex
 10
-36.31463345604595
 20
11.2385392523904
 30
0.0
  0
VERTEX
  5
F2
330
E2
100
AcDbEntity
  8
_U+5716_U+5C64 1
370
     0
100
AcDbVertex
100
AcDb2dVertex
 10
-37.61790040016493
 20
9.935273519367982
 30
0.0
  0
VERTEX
  5
F3
330
E2
100
AcDbEntity
  8
_U+5716_U+5C64 1
370
     0
100
AcDbVertex
100
AcDb2dVertex
 10
-37.97021956674355
 20
9.348073745064642
 30
0.0
  0
VERTEX
  5
F4
330
E2
100
AcDbEntity
  8
_U+5716_U+5C64 1
370
     0
100
AcDbVertex
100
AcDb2dVertex
 10
-38.28232206666507
 20
8.827691258340705
 30
0.0
  0
VERTEX
  5
F5
330
E2
100
AcDbEntity
  8
_U+5716_U+5C64 1
370
     0
100
AcDbVertex
100
AcDb2dVertex
 10
-37.58971345572731
 20
8.827691258340705
 30
0.0
  0
VERTEX
  5
F6
330
E2
100
AcDbEntity
  8
_U+5716_U+5C64 1
370
     0
100
AcDbVertex
100
AcDb2dVertex
 10
-37.58971345572731
 20
5.827704390432302
 30
0.0
  0
VERTEX
  5
F7
330
E2
100
AcDbEntity
  8
_U+5716_U+5C64 1
370
     0
100
AcDbVertex
100
AcDb2dVertex
 10
-38.28225151111003
 20
5.827704390432302
 30
0.0
  0
VERTEX
  5
F8
330
E2
100
AcDbEntity
  8
_U+5716_U+5C64 1
370
     0
100
AcDbVertex
100
AcDb2dVertex
 10
-37.97021956674355
 20
5.30788740941365
 30
0.0
  0
VERTEX
  5
F9
330
E2
100
AcDbEntity
  8
_U+5716_U+5C64 1
370
     0
100
AcDbVertex
100
AcDb2dVertex
 10
-37.61790040016493
 20
4.720687752007983
 30
0.0
  0
VERTEX
  5
FA
330
E2
100
AcDbEntity
  8
_U+5716_U+5C64 1
370
     0
100
AcDbVertex
100
AcDb2dVertex
 10
-36.31463345604595
 20
3.417420840812647
 30
0.0
  0
VERTEX
  5
FB
330
E2
100
AcDbEntity
  8
_U+5716_U+5C64 1
370
     0
100
AcDbVertex
100
AcDb2dVertex
 10
-35.31105123407435
 20
2.700329470218283
 30
0.0
  0
VERTEX
  5
FC
330
E2
100
AcDbEntity
  8
_U+5716_U+5C64 1
370
     0
100
AcDbVertex
100
AcDb2dVertex
 10
-34.48897317872509
 20
2.113095596310979
 30
0.0
  0
VERTEX
  5
FD
330
E2
100
AcDbEntity
  8
_U+5716_U+5C64 1
370
     0
100
AcDbVertex
100
AcDb2dVertex
 10
-33.20027595682431
 20
1.397062559022948
 30
0.0
  0
VERTEX
  5
FE
330
E2
100
AcDbEntity
  8
_U+5716_U+5C64 1
370
     0
100
AcDbVertex
100
AcDb2dVertex
 10
-32.14328317931157
 20
0.8098639628925212
 30
0.0
  0
VERTEX
  5
FF
330
E2
100
AcDbEntity
  8
_U+5716_U+5C64 1
370
     0
100
AcDbVertex
100
AcDb2dVertex
 10
-30.56703679081608
 20
0.0937956478276125
 30
0.0
  0
VERTEX
  5
100
330
E2
100
AcDbEntity
  8
_U+5716_U+5C64 1
370
     0
100
AcDbVertex
100
AcDb2dVertex
 10
-29.27516456891673
 20
-0.4934029483028144
 30
0.0
  0
VERTEX
  5
101
330
E2
100
AcDbEntity
  8
_U+5716_U+5C64 1
370
     0
100
AcDbVertex
100
AcDb2dVertex
 10
-27.41299179160527
 20
-1.209965152244012
 30
0.0
  0
VERTEX
  5
102
330
E2
100
AcDbEntity
  8
_U+5716_U+5C64 1
370
     0
100
AcDbVertex
100
AcDb2dVertex
 10
-25.88624012531996
 20
-1.797198144365715
 30
0.0
  0
VERTEX
  5
103
330
E2
100
AcDbEntity
  8
_U+5716_U+5C64 1
370
     0
100
AcDbVertex
100
AcDb2dVertex
 10
-23.73651818141314
 20
-2.513231199741958
 30
0.0
  0
VERTEX
  5
104
330
E2
100
AcDbEntity
  8
_U+5716_U+5C64 1
370
     0
100
AcDbVertex
100
AcDb2dVertex
 10
-21.97488707074187
 20
-3.100429810706542
 30
0.0
  0
VERTEX
  5
105
330
E2
100
AcDbEntity
  8
_U+5716_U+5C64 1
370
     0
100
AcDbVertex
100
AcDb2dVertex
 10
-19.54005012690651
 20
-3.816462866083427
 30
0.0
  0
VERTEX
  5
106
330
E2
100
AcDbEntity
  8
_U+5716_U+5C64 1
370
     0
100
AcDbVertex
100
AcDb2dVertex
 10
-17.54353957184992
 20
-4.403661477047369
 30
0.0
  0
VERTEX
  5
107
330
E2
100
AcDbEntity
  8
_U+5716_U+5C64 1
370
     0
100
AcDbVertex
100
AcDb2dVertex
 10
-15.31211429463049
 20
-4.990895365789472
 30
0.0
  0
VERTEX
  5
108
330
E2
100
AcDbEntity
  8
_U+5716_U+5C64 1
370
     0
100
AcDbVertex
100
AcDb2dVertex
 10
-12.58972818419978
 20
-5.707986754499
 30
0.0
  0
VERTEX
  5
109
330
E2
100
AcDbEntity
  8
_U+5716_U+5C64 1
370
     0
100
AcDbVertex
100
AcDb2dVertex
 10
-12.58972818419978
 20
2.392884632364972
 30
0.0
  0
VERTEX
  5
10A
330
E2
100
AcDbEntity
  8
_U+5716_U+5C64 1
370
     0
100
AcDbVertex
100
AcDb2dVertex
 10
-12.58972818419978
 20
2.392884632364972
 30
0.0
  0
VERTEX
  5
10B
330
E2
100
AcDbEntity
  8
_U+5716_U+5C64 1
370
     0
100
AcDbVertex
100
AcDb2dVertex
 10
-12.58972818419978
 20
5.39287051263695
 30
0.0
  0
VERTEX
  5
10C
330
E2
100
AcDbEntity
  8
_U+5716_U+5C64 1
370
     0
100
AcDbVertex
100
AcDb2dVertex
 10
-9.58974124050544
 20
5.39287051263695
 30
0.0
  0
VERTEX
  5
10D
330
E2
100
AcDbEntity
  8
_U+5716_U+5C64 1
370
     0
100
AcDbVertex
100
AcDb2dVertex
 10
-9.58974124050544
 20
9.327683190029292
 30
0.0
  0
VERTEX
  5
10E
330
E2
100
AcDbEntity
  8
_U+5716_U+5C64 1
370
     0
100
AcDbVertex
100
AcDb2dVertex
 10
-12.58972818419978
 20
9.327683190029292
 30
0.0
  0
VERTEX
  5
10F
330
E2
100
AcDbEntity
  8
_U+5716_U+5C64 1
370
     0
100
AcDbVertex
100
AcDb2dVertex
 10
-12.58972818419978
 20
12.32770533571457
 30
0.0
  0
VERTEX
  5
110
330
E2
100
AcDbEntity
  8
_U+5716_U+5C64 1
370
     0
100
AcDbVertex
100
AcDb2dVertex
 10
-12.58972818419978
 20
12.32770533571457
 30
0.0
  0
VERTEX
  5
111
330
E2
100
AcDbEntity
  8
_U+5716_U+5C64 1
370
     0
100
AcDbVertex
100
AcDb2dVertex
 10
-12.58972818419978
 20
20.36341846403979
 30
0.0
  0
SEQEND
  5
112
330
E2
100
AcDbEntity
  8
_U+5716_U+5C64 1
370
     0
  0
SPLINE
  5
113
330
1F
100
AcDbEntity
  8
_U+5716_U+5C64 1
370
     0
100
AcDbSpline
210
0.0
220
0.0
230
1.0
 70
    11
 71
     3
 72
    17
 73
    13
 74
     0
 42
0.0000000001
 43
0.0000000001
 12
1.0
 22
0.0
 32
0.0
 13
1.0
 23
0.0
 33
0.0
 40
0.0
 40
0.0
 40
0.0
 40
0.0
 40
1.0
 40
1.0
 40
1.0
 40
2.0
 40
2.0
 40
2.0
 40
3.0
 40
3.0
 40
3.0
 40
4.0
 40
4.0
 40
4.0
 40
4.0
 10
-30.59247206858793
 20
7.327715463274942
 30
0.0
 10
-30.59247206858793
 20
6.444042430263765
 30
0.0
 10
-31.30882262396378
 20
5.727692964863792
 30
0.0
 10
-32.19249567929838
 20
5.727692964863792
 30
0.0
 10
-33.07613345685611
 20
5.727692964863792
 30
0.0
 10
-33.79248401223195
 20
6.444042430263765
 30
0.0
 10
-33.79248401223195
 20
7.327715463274942
 30
0.0
 10
-33.79248401223195
 20
8.211353218509243
 30
0.0
 10
-33.07613345685611
 20
8.927703755789175
 30
0.0
 10
-32.19249567929838
 20
8.927703755789175
 30
0.0
 10
-31.30882262396378
 20
8.927703755789175
 30
0.0
 10
-30.59247206858793
 20
8.211353218509243
 30
0.0
 10
-30.59247206858793
 20
7.327715463274942
 30
0.0
  0
INSERT
  5
115
330
1F
100
AcDbEntity
  8
_U+5716_U+5C64 1
100
AcDbBlockReference
  2
block 6
 10
0.0
 20
0.0
 30
0.0
  0
INSERT
  5
11E
330
1F
100
AcDbEntity
  8
_U+5716_U+5C64 1
100
AcDbBlockReference
  2
block 8
 10
0.0
 20
0.0
 30
0.0
  0
INSERT
  5
127
330
1F
100
AcDbEntity
  8
_U+5716_U+5C64 1
100
AcDbBlockReference
  2
block 10
 10
0.0
 20
0.0
 30
0.0
  0
SPLINE
  5
12F
330
1F
100
AcDbEntity
  8
_U+5716_U+5C64 1
370
     0
100
AcDbSpline
210
0.0
220
0.0
230
1.0
 70
    11
 71
     3
 72
   218
 73
   214
 74
     0
 42
0.0000000001
 43
0.0000000001
 12
1.0
 22
0.0
 32
0.0
 13
1.0
 23
0.0
 33
0.0
 40
0.0
 40
0.0
 40
0.0
 40
0.0
 40
1.0
 40
1.0
 40
1.0
 40
2.0
 40
2.0
 40
2.0
 40
3.0
 40
3.0
 40
3.0
 40
4.0
 40
4.0
 40
4.0
 40
5.0
 40
5.0
 40
5.0
 40
6.0
 40
6.0
 40
6.0
 40
7.0
 40
7.0
 40
7.0
 40
8.0
 40
8.0
 40
8.0
 40
9.0
 40
9.0
 40
9.0
 40
10.0
 40
10.0
 40
10.0
 40
11.0
 40
11.0
 40
11.0
 40
12.0
 40
12.0
 40
12.0
 40
13.0
 40
13.0
 40
13.0
 40
14.0
 40
14.0
 40
14.0
 40
15.0
 40
15.0
 40
15.0
 40
16.0
 40
16.0
 40
16.0
 40
17.0
 40
17.0
 40
17.0
 40
18.0
 40
18.0
 40
18.0
 40
19.0
 40
19.0
 40
19.0
 40
20.0
 40
20.0
 40
20.0
 40
21.0
 40
21.0
 40
21.0
 40
22.0
 40
22.0
 40
22.0
 40
23.0
 40
23.0
 40
23.0
 40
24.0
 40
24.0
 40
24.0
 40
25.0
 40
25.0
 40
25.0
 40
26.0
 40
26.0
 40
26.0
 40
27.0
 40
27.0
 40
27.0
 40
28.0
 40
28.0
 40
28.0
 40
29.0
 40
29.0
 40
29.0
 40
30.0
 40
30.0
 40
30.0
 40
31.0
 40
31.0
 40
31.0
 40
32.0
 40
32.0
 40
32.0
 40
33.0
 40
33.0
 40
33.0
 40
34.0
 40
34.0
 40
34.0
 40
35.0
 40
35.0
 40
35.0
 40
36.0
 40
36.0
 40
36.0
 40
37.0
 40
37.0
 40
37.0
 40
38.0
 40
38.0
 40
38.0
 40
39.0
 40
39.0
 40
39.0
 40
40.0
 40
40.0
 40
40.0
 40
41.0
 40
41.0
 40
41.0
 40
42.0
 40
42.0
 40
42.0
 40
43.0
 40
43.0
 40
43.0
 40
44.0
 40
44.0
 40
44.0
 40
45.0
 40
45.0
 40
45.0
 40
46.0
 40
46.0
 40
46.0
 40
47.0
 40
47.0
 40
47.0
 40
48.0
 40
48.0
 40
48.0
 40
49.0
 40
49.0
 40
49.0
 40
50.0
 40
50.0
 40
50.0
 40
51.0
 40
51.0
 40
51.0
 40
52.0
 40
52.0
 40
52.0
 40
53.0
 40
53.0
 40
53.0
 40
54.0
 40
54.0
 40
54.0
 40
55.0
 40
55.0
 40
55.0
 40
56.0
 40
56.0
 40
56.0
 40
57.0
 40
57.0
 40
57.0
 40
58.0
 40
58.0
 40
58.0
 40
59.0
 40
59.0
 40
59.0
 40
60.0
 40
60.0
 40
60.0
 40
61.0
 40
61.0
 40
61.0
 40
62.0
 40
62.0
 40
62.0
 40
63.0
 40
63.0
 40
63.0
 40
64.0
 40
64.0
 40
64.0
 40
65.0
 40
65.0
 40
65.0
 40
66.0
 40
66.0
 40
66.0
 40
67.0
 40
67.0
 40
67.0
 40
68.0
 40
68.0
 40
68.0
 40
69.0
 40
69.0
 40
69.0
 40
70.0
 40
70.0
 40
70.0
 40
71.0
 40
71.0
 40
71.0
 40
71.0
 10
100.1264768351899
 20
-8.200354156863082
 30
0.0
 10
100.1264768351899
 20
-8.200354156863082
 30
0.0
 10
108.840758001759
 20
-8.200354156863082
 30
0.0
 10
108.840758001759
 20
-8.200354156863082
 30
0.0
 10
108.840758001759
 20
-8.200354156863082
 30
0.0
 10
108.842204390611
 20
-8.20240026797365
 30
0.0
 10
108.842204390611
 20
-8.20240026797365
 30
0.0
 10
108.842204390611
 20
-8.20240026797365
 30
0.0
 10
109.3176077118158
 20
-8.867986101140593
 30
0.0
 10
109.3176077118158
 20
-8.867986101140593
 30
0.0
 10
109.3176077118158
 20
-8.867986101140593
 30
0.0
 10
110.1264565800692
 20
-10.00036748974665
 30
0.0
 10
110.1264565800692
 20
-10.00036748974665
 30
0.0
 10
110.1264565800692
 20
-10.00036748974665
 30
0.0
 10
111.6264676529118
 20
-11.50037860048258
 30
0.0
 10
111.6264676529118
 20
-11.50037860048258
 30
0.0
 10
111.6264676529118
 20
-11.50037860048258
 30
0.0
 10
113.1264787257545
 20
-12.40034998914636
 30
0.0
 10
113.1264787257545
 20
-12.40034998914636
 30
0.0
 10
113.1264787257545
 20
-12.40034998914636
 30
0.0
 10
113.1264787257545
 20
-5.900384157438205
 30
0.0
 10
113.1264787257545
 20
-5.900384157438205
 30
0.0
 10
113.1264787257545
 20
-5.900384157438205
 30
0.0
 10
116.1264696911391
 20
-5.900384157438205
 30
0.0
 10
116.1264696911391
 20
-5.900384157438205
 30
0.0
 10
116.1264696911391
 20
-5.900384157438205
 30
0.0
 10
116.1264696911391
 20
-12.40034998914636
 30
0.0
 10
116.1264696911391
 20
-12.40034998914636
 30
0.0
 10
116.1264696911391
 20
-12.40034998914636
 30
0.0
 10
117.6264808018753
 20
-11.50037860048258
 30
0.0
 10
117.6264808018753
 20
-11.50037860048258
 30
0.0
 10
117.6264808018753
 20
-11.50037860048258
 30
0.0
 10
119.1264919126116
 20
-10.00036748974665
 30
0.0
 10
119.1264919126116
 20
-10.00036748974665
 30
0.0
 10
119.1264919126116
 20
-10.00036748974665
 30
0.0
 10
120.6264635344139
 20
-7.900351934716088
 30
0.0
 10
120.6264635344139
 20
-7.900351934716088
 30
0.0
 10
120.6264635344139
 20
-7.900351934716088
 30
0.0
 10
122.1264746072566
 20
-5.200367213168739
 30
0.0
 10
122.1264746072566
 20
-5.200367213168739
 30
0.0
 10
122.1264746072566
 20
-5.200367213168739
 30
0.0
 10
123.6264856800992
 20
-1.900342769549241
 30
0.0
 10
123.6264856800992
 20
-1.900342769549241
 30
0.0
 10
123.6264856800992
 20
-1.900342769549241
 30
0.0
 10
125.126461475165
 20
1.999650840586725
 30
0.0
 10
125.126461475165
 20
1.999650840586725
 30
0.0
 10
125.126461475165
 20
1.999650840586725
 30
0.0
 10
126.6264725480076
 20
6.49961361723948
 30
0.0
 10
126.6264725480076
 20
6.49961361723948
 30
0.0
 10
126.6264725480076
 20
6.49961361723948
 30
0.0
 10
128.1264483430734
 20
11.59965139374254
 30
0.0
 10
128.1264483430734
 20
11.59965139374254
 30
0.0
 10
128.1264483430734
 20
11.59965139374254
 30
0.0
 10
129.6264946936929
 20
17.29963717009531
 30
0.0
 10
129.6264946936929
 20
17.29963717009531
 30
0.0
 10
129.6264946936929
 20
17.29963717009531
 30
0.0
 10
123.6264856800992
 20
17.29963717009531
 30
0.0
 10
123.6264856800992
 20
17.29963717009531
 30
0.0
 10
121.9695943334811
 20
17.29963717009531
 30
0.0
 10
120.6264635344139
 20
15.95650280931993
 30
0.0
 10
120.6264635344139
 20
14.29963611528957
 30
0.0
 10
120.6264635344139
 20
14.29963611528957
 30
0.0
 10
120.6264635344139
 20
5.799631950747854
 30
0.0
 10
120.6264635344139
 20
5.799631950747854
 30
0.0
 10
120.6264635344139
 20
4.494213062185419
 30
0.0
 10
119.8999529973932
 20
3.297238062484652
 30
0.0
 10
118.7418541380499
 20
2.694728895968495
 30
0.0
 10
117.9681066577898
 20
2.292174173846973
 30
0.0
 10
117.407860283194
 20
1.572825007360157
 30
0.0
 10
117.2070591772057
 20
0.7240416742390373
 30
0.0
 10
116.9402180729023
 20
-0.4037888810346018
 30
0.0
 10
115.9332139319265
 20
-1.200361103057614
 30
0.0
 10
114.7742331281612
 20
-1.200361103057614
 30
0.0
 10
114.7742331281612
 20
-1.200361103057614
 30
0.0
 10
114.6929884080117
 20
-1.200361103057614
 30
0.0
 10
114.6929884080117
 20
-1.200361103057614
 30
0.0
 10
113.5340076042464
 20
-1.200361103057614
 30
0.0
 10
112.5270034632706
 20
-0.4037888810346018
 30
0.0
 10
112.2601623589672
 20
0.7240416742390373
 30
0.0
 10
112.0593612529789
 20
1.572825007360157
 30
0.0
 10
111.4991148783831
 20
2.292174173846973
 30
0.0
 10
110.725367398123
 20
2.694728895968495
 30
0.0
 10
109.567272470557
 20
3.297238062484652
 30
0.0
 10
108.840758001759
 20
4.494213062185419
 30
0.0
 10
108.840758001759
 20
5.799631950747854
 30
0.0
 10
108.840758001759
 20
5.799631950747854
 30
0.0
 10
108.840758001759
 20
14.29963611528957
 30
0.0
 10
108.840758001759
 20
14.29963611528957
 30
0.0
 10
108.840758001759
 20
15.95650280931993
 30
0.0
 10
107.4975919249149
 20
17.29963717009531
 30
0.0
 10
105.8407358560737
 20
17.29963717009531
 30
0.0
 10
105.8407358560737
 20
17.29963717009531
 30
0.0
 10
73.4122039056167
 20
17.29963717009531
 30
0.0
 10
73.4122039056167
 20
17.29963717009531
 30
0.0
 10
71.75534783677551
 20
17.29963717009531
 30
0.0
 10
70.41218175993143
 20
15.95650280931993
 30
0.0
 10
70.41218175993143
 20
14.29963611528957
 30
0.0
 10
70.41218175993143
 20
14.29963611528957
 30
0.0
 10
70.41218175993143
 20
5.799631950747854
 30
0.0
 10
70.41218175993143
 20
5.799631950747854
 30
0.0
 10
70.41218175993143
 20
4.494213062185419
 30
0.0
 10
69.68563594513381
 20
3.297238062484652
 30
0.0
 10
68.52757525859451
 20
2.694728895968495
 30
0.0
 10
67.75382488330732
 20
2.292174173846973
 30
0.0
 10
67.1935785087115
 20
1.572825007360157
 30
0.0
 10
66.99277740272325
 20
0.7240416742390373
 30
0.0
 10
66.72593914793381
 20
-0.4037888810346018
 30
0.0
 10
65.71893215744397
 20
-1.200361103057614
 30
0.0
 10
64.55991607590182
 20
-1.200361103057614
 30
0.0
 10
64.55991607590182
 20
-1.200361103057614
 30
0.0
 10
64.47870663352921
 20
-1.200361103057614
 30
0.0
 10
64.47870663352921
 20
-1.200361103057614
 30
0.0
 10
63.31972582976394
 20
-1.200361103057614
 30
0.0
 10
62.31272168878809
 20
-0.4037888810346018
 30
0.0
 10
62.04588058448466
 20
0.7240416742390373
 30
0.0
 10
61.84507947849641
 20
1.572825007360157
 30
0.0
 10
61.2848331039006
 20
2.292174173846973
 30
0.0
 10
60.51108562364054
 20
2.694728895968495
 30
0.0
 10
59.35298676429721
 20
3.297238062484652
 30
0.0
 10
58.62647622727648
 20
4.494213062185419
 30
0.0
 10
58.62647622727648
 20
5.799631950747854
 30
0.0
 10
58.62647622727648
 20
5.799631950747854
 30
0.0
 10
58.62647622727648
 20
14.29963611528957
 30
0.0
 10
58.62647622727648
 20
14.29963611528957
 30
0.0
 10
58.62647622727648
 20
15.95650280931993
 30
0.0
 10
57.28334542820927
 20
17.29963717009531
 30
0.0
 10
55.62649192848655
 20
17.29963717009531
 30
0.0
 10
55.62649192848655
 20
17.29963717009531
 30
0.0
 10
49.6264803457744
 20
17.29963717009531
 30
0.0
 10
49.6264803457744
 20
17.29963717009531
 30
0.0
 10
49.6264803457744
 20
17.29963717009531
 30
0.0
 10
51.12645859627811
 20
11.59965139374254
 30
0.0
 10
51.12645859627811
 20
11.59965139374254
 30
0.0
 10
51.12645859627811
 20
11.59965139374254
 30
0.0
 10
52.62646970701405
 20
6.49961361723948
 30
0.0
 10
52.62646970701405
 20
6.49961361723948
 30
0.0
 10
52.62646970701405
 20
6.49961361723948
 30
0.0
 10
54.1264808177503
 20
1.999650840586725
 30
0.0
 10
54.1264808177503
 20
1.999650840586725
 30
0.0
 10
54.1264808177503
 20
1.999650840586725
 30
0.0
 10
55.62649192848655
 20
-1.900342769549241
 30
0.0
 10
55.62649192848655
 20
-1.900342769549241
 30
0.0
 10
55.62649192848655
 20
-1.900342769549241
 30
0.0
 10
57.12646515443384
 20
-5.200367213168739
 30
0.0
 10
57.12646515443384
 20
-5.200367213168739
 30
0.0
 10
57.12646515443384
 20
-5.200367213168739
 30
0.0
 10
58.62647622727648
 20
-7.900351934716088
 30
0.0
 10
58.62647622727648
 20
-7.900351934716088
 30
0.0
 10
58.62647622727648
 20
-7.900351934716088
 30
0.0
 10
60.12648730011913
 20
-10.00036748974665
 30
0.0
 10
60.12648730011913
 20
-10.00036748974665
 30
0.0
 10
60.12648730011913
 20
-10.00036748974665
 30
0.0
 10
61.62646309518489
 20
-11.50037860048258
 30
0.0
 10
61.62646309518489
 20
-11.50037860048258
 30
0.0
 10
61.62646309518489
 20
-11.50037860048258
 30
0.0
 10
63.12647416802753
 20
-12.40034998914636
 30
0.0
 10
63.12647416802753
 20
-12.40034998914636
 30
0.0
 10
63.12647416802753
 20
-12.40034998914636
 30
0.0
 10
63.12647416802753
 20
-10.60037193404096
 30
0.0
 10
63.12647416802753
 20
-10.60037193404096
 30
0.0
 10
63.12647416802753
 20
-10.60037193404096
 30
0.0
 10
63.12647416802753
 20
-7.700362212543611
 30
0.0
 10
63.12647416802753
 20
-7.700362212543611
 30
0.0
 10
63.12647416802753
 20
-7.700362212543611
 30
0.0
 10
63.12647416802753
 20
-5.900384157438205
 30
0.0
 10
63.12647416802753
 20
-5.900384157438205
 30
0.0
 10
63.12647416802753
 20
-5.900384157438205
 30
0.0
 10
66.1264963137128
 20
-5.900384157438205
 30
0.0
 10
66.1264963137128
 20
-5.900384157438205
 30
0.0
 10
66.1264963137128
 20
-5.900384157438205
 30
0.0
 10
66.1264963137128
 20
-7.700362212543611
 30
0.0
 10
66.1264963137128
 20
-7.700362212543611
 30
0.0
 10
66.1264963137128
 20
-7.700362212543611
 30
0.0
 10
66.1264963137128
 20
-10.60037193404096
 30
0.0
 10
66.1264963137128
 20
-10.60037193404096
 30
0.0
 10
66.1264963137128
 20
-10.60037193404096
 30
0.0
 10
66.1264963137128
 20
-12.40034998914636
 30
0.0
 10
66.1264963137128
 20
-12.40034998914636
 30
0.0
 10
66.1264963137128
 20
-12.40034998914636
 30
0.0
 10
67.62647210877857
 20
-11.50037860048258
 30
0.0
 10
67.62647210877857
 20
-11.50037860048258
 30
0.0
 10
67.62647210877857
 20
-11.50037860048258
 30
0.0
 10
69.12648318162121
 20
-10.00036748974665
 30
0.0
 10
69.12648318162121
 20
-10.00036748974665
 30
0.0
 10
69.12648318162121
 20
-10.00036748974665
 30
0.0
 10
70.41073537107944
 20
-8.20240026797365
 30
0.0
 10
70.41073537107944
 20
-8.20240026797365
 30
0.0
 10
70.41073537107944
 20
-8.20240026797365
 30
0.0
 10
70.41218175993143
 20
-8.200354156863082
 30
0.0
 10
70.41218175993143
 20
-8.200354156863082
 30
0.0
 10
70.41218175993143
 20
-8.200354156863082
 30
0.0
 10
79.12646292650048
 20
-8.200354156863082
 30
0.0
 10
79.12646292650048
 20
-8.200354156863082
 30
0.0
 10
79.12646292650048
 20
-8.200354156863082
 30
0.0
 10
79.12646292650048
 20
6.299659172845164
 30
0.0
 10
79.12646292650048
 20
6.299659172845164
 30
0.0
 10
79.12646292650048
 20
6.299659172845164
 30
0.0
 10
82.12648507218576
 20
6.299659172845164
 30
0.0
 10
82.12648507218576
 20
6.299659172845164
 30
0.0
 10
82.12648507218576
 20
6.299659172845164
 30
0.0
 10
82.12648507218576
 20
-8.200354156863082
 30
0.0
 10
82.12648507218576
 20
-8.200354156863082
 30
0.0
 10
82.12648507218576
 20
-8.200354156863082
 30
0.0
 10
97.12645468950465
 20
-8.200354156863082
 30
0.0
 10
97.12645468950465
 20
-8.200354156863082
 30
0.0
 10
97.12645468950465
 20
-8.200354156863082
 30
0.0
 10
97.12645468950465
 20
6.299659172845164
 30
0.0
 10
97.12645468950465
 20
6.299659172845164
 30
0.0
 10
97.12645468950465
 20
6.299659172845164
 30
0.0
 10
100.1264768351899
 20
6.299659172845164
 30
0.0
 10
100.1264768351899
 20
6.299659172845164
 30
0.0
 10
100.1264768351899
 20
6.299659172845164
 30
0.0
 10
100.1264768351899
 20
-8.200354156863082
 30
0.0
 10
100.1264768351899
 20
-8.200354156863082
 30
0.0
  0
INSERT
  5
131
330
1F
100
AcDbEntity
  8
_U+5716_U+5C64 1
100
AcDbBlockReference
  2
block 12
 10
0.0
 20
0.0
 30
0.0
  0
ENDSEC
  0
SECTION
  2
OBJECTS
  0
DICTIONARY
  5
C
330
0
100
AcDbDictionary
281
     1
  3
ACAD_GROUP
350
D
  3
ACAD_LAYOUT
350
1A
  3
ACAD_MATERIAL
350
3B
  3
ACAD_MLEADERSTYLE
350
13A
  3
ACAD_MLINESTYLE
350
17
  3
ACAD_PLOTSETTINGS
350
19
  3
ACAD_PLOTSTYLENAME
350
E
  3
ACAD_TABLESTYLE
350
139
  3
ACAD_VISUALSTYLE
350
2A
  0
SUN
  5
3F
330
29
100
AcDbSun
 90
        1
290
     0
 63
     7
421
 16777215
 40
1.0
291
     1
 91
  2455826
 92
 54000000
292
     0
 70
     2
 71
   256
280
     1
  0
DICTIONARY
  5
D
102
{ACAD_REACTORS
330
C
102
}
330
C
100
AcDbDictionary
281
     1
  0
DICTIONARY
  5
1A
102
{ACAD_REACTORS
330
C
102
}
330
C
100
AcDbDictionary
281
     1
  3
Layout1
350
1E
  3
Layout2
350
26
  3
Model
350
22
  0
DICTIONARY
  5
3B
102
{ACAD_REACTORS
330
C
102
}
330
C
100
AcDbDictionary
281
     1
  3
ByBlock
350
3D
  3
ByLayer
350
3C
  3
Global
350
3E
  0
DICTIONARY
  5
13A
102
{ACAD_REACTORS
330
C
102
}
330
C
100
AcDbDictionary
281
     1
  0
DICTIONARY
  5
17
102
{ACAD_REACTORS
330
C
102
}
330
C
100
AcDbDictionary
281
     1
  3
Standard
350
18
  0
DICTIONARY
  5
19
102
{ACAD_REACTORS
330
C
102
}
330
C
100
AcDbDictionary
281
     1
  0
ACDBDICTIONARYWDFLT
  5
E
102
{ACAD_REACTORS
330
C
102
}
330
C
100
AcDbDictionary
281
     1
  3
Normal
350
F
100
AcDbDictionaryWithDefault
340
F
  0
DICTIONARY
  5
139
102
{ACAD_REACTORS
330
C
102
}
330
C
100
AcDbDictionary
281
     1
  0
DICTIONARY
  5
2A
102
{ACAD_REACTORS
330
C
102
}
330
C
100
AcDbDictionary
281
     1
  3
2dWireframe
350
2F
  3
3D Hidden
350
31
  3
3dWireframe
350
30
  3
Basic
350
32
  3
Brighten
350
36
  3
ColorChange
350
3A
  3
Conceptual
350
34
  3
Dim
350
35
  3
Facepattern
350
39
  3
Flat
350
2B
  3
FlatWithEdges
350
2C
  3
Gouraud
350
2D
  3
GouraudWithEdges
350
2E
  3
Linepattern
350
38
  3
Realistic
350
33
  3
Thicken
350
37
  0
LAYOUT
  5
1E
102
{ACAD_REACTORS
330
1A
102
}
330
1A
100
AcDbPlotSettings
  1

  2
none_device
  4

  6

 40
0.0
 41
0.0
 42
0.0
 43
0.0
 44
0.0
 45
0.0
 46
0.0
 47
0.0
 48
0.0
 49
0.0
140
0.0
141
0.0
142
1.0
143
1.0
 70
   688
 72
     0
 73
     0
 74
     5
  7

 75
    16
 76
     0
 77
     2
 78
   300
147
1.0
148
0.0
149
0.0
100
AcDbLayout
  1
Layout1
 70
     1
 71
     1
 10
0.0
 20
0.0
 11
12.0
 21
9.0
 12
0.0
 22
0.0
 32
0.0
 14
1.000000000000000E+20
 24
1.000000000000000E+20
 34
1.000000000000000E+20
 15
-1.000000000000000E+20
 25
-1.000000000000000E+20
 35
-1.000000000000000E+20
146
0.0
 13
0.0
 23
0.0
 33
0.0
 16
1.0
 26
0.0
 36
0.0
 17
0.0
 27
1.0
 37
0.0
 76
     0
330
1B
  0
LAYOUT
  5
26
102
{ACAD_REACTORS
330
1A
102
}
330
1A
100
AcDbPlotSettings
  1

  2
none_device
  4

  6

 40
0.0
 41
0.0
 42
0.0
 43
0.0
 44
0.0
 45
0.0
 46
0.0
 47
0.0
 48
0.0
 49
0.0
140
0.0
141
0.0
142
1.0
143
1.0
 70
   688
 72
     0
 73
     0
 74
     5
  7

 75
    16
 76
     0
 77
     2
 78
   300
147
1.0
148
0.0
149
0.0
100
AcDbLayout
  1
Layout2
 70
     1
 71
     2
 10
0.0
 20
0.0
 11
0.0
 21
0.0
 12
0.0
 22
0.0
 32
0.0
 14
0.0
 24
0.0
 34
0.0
 15
0.0
 25
0.0
 35
0.0
146
0.0
 13
0.0
 23
0.0
 33
0.0
 16
1.0
 26
0.0
 36
0.0
 17
0.0
 27
1.0
 37
0.0
 76
     0
330
23
  0
LAYOUT
  5
22
102
{ACAD_REACTORS
330
1A
102
}
330
1A
100
AcDbPlotSettings
  1

  2
none_device
  4

  6

 40
0.0
 41
0.0
 42
0.0
 43
0.0
 44
0.0
 45
0.0
 46
0.0
 47
0.0
 48
0.0
 49
0.0
140
0.0
141
0.0
142
1.0
143
1.0
 70
  1712
 72
     0
 73
     0
 74
     0
  7

 75
     0
 76
     0
 77
     2
 78
   300
147
1.0
148
0.0
149
0.0
100
AcDbLayout
  1
Model
 70
     1
 71
     0
 10
0.0
 20
0.0
 11
12.0
 21
9.0
 12
0.0
 22
0.0
 32
0.0
 14
1.000000000000000E+20
 24
1.000000000000000E+20
 34
1.000000000000000E+20
 15
-1.000000000000000E+20
 25
-1.000000000000000E+20
 35
-1.000000000000000E+20
146
0.0
 13
0.0
 23
0.0
 33
0.0
 16
1.0
 26
0.0
 36
0.0
 17
0.0
 27
1.0
 37
0.0
 76
     0
330
1F
331
29
  0
MATERIAL
  5
3D
102
{ACAD_REACTORS
330
3B
102
}
330
3B
100
AcDbMaterial
  1
ByBlock
 72
     1
 94
      127
  0
MATERIAL
  5
3C
102
{ACAD_REACTORS
330
3B
102
}
330
3B
100
AcDbMaterial
  1
ByLayer
 72
     1
 94
      127
  0
MATERIAL
  5
3E
102
{ACAD_REACTORS
330
3B
102
}
330
3B
100
AcDbMaterial
  1
Global
 72
     1
 94
      127
  0
MLINESTYLE
  5
18
102
{ACAD_REACTORS
330
17
102
}
330
17
100
AcDbMlineStyle
  2
Standard
 70
     0
  3

 62
   256
 51
90.0
 52
90.0
 71
     2
 49
0.5
 62
   256
  6
BYLAYER
 49
-0.5
 62
   256
  6
BYLAYER
  0
ACDBPLACEHOLDER
  5
F
102
{ACAD_REACTORS
330
E
102
}
330
E
  0
VISUALSTYLE
  5
2F
102
{ACAD_REACTORS
330
2A
102
}
330
2A
100
AcDbVisualStyle
  2
2dWireframe
 70
     4
177
     2
291
     0
 71
     0
176
     1
 72
     2
176
     1
 73
     0
176
     1
 90
        0
176
     1
 40
-0.6
176
     1
 41
-30.0
176
     1
 62
     5
 63
     7
421
 16777215
176
     1
 74
     1
176
     1
 91
        4
176
     1
 64
     7
176
     1
 65
   257
176
     1
 75
     1
176
     1
175
     1
176
     1
 42
1.0
176
     1
 92
        0
176
     1
 66
   257
176
     1
 43
1.0
176
     1
 76
     1
176
     1
 77
     6
176
     1
 78
     2
176
     1
 67
     7
176
     1
 79
     5
176
     1
170
     0
176
     1
171
     0
176
     1
290
     0
176
     1
 93
        1
176
     1
 44
0.0
176
     1
173
     0
176
     1
  0
VISUALSTYLE
  5
31
102
{ACAD_REACTORS
330
2A
102
}
330
2A
100
AcDbVisualStyle
  2
3D Hidden
 70
     6
177
     2
291
     0
 71
     1
176
     1
 72
     2
176
     1
 73
     2
176
     1
 90
        0
176
     1
 40
-0.6
176
     1
 41
-30.0
176
     1
 62
     5
 63
     7
421
 16777215
176
     1
 74
     2
176
     1
 91
        2
176
     1
 64
     7
176
     1
 65
   257
176
     1
 75
     2
176
     1
175
     1
176
     1
 42
40.0
176
     1
 92
        0
176
     1
 66
   257
176
     1
 43
1.0
176
     1
 76
     1
176
     1
 77
     6
176
     1
 78
     2
176
     1
 67
     7
176
     1
 79
     3
176
     1
170
     0
176
     1
171
     0
176
     1
290
     0
176
     1
 93
        1
176
     1
 44
0.0
176
     1
173
     0
176
     1
  0
VISUALSTYLE
  5
30
102
{ACAD_REACTORS
330
2A
102
}
330
2A
100
AcDbVisualStyle
  2
3dWireframe
 70
     5
177
     2
291
     0
 71
     0
176
     1
 72
     2
176
     1
 73
     0
176
     1
 90
        0
176
     1
 40
-0.6
176
     1
 41
-30.0
176
     1
 62
     5
 63
     7
421
 16777215
176
     1
 74
     1
176
     1
 91
        4
176
     1
 64
     7
176
     1
 65
   257
176
     1
 75
     1
176
     1
175
     1
176
     1
 42
1.0
176
     1
 92
        0
176
     1
 66
   257
176
     1
 43
1.0
176
     1
 76
     1
176
     1
 77
     6
176
     1
 78
     2
176
     1
 67
     7
176
     1
 79
     5
176
     1
170
     0
176
     1
171
     0
176
     1
290
     0
176
     1
 93
        1
176
     1
 44
0.0
176
     1
173
     0
176
     1
  0
VISUALSTYLE
  5
32
102
{ACAD_REACTORS
330
2A
102
}
330
2A
100
AcDbVisualStyle
  2
Basic
 70
     7
177
     2
291
     1
 71
     1
176
     1
 72
     0
176
     1
 73
     1
176
     1
 90
        0
176
     1
 40
-0.6
176
     1
 41
-30.0
176
     1
 62
     5
 63
     7
421
 16777215
176
     1
 74
     0
176
     1
 91
        4
176
     1
 64
     7
176
     1
 65
   257
176
     1
 75
     1
176
     1
175
     1
176
     1
 42
1.0
176
     1
 92
        8
176
     1
 66
     7
176
     1
 43
1.0
176
     1
 76
     1
176
     1
 77
     6
176
     1
 78
     2
176
     1
 67
     7
176
     1
 79
     5
176
     1
170
     0
176
     1
171
     0
176
     1
290
     0
176
     1
 93
        1
176
     1
 44
0.0
176
     1
173
     0
176
     1
  0
VISUALSTYLE
  5
36
102
{ACAD_REACTORS
330
2A
102
}
330
2A
100
AcDbVisualStyle
  2
Brighten
 70
    12
177
     2
291
     1
 71
     2
176
     1
 72
     2
176
     1
 73
     0
176
     1
 90
        0
176
     1
 40
-0.6
176
     1
 41
-30.0
176
     1
 62
     5
 63
     7
421
 16777215
176
     1
 74
     1
176
     1
 91
        4
176
     1
 64
     7
176
     1
 65
   257
176
     1
 75
     1
176
     1
175
     1
176
     1
 42
1.0
176
     1
 92
        8
176
     1
 66
     7
176
     1
 43
1.0
176
     1
 76
     1
176
     1
 77
     6
176
     1
 78
     2
176
     1
 67
     7
176
     1
 79
     5
176
     1
170
     0
176
     1
171
     0
176
     1
290
     0
176
     1
 93
        1
176
     1
 44
50.0
176
     1
173
     0
176
     1
  0
VISUALSTYLE
  5
3A
102
{ACAD_REACTORS
330
2A
102
}
330
2A
100
AcDbVisualStyle
  2
ColorChange
 70
    16
177
     2
291
     1
 71
     2
176
     1
 72
     2
176
     1
 73
     3
176
     1
 90
        0
176
     1
 40
-0.6
176
     1
 41
-30.0
176
     1
 62
     5
 63
     8
421
  8421504
176
     1
 74
     1
176
     1
 91
        4
176
     1
 64
     7
176
     1
 65
   257
176
     1
 75
     1
176
     1
175
     1
176
     1
 42
1.0
176
     1
 92
        8
176
     1
 66
     8
424
  8421504
176
     1
 43
1.0
176
     1
 76
     1
176
     1
 77
     6
176
     1
 78
     2
176
     1
 67
     7
176
     1
 79
     5
176
     1
170
     0
176
     1
171
     0
176
     1
290
     0
176
     1
 93
        1
176
     1
 44
0.0
176
     1
173
     0
176
     1
  0
VISUALSTYLE
  5
34
102
{ACAD_REACTORS
330
2A
102
}
330
2A
100
AcDbVisualStyle
  2
Conceptual
 70
     9
177
     2
291
     0
 71
     3
176
     1
 72
     2
176
     1
 73
     0
176
     1
 90
        0
176
     1
 40
-0.6
176
     1
 41
-30.0
176
     1
 62
     5
 63
     7
421
 16777215
176
     1
 74
     2
176
     1
 91
        2
176
     1
 64
     7
176
     1
 65
   257
176
     1
 75
     1
176
     1
175
     1
176
     1
 42
40.0
176
     1
 92
        8
176
     1
 66
     7
176
     1
 43
1.0
176
     1
 76
     1
176
     1
 77
     6
176
     1
 78
     2
176
     1
 67
     7
176
     1
 79
     3
176
     1
170
     0
176
     1
171
     0
176
     1
290
     0
176
     1
 93
        1
176
     1
 44
0.0
176
     1
173
     0
176
     1
  0
VISUALSTYLE
  5
35
102
{ACAD_REACTORS
330
2A
102
}
330
2A
100
AcDbVisualStyle
  2
Dim
 70
    11
177
     2
291
     1
 71
     2
176
     1
 72
     2
176
     1
 73
     0
176
     1
 90
        0
176
     1
 40
-0.6
176
     1
 41
-30.0
176
     1
 62
     5
 63
     7
421
 16777215
176
     1
 74
     1
176
     1
 91
        4
176
     1
 64
     7
176
     1
 65
   257
176
     1
 75
     1
176
     1
175
     1
176
     1
 42
1.0
176
     1
 92
        8
176
     1
 66
     7
176
     1
 43
1.0
176
     1
 76
     1
176
     1
 77
     6
176
     1
 78
     2
176
     1
 67
     7
176
     1
 79
     5
176
     1
170
     0
176
     1
171
     0
176
     1
290
     0
176
     1
 93
        1
176
     1
 44
-50.0
176
     1
173
     0
176
     1
  0
VISUALSTYLE
  5
39
102
{ACAD_REACTORS
330
2A
102
}
330
2A
100
AcDbVisualStyle
  2
Facepattern
 70
    15
177
     2
291
     1
 71
     2
176
     1
 72
     2
176
     1
 73
     0
176
     1
 90
        0
176
     1
 40
-0.6
176
     1
 41
-30.0
176
     1
 62
     5
 63
     7
421
 16777215
176
     1
 74
     1
176
     1
 91
        4
176
     1
 64
     7
176
     1
 65
   257
176
     1
 75
     1
176
     1
175
     1
176
     1
 42
1.0
176
     1
 92
        8
176
     1
 66
     7
176
     1
 43
1.0
176
     1
 76
     1
176
     1
 77
     6
176
     1
 78
     2
176
     1
 67
     7
176
     1
 79
     5
176
     1
170
     0
176
     1
171
     0
176
     1
290
     0
176
     1
 93
        1
176
     1
 44
0.0
176
     1
173
     0
176
     1
  0
VISUALSTYLE
  5
2B
102
{ACAD_REACTORS
330
2A
102
}
330
2A
100
AcDbVisualStyle
  2
Flat
 70
     0
177
     2
291
     1
 71
     2
176
     1
 72
     1
176
     1
 73
     1
176
     1
 90
        2
176
     1
 40
-0.6
176
     1
 41
30.0
176
     1
 62
     5
 63
     7
421
 16777215
176
     1
 74
     0
176
     1
 91
        4
176
     1
 64
     7
176
     1
 65
   257
176
     1
 75
     1
176
     1
175
     1
176
     1
 42
1.0
176
     1
 92
        8
176
     1
 66
     7
176
     1
 43
1.0
176
     1
 76
     1
176
     1
 77
     6
176
     1
 78
     2
176
     1
 67
     7
176
     1
 79
     5
176
     1
170
     0
176
     1
171
     0
176
     1
290
     0
176
     1
 93
       13
176
     1
 44
0.0
176
     1
173
     0
176
     1
  0
VISUALSTYLE
  5
2C
102
{ACAD_REACTORS
330
2A
102
}
330
2A
100
AcDbVisualStyle
  2
FlatWithEdges
 70
     1
177
     2
291
     1
 71
     2
176
     1
 72
     1
176
     1
 73
     1
176
     1
 90
        2
176
     1
 40
-0.6
176
     1
 41
30.0
176
     1
 62
     5
 63
     7
421
 16777215
176
     1
 74
     1
176
     1
 91
        4
176
     1
 64
     7
176
     1
 65
   257
176
     1
 75
     1
176
     1
175
     1
176
     1
 42
1.0
176
     1
 92
        0
176
     1
 66
   257
176
     1
 43
1.0
176
     1
 76
     1
176
     1
 77
     6
176
     1
 78
     2
176
     1
 67
     7
176
     1
 79
     5
176
     1
170
     0
176
     1
171
     0
176
     1
290
     0
176
     1
 93
       13
176
     1
 44
0.0
176
     1
173
     0
176
     1
  0
VISUALSTYLE
  5
2D
102
{ACAD_REACTORS
330
2A
102
}
330
2A
100
AcDbVisualStyle
  2
Gouraud
 70
     2
177
     2
291
     1
 71
     2
176
     1
 72
     2
176
     1
 73
     1
176
     1
 90
        2
176
     1
 40
-0.6
176
     1
 41
30.0
176
     1
 62
     5
 63
     7
421
 16777215
176
     1
 74
     0
176
     1
 91
        4
176
     1
 64
     7
176
     1
 65
   257
176
     1
 75
     1
176
     1
175
     1
176
     1
 42
1.0
176
     1
 92
        0
176
     1
 66
     7
176
     1
 43
1.0
176
     1
 76
     1
176
     1
 77
     6
176
     1
 78
     2
176
     1
 67
     7
176
     1
 79
     5
176
     1
170
     0
176
     1
171
     0
176
     1
290
     0
176
     1
 93
       13
176
     1
 44
0.0
176
     1
173
     0
176
     1
  0
VISUALSTYLE
  5
2E
102
{ACAD_REACTORS
330
2A
102
}
330
2A
100
AcDbVisualStyle
  2
GouraudWithEdges
 70
     3
177
     2
291
     1
 71
     2
176
     1
 72
     2
176
     1
 73
     1
176
     1
 90
        2
176
     1
 40
-0.6
176
     1
 41
30.0
176
     1
 62
     5
 63
     7
421
 16777215
176
     1
 74
     1
176
     1
 91
        4
176
     1
 64
     7
176
     1
 65
   257
176
     1
 75
     1
176
     1
175
     1
176
     1
 42
1.0
176
     1
 92
        0
176
     1
 66
   257
176
     1
 43
1.0
176
     1
 76
     1
176
     1
 77
     6
176
     1
 78
     2
176
     1
 67
     7
176
     1
 79
     5
176
     1
170
     0
176
     1
171
     0
176
     1
290
     0
176
     1
 93
       13
176
     1
 44
0.0
176
     1
173
     0
176
     1
  0
VISUALSTYLE
  5
38
102
{ACAD_REACTORS
330
2A
102
}
330
2A
100
AcDbVisualStyle
  2
Linepattern
 70
    14
177
     2
291
     1
 71
     2
176
     1
 72
     2
176
     1
 73
     0
176
     1
 90
        0
176
     1
 40
-0.6
176
     1
 41
-30.0
176
     1
 62
     5
 63
     7
421
 16777215
176
     1
 74
     1
176
     1
 91
        4
176
     1
 64
     7
176
     1
 65
   257
176
     1
 75
     7
176
     1
175
     7
176
     1
 42
1.0
176
     1
 92
        8
176
     1
 66
     7
176
     1
 43
1.0
176
     1
 76
     1
176
     1
 77
     6
176
     1
 78
     2
176
     1
 67
     7
176
     1
 79
     5
176
     1
170
     0
176
     1
171
     0
176
     1
290
     0
176
     1
 93
        1
176
     1
 44
0.0
176
     1
173
     0
176
     1
  0
VISUALSTYLE
  5
33
102
{ACAD_REACTORS
330
2A
102
}
330
2A
100
AcDbVisualStyle
  2
Realistic
 70
     8
177
     2
291
     0
 71
     2
176
     1
 72
     2
176
     1
 73
     0
176
     1
 90
        0
176
     1
 40
-0.6
176
     1
 41
-30.0
176
     1
 62
     5
 63
     7
421
 16777215
176
     1
 74
     1
176
     1
 91
        0
176
     1
 64
     7
176
     1
 65
   257
176
     1
 75
     1
176
     1
175
     1
176
     1
 42
1.0
176
     1
 92
        8
176
     1
 66
     8
424
  7895160
176
     1
 43
1.0
176
     1
 76
     1
176
     1
 77
     6
176
     1
 78
     2
176
     1
 67
     7
176
     1
 79
     5
176
     1
170
     0
176
     1
171
     0
176
     1
290
     0
176
     1
 93
       13
176
     1
 44
0.0
176
     1
173
     0
176
     1
  0
VISUALSTYLE
  5
37
102
{ACAD_REACTORS
330
2A
102
}
330
2A
100
AcDbVisualStyle
  2
Thicken
 70
    13
177
     2
291
     1
 71
     2
176
     1
 72
     2
176
     1
 73
     0
176
     1
 90
        0
176
     1
 40
-0.6
176
     1
 41
-30.0
176
     1
 62
     5
 63
     7
421
 16777215
176
     1
 74
     1
176
     1
 91
        4
176
     1
 64
     7
176
     1
 65
   257
176
     1
 75
     1
176
     1
175
     1
176
     1
 42
1.0
176
     1
 92
       12
176
     1
 66
     7
176
     1
 43
1.0
176
     1
 76
     1
176
     1
 77
     6
176
     1
 78
     2
176
     1
 67
     7
176
     1
 79
     5
176
     1
170
     0
176
     1
171
     0
176
     1
290
     0
176
     1
 93
        1
176
     1
 44
0.0
176
     1
173
     0
176
     1
  0
ENDSEC
  0
EOF
