<?xml version="1.0" encoding="utf-8"?>
<!-- Generator: Adobe Illustrator 23.1.1, SVG Export Plug-In . SVG Version: 6.00 Build 0)  -->
<svg version="1.1" id="圖層_1" xmlns="http://www.w3.org/2000/svg" xmlns:xlink="http://www.w3.org/1999/xlink" x="0px" y="0px"
	 viewBox="0 0 566.93 522.41" style="enable-background:new 0 0 566.93 522.41;" xml:space="preserve">
<style type="text/css">
	.st0{fill:none;stroke:#FF0000;stroke-width:0.0283;stroke-miterlimit:10;}
</style>
<g>
	<g id="LWPOLYLINE_2_">
		<path class="st0" d="M63.42,186.53c0-0.17,0.02-0.34,0.05-0.51c0.28-1.54,1.76-2.56,3.3-2.28l33.18,78.28l35.76,84.36
			c0,0.01,0,0.02,0,0.03v130.93c0,7.83-6.35,14.17-14.17,14.17H54.92V483h8.5v-93.89H94.6v-8.5H63.42v-76.54H86.1v-8.5H63.42v-76.54
			h8.5v-8.5h-8.5V186.53z"/>
	</g>
</g>
<g>
	<g id="LWPOLYLINE_4_">
		<polygon class="st0" points="350.68,305.96 359.19,305.96 359.19,263.44 350.68,263.44 350.68,254.93 359.19,254.93 
			359.19,175.41 362.44,176.26 373.79,179.25 383.94,182.23 386.85,183.09 395.81,186.08 398.38,186.93 406.14,189.92 
			408.37,190.78 414.94,193.76 416.82,194.62 422.19,197.6 423.74,198.46 427.92,201.45 429.12,202.3 432.1,205.29 432.96,206.14 
			434.75,209.13 435.02,209.58 396.04,209.58 396.04,218.08 435.02,218.08 434.75,218.53 432.96,221.51 432.1,222.37 429.12,225.36 
			427.92,226.21 423.74,229.2 422.19,230.06 416.82,233.04 414.94,233.9 408.37,236.88 406.14,237.74 398.38,240.73 395.81,241.58 
			386.85,244.57 383.94,245.43 373.88,248.38 373.88,248.49 373.88,254.93 367.69,254.93 367.69,263.44 373.88,263.44 
			373.88,305.96 367.69,305.96 367.69,314.46 373.88,314.46 373.88,321.01 383.94,323.97 386.85,324.83 395.81,327.81 
			398.38,328.67 406.14,331.65 408.37,332.51 414.94,335.49 416.82,336.35 422.19,339.33 423.74,340.19 427.92,343.18 
			429.12,344.04 432.1,347.02 432.96,347.88 434.75,350.87 435.02,351.31 396.04,351.31 396.04,359.81 435.02,359.81 434.75,360.26 
			432.96,363.25 432.1,364.11 429.12,367.09 427.92,367.95 423.74,370.93 422.19,371.79 416.82,374.78 414.94,375.63 408.37,378.62 
			406.14,379.47 398.38,382.46 395.81,383.32 386.85,386.3 383.94,387.16 373.79,390.14 362.44,393.13 359.19,393.99 359.19,314.46 
			350.68,314.46 		"/>
	</g>
</g>
<path class="st0" d="M137.34,44.43v11.34h8.5v8.5v22.78l7.72-2.03l6.33-1.66l5.66-1.66l6.9-2.03l4.99-1.66l6.09-2.03l4.33-1.66
	l5.28-2.03l3.66-1.66l4.47-2.03l3-1.66l3.65-2.03l2.33-1.66l2.84-2.03l3.69-3.69l1-1.66l0.88-1.47h-1.96v-8.5h1.96l-0.88-1.48
	l-1-1.66l-3.69-3.69l-2.84-2.03l-2.33-1.66l-3.65-2.03l-3-1.66l-4.47-2.03l-3.66-1.66l-5.28-2.03l-4.33-1.66l-6.09-2.03l-4.99-1.66
	l-6.9-2.03l-5.66-1.66l-6.33-1.66l-7.72-2.03v22.78v8.5H137.34z M201.41,45.56c2.5,0,4.54,2.03,4.54,4.54c0,2.5-2.03,4.54-4.54,4.54
	c-2.5,0-4.54-2.03-4.54-4.54C196.87,47.59,198.9,45.56,201.41,45.56z"/>
<path class="st0" d="M106.05,13.14l-7.72,2.03L92,16.84l-5.66,1.66l-6.9,2.03l-4.99,1.66l-6.09,2.03l-4.33,1.66l-5.28,2.03
	l-3.66,1.66l-4.47,2.03l-3,1.66l-3.65,2.03l-2.33,1.66l-2.84,2.03L35.1,42.7l-1,1.66l-0.88,1.48h1.96v8.5h-1.96l0.88,1.47l1,1.66
	l3.69,3.69l2.84,2.03l2.33,1.66l3.65,2.03l3,1.66l4.47,2.03l3.66,1.66l5.28,2.03l4.33,1.66l6.09,2.03l4.99,1.66l6.9,2.03L92,83.35
	l6.33,1.66l7.72,2.03V64.08l0,0v-8.5h8.5V44.43h-8.5v-8.5l0,0V13.14z M55.02,50.1c0,2.5-2.03,4.54-4.54,4.54
	c-2.5,0-4.54-2.03-4.54-4.54c0-2.5,2.03-4.54,4.54-4.54C52.98,45.56,55.02,47.59,55.02,50.1z"/>
<g>
	<g id="LWPOLYLINE_9_">
		<path class="st0" d="M445.41,215.11c0-12.95,8.77-24.25,21.31-27.46c9.05-2.32,17.3-7.05,23.87-13.69h20.58v-8.5h-13.79
			c5.3-8.3,8.12-17.93,8.12-27.78V49.8h10.77v-8.5h1.96l1.68,4.86l0.51,1.48l0.4,1.47l3.34,12.14l0.17,0.84l2.6,12.76l0.05,0.41
			l1.73,13.19l0.01,0.13l0.81,13.47v0.01l0.05,13.6v163.27l-0.05,13.6v0.01l-0.81,13.47l-0.01,0.13L527,319.34l-0.05,0.41
			l-2.6,12.76l-0.17,0.84l-3.34,12.14l-0.4,1.47l-3.92,11.31l-0.8,2.29l-4.27,10.21l-1.42,3.39l-4.3,8.78l-2.37,4.83l-3.84,6.84
			l-3.8,6.76l-2.67,4.21l-5.96,9.4l-0.31,0.44l-0.56,0.79l-6.33,8.64l-2.74,3.74l-3.39,4.19l-2.58,3.2l-2.77,3.25l-2.53,2.97
			l-2.06,2.21l-0.56,0.6l-3.7,3.7l-1.41,1.41l-1.81,1.67l-1.87,1.73l-0.7,0.59l-1.99,1.69l-0.19,0.15l-0.01,0.01l-2.28,1.62
			l-0.09,0.06l-0.1,0.06l-1.93,1.24l-0.17,0.1l-1.63,0.95v-49.47h-8.5v-8.5h8.5v-57.98h36.85v-8.5h-36.85V259h42.52v-8.5h-42.52
			V215.11z"/>
	</g>
</g>
<g>
	<g id="LWPOLYLINE_1_">
		<path class="st0" d="M257.43,286.18c0,12.95,8.77,24.25,21.31,27.46c9.05,2.32,17.3,7.05,23.87,13.69h20.58v8.5h-13.79
			c5.3,8.3,8.12,17.93,8.12,27.78l0,87.87h10.77l0,8.5h1.96l1.68-4.86l0.51-1.48l0.4-1.47l3.34-12.14l0.17-0.84l2.6-12.76l0.05-0.41
			l1.73-13.19l0.01-0.13l0.81-13.47l0-0.01l0.05-13.6l0-163.27l-0.05-13.6l0-0.01l-0.81-13.47l-0.01-0.13l-1.73-13.19l-0.05-0.41
			l-2.6-12.76l-0.17-0.84l-3.34-12.14l-0.4-1.47l-3.92-11.31l-0.8-2.29l-4.27-10.21l-1.42-3.39l-4.3-8.78l-2.37-4.83l-3.84-6.84
			l-3.8-6.76l-2.67-4.21l-5.96-9.4l-0.31-0.44l-0.56-0.79l-6.33-8.64l-2.74-3.74l-3.39-4.19l-2.58-3.2l-2.77-3.25l-2.53-2.97
			l-2.06-2.21l-0.56-0.6l-3.7-3.7l-1.41-1.41l-1.81-1.67l-1.87-1.73l-0.7-0.59l-1.99-1.69l-0.19-0.15l-0.01-0.01l-2.28-1.62
			l-0.08-0.06l-0.1-0.06l-1.93-1.24l-0.17-0.1l-1.63-0.95v49.47l-8.5,0l0,8.5h8.5l0,57.98l36.85,0v8.5l-36.85,0l0,76.54l42.52,0
			l0,8.5l-42.52,0V286.18z"/>
	</g>
</g>
<g>
	<g id="LWPOLYLINE_26_">
		<path class="st0" d="M221.73,498.75c0,0.17-0.02,0.34-0.05,0.51c-0.28,1.54-1.76,2.56-3.3,2.28l-33.18-78.28l-35.76-84.36
			c0-0.01,0-0.02,0-0.03V207.95c0-7.83,6.35-14.17,14.17-14.17h66.61v8.5h-8.5v93.89h-31.18v8.5h31.18v76.54h-22.68v8.5h22.68v76.54
			h-8.5v8.5h8.5V498.75z"/>
	</g>
</g>
<path class="st0" d="M425.56,94.11h24.7l0,0.01l1.35,1.89l2.29,3.21l4.25,4.25l4.25,2.55V87.59h8.5v18.43l4.25-2.55l4.25-4.25
	l4.25-5.95l4.25-7.65l4.25-9.35l4.25-11.06l4.25-12.76l4.25-14.46l4.25-16.16h-17.01c-4.7,0-8.5,3.81-8.5,8.5v24.09
	c0,3.7-2.06,7.09-5.34,8.8c-2.19,1.14-3.78,3.18-4.35,5.59c-0.76,3.2-3.61,5.46-6.9,5.46h-0.23c-3.29,0-6.14-2.26-6.9-5.46
	c-0.57-2.41-2.16-4.45-4.35-5.59c-3.28-1.71-5.34-5.1-5.34-8.8V30.33c0-4.7-3.81-8.5-8.5-8.5h-91.92c-4.7,0-8.5,3.81-8.5,8.5v24.09
	c0,3.7-2.06,7.09-5.34,8.8c-2.19,1.14-3.78,3.18-4.35,5.59c-0.76,3.2-3.61,5.46-6.9,5.46h-0.23c-3.29,0-6.14-2.26-6.9-5.46
	c-0.57-2.41-2.16-4.45-4.35-5.59c-3.28-1.71-5.34-5.1-5.34-8.8V30.33c0-4.7-3.81-8.5-8.5-8.5h-17.01l4.25,16.16l4.25,14.46
	l4.25,12.76l4.25,11.06l4.25,9.35l4.25,7.65l4.25,5.95l4.25,4.25l4.25,2.55v-5.1v-8.22v-5.1h8.5v5.1v8.22v5.1l4.25-2.55l4.25-4.25
	l3.64-5.1l0-0.01h24.7v-41.1h8.5v41.1h42.52v-41.1h8.5V94.11z"/>
<g>
	<g id="LWPOLYLINE_11_">
		<polygon class="st0" points="242.59,178.26 204.32,178.26 204.32,186.76 195.82,186.76 195.82,178.26 62.59,178.26 62.59,186.76 
			54.09,186.76 54.09,178.26 15.82,178.26 20.07,162.1 24.32,147.64 28.58,134.89 32.83,123.83 37.08,114.48 41.33,106.82 
			45.58,100.87 49.84,96.62 54.09,94.07 54.09,135.74 62.59,135.74 62.59,94.07 66.84,96.62 71.1,100.87 72.12,102.31 75.35,106.82 
			79.6,114.48 83.85,123.83 85.27,127.51 85.52,127.51 99.44,127.51 99.44,155.58 107.95,155.58 107.95,127.51 150.47,127.51 
			150.47,155.58 158.97,155.58 158.97,127.51 172.89,127.51 173.14,127.51 174.56,123.83 178.81,114.48 183.06,106.82 
			186.29,102.31 186.3,102.29 187.32,100.87 191.57,96.62 195.82,94.07 195.82,135.74 204.32,135.74 204.32,94.07 208.58,96.62 
			212.83,100.87 217.08,106.82 221.33,114.48 225.58,123.83 229.84,134.89 234.09,147.64 238.34,162.1 		"/>
	</g>
</g>
</svg>
